SplineFontDB: 3.0
FontName: Gruppo-Regular
FullName: Gruppo
FamilyName: Gruppo
Weight: Book
Copyright: Copyright (c) 2010-2012, vernon adams (vern@newtypography.co.uk), with Reserved Font Name "Gruppo"
Version: 2.0; ttfautohint (v0.8) -G 200 -r 50 -x
ItalicAngle: 0
UnderlinePosition: -232
UnderlineWidth: 41
Ascent: 1638
Descent: 410
sfntRevision: 0x00010000
LayerCount: 2
Layer: 0 1 "Back"  1
Layer: 1 1 "Fore"  0
XUID: [1021 723 548469661 3003874]
FSType: 0
OS2Version: 3
OS2_WeightWidthSlopeOnly: 0
OS2_UseTypoMetrics: 1
CreationTime: 1296584385
ModificationTime: 1334260265
PfmFamily: 17
TTFWeight: 400
TTFWidth: 5
LineGap: 0
VLineGap: 0
Panose: 2 0 6 4 6 0 0 2 0 4
OS2TypoAscent: 1
OS2TypoAOffset: 1
OS2TypoDescent: 70
OS2TypoDOffset: 1
OS2TypoLinegap: 0
OS2WinAscent: 0
OS2WinAOffset: 1
OS2WinDescent: -32
OS2WinDOffset: 1
HheadAscent: 0
HheadAOffset: 1
HheadDescent: 32
HheadDOffset: 1
OS2SubXSize: 1434
OS2SubYSize: 1331
OS2SubXOff: 0
OS2SubYOff: 287
OS2SupXSize: 1434
OS2SupYSize: 1331
OS2SupXOff: 0
OS2SupYOff: 977
OS2StrikeYSize: 102
OS2StrikeYPos: 512
OS2Vendor: 'newt'
OS2CodePages: 00000093.00000000
OS2UnicodeRanges: 8000006f.4000004b.00000000.00000000
Lookup: 258 0 0 "'kern' Horizontal Kerning in Latin lookup 0"  {"'kern' Horizontal Kerning in Latin lookup 0 per glyph data 0"  "'kern' Horizontal Kerning in Latin lookup 0 kerning class 1"  } ['kern' ('DFLT' <'dflt' > 'latn' <'dflt' > ) ]
MarkAttachClasses: 1
DEI: 91125
KernClass2: 95+ 104 "'kern' Horizontal Kerning in Latin lookup 0 kerning class 1" 
 2 AE
 1 B
 1 D
 3 Eth
 1 F
 1 G
 1 H
 1 K
 1 L
 6 Lslash
 1 M
 2 OE
 6 Oslash
 1 P
 1 Q
 5 Thorn
 1 V
 1 W
 1 X
 2 ae
 8 asterisk
 2 at
 1 b
 9 backslash
 3 bar
 9 braceleft
 11 bracketleft
 1 d
 8 dotlessi
 6 emdash
 6 endash
 10 exclamdown
 1 f
 4 four
 1 g
 10 germandbls
 13 guillemotleft
 14 guillemotright
 13 guilsinglleft
 14 guilsinglright
 1 h
 4 hbar
 6 hyphen
 1 l
 6 lslash
 1 m
 2 oe
 6 oslash
 9 parenleft
 6 period
 1 q
 8 quotedbl
 12 quotedblbase

StartChar: exclam
Encoding: 33 33 4
Width: 330
GlyphClass: 2
Flags: W
LayerCount: 2
Fore
SplineSet
108 46 m 0,0,1
 108 72 108 72 124 88.5 c 128,-1,2
 140 105 140 105 166 105 c 0,3,4
 191 105 191 105 208.5 88.5 c 128,-1,5
 226 72 226 72 226 46 c 0,6,7
 226 22 226 22 208.5 6 c 128,-1,8
 191 -10 191 -10 166 -10 c 0,9,10
 140 -10 140 -10 124 5.5 c 128,-1,11
 108 21 108 21 108 46 c 0,0,1
108 1065 m 0,12,13
 108 1088 108 1088 124 1099 c 128,-1,14
 140 1110 140 1110 164 1110 c 128,-1,15
 188 1110 188 1110 204.5 1098 c 128,-1,16
 221 1086 221 1086 221 1063 c 2,17,-1
 189 250 l 2,18,19
 187 221 187 221 164 221 c 0,20,21
 142 221 142 221 140 250 c 0,22,23
 108 1063 108 1063 108 1065 c 0,12,13
EndSplineSet
EndChar

StartChar: quotedbl
Encoding: 34 34 5
Width: 403
GlyphClass: 2
Flags: W
LayerCount: 2
Fore
SplineSet
253 810 m 0,0,1
 252 822 252 822 247.5 898 c 128,-1,2
 243 974 243 974 238.5 1033.5 c 128,-1,3
 234 1093 234 1093 230 1099 c 1,4,5
 230 1116 230 1116 244 1125.5 c 128,-1,6
 258 1135 258 1135 279 1135 c 128,-1,7
 300 1135 300 1135 313.5 1125.5 c 128,-1,8
 327 1116 327 1116 327 1099 c 1,9,10
 324 1097 324 1097 319.5 1036.5 c 128,-1,11
 315 976 315 976 310.5 897 c 128,-1,12
 306 818 306 818 305 810 c 0,13,14
 302 789 302 789 279 789 c 128,-1,15
 256 789 256 789 253 810 c 0,0,1
97 810 m 0,16,17
 96 822 96 822 91.5 898 c 128,-1,18
 87 974 87 974 82.5 1033.5 c 128,-1,19
 78 1093 78 1093 74 1099 c 1,20,21
 74 1116 74 1116 88 1125.5 c 128,-1,22
 102 1135 102 1135 123 1135 c 128,-1,23
 144 1135 144 1135 157.5 1125.5 c 128,-1,24
 171 1116 171 1116 171 1099 c 1,25,26
 168 1097 168 1097 163.5 1036.5 c 128,-1,27
 159 976 159 976 154.5 897 c 128,-1,28
 150 818 150 818 149 810 c 0,29,30
 146 789 146 789 123 789 c 128,-1,31
 100 789 100 789 97 810 c 0,16,17
EndSplineSet
EndChar

StartChar: numbersign
Encoding: 35 35 6
Width: 758
GlyphClass: 2
Flags: W
LayerCount: 2
Fore
SplineSet
432 353 m 1,0,-1
 259 353 l 1,1,-1
 211 58 l 2,2,3
 202 0 202 0 170 0 c 0,4,5
 142 0 142 0 142 29 c 0,6,7
 142 42 142 42 145 57 c 2,8,-1
 193 353 l 1,9,-1
 120 353 l 2,10,11
 62 353 62 353 62 385 c 0,12,13
 62 400 62 400 71 408 c 128,-1,14
 80 416 80 416 90 417.5 c 128,-1,15
 100 419 100 419 119 419 c 2,16,-1
 204 419 l 1,17,-1
 242 650 l 1,18,-1
 159 650 l 2,19,20
 101 650 101 650 101 683 c 0,21,22
 101 705 101 705 115 711 c 128,-1,23
 129 717 129 717 158 717 c 2,24,-1
 253 717 l 1,25,-1
 308 1054 l 2,26,27
 311 1074 311 1074 314.5 1085 c 128,-1,28
 318 1096 318 1096 327.5 1105 c 128,-1,29
 337 1114 337 1114 353 1114 c 0,30,31
 376 1114 376 1114 376 1083 c 0,32,33
 376 1074 376 1074 374 1056 c 2,34,-1
 319 717 l 1,35,-1
 492 717 l 1,36,-1
 547 1054 l 2,37,38
 551 1083 551 1083 560.5 1098.5 c 128,-1,39
 570 1114 570 1114 592 1114 c 0,40,41
 616 1114 616 1114 616 1081 c 0,42,43
 616 1074 616 1074 614 1056 c 2,44,-1
 558 717 l 1,45,-1
 635 717 l 2,46,47
 654 717 654 717 665.5 715 c 128,-1,48
 677 713 677 713 686 705 c 128,-1,49
 695 697 695 697 695 681 c 0,50,51
 695 650 695 650 636 650 c 2,52,-1
 547 650 l 1,53,-1
 509 419 l 1,54,-1
 596 419 l 2,55,56
 625 419 625 419 640.5 412.5 c 128,-1,57
 656 406 656 406 656 384 c 0,58,59
 656 353 656 353 597 353 c 2,60,-1
 498 353 l 1,61,-1
 450 58 l 2,62,63
 441 0 441 0 409 0 c 0,64,65
 381 0 381 0 381 29 c 0,66,67
 381 42 381 42 384 57 c 2,68,-1
 432 353 l 1,0,-1
443 419 m 1,69,-1
 481 650 l 1,70,-1
 308 650 l 1,71,-1
 270 419 l 1,72,-1
 443 419 l 1,69,-1
EndSplineSet
EndChar

StartChar: dollar
Encoding: 36 36 7
Width: 1523
GlyphClass: 2
Flags: W
LayerCount: 2
Fore
SplineSet
720 1069 m 0,0,1
 714 1069 714 1069 703.5 1068.5 c 128,-1,2
 693 1068 693 1068 688 1068 c 1,3,-1
 688 624 l 1,4,5
 695 624 695 624 752.5 620.5 c 128,-1,6
 810 617 810 617 841 615 c 1,7,-1
 841 1065 l 1,8,9
 759 1069 759 1069 720 1069 c 0,0,1
841 46 m 1,10,-1
 841 539 l 1,11,12
 739 545 739 545 688 547 c 1,13,-1
 688 52 l 1,14,15
 764 46 764 46 841 46 c 1,10,-1
195 821 m 0,16,17
 195 786 195 786 209.5 758 c 128,-1,18
 224 730 224 730 253.5 710.5 c 128,-1,19
 283 691 283 691 318.5 677 c 128,-1,20
 354 663 354 663 405 653.5 c 128,-1,21
 456 644 456 644 504 638.5 c 128,-1,22
 552 633 552 633 616 629 c 1,23,-1
 616 1066 l 1,24,25
 525 1060 525 1060 451.5 1044.5 c 128,-1,26
 378 1029 378 1029 319 1001 c 128,-1,27
 260 973 260 973 227.5 927 c 128,-1,28
 195 881 195 881 195 821 c 0,16,17
1342 311 m 0,29,30
 1342 352 1342 352 1327 384 c 128,-1,31
 1312 416 1312 416 1282.5 439 c 128,-1,32
 1253 462 1253 462 1216 478.5 c 128,-1,33
 1179 495 1179 495 1127.5 506 c 128,-1,34
 1076 517 1076 517 1026.5 523 c 128,-1,35
 977 529 977 529 913 534 c 1,36,-1
 913 47 l 1,37,38
 1006 51 1006 51 1080.5 67.5 c 128,-1,39
 1155 84 1155 84 1215.5 114 c 128,-1,40
 1276 144 1276 144 1309 194 c 128,-1,41
 1342 244 1342 244 1342 311 c 0,29,30
1427 311 m 0,42,43
 1427 227 1427 227 1386 164 c 128,-1,44
 1345 101 1345 101 1271.5 64 c 128,-1,45
 1198 27 1198 27 1109.5 7.5 c 128,-1,46
 1021 -12 1021 -12 913 -18 c 1,47,-1
 913 -91 l 2,48,49
 913 -106 913 -106 912.5 -113.5 c 128,-1,50
 912 -121 912 -121 910.5 -132 c 128,-1,51
 909 -143 909 -143 905.5 -148 c 128,-1,52
 902 -153 902 -153 895 -157 c 128,-1,53
 888 -161 888 -161 878 -161 c 0,54,55
 861 -161 861 -161 852 -151 c 128,-1,56
 843 -141 843 -141 842 -130.5 c 128,-1,57
 841 -120 841 -120 841 -99 c 2,58,-1
 841 -20 l 1,59,-1
 829 -20 l 2,60,61
 766 -20 766 -20 688 -15 c 1,62,-1
 688 -91 l 2,63,64
 688 -106 688 -106 687.5 -113.5 c 128,-1,65
 687 -121 687 -121 685.5 -132 c 128,-1,66
 684 -143 684 -143 680.5 -148 c 128,-1,67
 677 -153 677 -153 670 -157 c 128,-1,68
 663 -161 663 -161 653 -161 c 0,69,70
 636 -161 636 -161 627 -151 c 128,-1,71
 618 -141 618 -141 617 -130.5 c 128,-1,72
 616 -120 616 -120 616 -99 c 2,73,-1
 616 -9 l 1,74,75
 467 5 467 5 336.5 34 c 128,-1,76
 206 63 206 63 149 90 c 0,77,78
 122 103 122 103 122 129 c 0,79,80
 122 158 122 158 148 158 c 0,81,82
 154 158 154 158 162 155 c 0,83,84
 224 130 224 130 350 102 c 128,-1,85
 476 74 476 74 616 59 c 1,86,-1
 616 551 l 1,87,88
 542 556 542 556 485.5 562.5 c 128,-1,89
 429 569 429 569 367 581.5 c 128,-1,90
 305 594 305 594 262 613 c 128,-1,91
 219 632 219 632 182.5 659 c 128,-1,92
 146 686 146 686 128 725.5 c 128,-1,93
 110 765 110 765 110 815 c 0,94,95
 110 1105 110 1105 616 1132 c 1,96,-1
 616 1230 l 2,97,98
 616 1247 616 1247 616.5 1255.5 c 128,-1,99
 617 1264 617 1264 620.5 1275.5 c 128,-1,100
 624 1287 624 1287 632 1291.5 c 128,-1,101
 640 1296 640 1296 653 1296 c 128,-1,102
 666 1296 666 1296 673.5 1291 c 128,-1,103
 681 1286 681 1286 684 1274 c 128,-1,104
 687 1262 687 1262 687.5 1253 c 128,-1,105
 688 1244 688 1244 688 1227 c 2,106,-1
 688 1135 l 1,107,-1
 716 1135 l 2,108,109
 773 1135 773 1135 841 1130 c 1,110,-1
 841 1230 l 2,111,112
 841 1247 841 1247 841.5 1255.5 c 128,-1,113
 842 1264 842 1264 845.5 1275.5 c 128,-1,114
 849 1287 849 1287 857 1291.5 c 128,-1,115
 865 1296 865 1296 878 1296 c 128,-1,116
 891 1296 891 1296 898.5 1291 c 128,-1,117
 906 1286 906 1286 909 1274 c 128,-1,118
 912 1262 912 1262 912.5 1253 c 128,-1,119
 913 1244 913 1244 913 1227 c 2,120,-1
 913 1125 l 1,121,122
 1038 1113 1038 1113 1145 1088 c 128,-1,123
 1252 1063 1252 1063 1311 1036 c 0,124,125
 1327 1029 1327 1029 1327 1009 c 0,126,127
 1327 994 1327 994 1317 982.5 c 128,-1,128
 1307 971 1307 971 1291 971 c 0,129,130
 1281 971 1281 971 1274 975 c 1,131,132
 1123 1036 1123 1036 913 1058 c 1,133,-1
 913 610 l 1,134,135
 1003 602 1003 602 1071 591.5 c 128,-1,136
 1139 581 1139 581 1209.5 559 c 128,-1,137
 1280 537 1280 537 1325 506 c 128,-1,138
 1370 475 1370 475 1398.5 425.5 c 128,-1,139
 1427 376 1427 376 1427 311 c 0,42,43
EndSplineSet
EndChar

StartChar: percent
Encoding: 37 37 8
Width: 1268
GlyphClass: 2
Flags: W
LayerCount: 2
Fore
SplineSet
128 801 m 0,0,1
 128 729 128 729 182.5 677 c 128,-1,2
 237 625 237 625 312 625 c 128,-1,3
 387 625 387 625 440.5 677 c 128,-1,4
 494 729 494 729 494 801 c 0,5,6
 494 874 494 874 440.5 926 c 128,-1,7
 387 978 387 978 312 978 c 128,-1,8
 237 978 237 978 182.5 926 c 128,-1,9
 128 874 128 874 128 801 c 0,0,1
60 803 m 128,-1,11
 60 902 60 902 134 973.5 c 128,-1,12
 208 1045 208 1045 312 1045 c 128,-1,13
 416 1045 416 1045 490 973.5 c 128,-1,14
 564 902 564 902 564 803 c 128,-1,15
 564 704 564 704 490 633 c 128,-1,16
 416 562 416 562 312 562 c 128,-1,17
 208 562 208 562 134 633 c 128,-1,10
 60 704 60 704 60 803 c 128,-1,11
777 345 m 128,-1,19
 777 272 777 272 830.5 220.5 c 128,-1,20
 884 169 884 169 961 169 c 0,21,22
 1036 169 1036 169 1089.5 221 c 128,-1,23
 1143 273 1143 273 1143 345 c 0,24,25
 1143 418 1143 418 1089.5 470 c 128,-1,26
 1036 522 1036 522 961 522 c 0,27,28
 884 522 884 522 830.5 470 c 128,-1,18
 777 418 777 418 777 345 c 128,-1,19
707 347 m 128,-1,30
 707 446 707 446 781.5 517.5 c 128,-1,31
 856 589 856 589 961 589 c 0,32,33
 1065 589 1065 589 1139 517.5 c 128,-1,34
 1213 446 1213 446 1213 347 c 128,-1,35
 1213 248 1213 248 1139 177 c 128,-1,36
 1065 106 1065 106 961 106 c 0,37,38
 856 106 856 106 781.5 177 c 128,-1,29
 707 248 707 248 707 347 c 128,-1,30
973 1042 m 2,39,-1
 360 46 l 2,40,41
 348 27 348 27 343.5 20.5 c 128,-1,42
 339 14 339 14 329.5 6 c 128,-1,43
 320 -2 320 -2 311 -2 c 0,44,45
 292 -2 292 -2 283.5 9 c 128,-1,46
 275 20 275 20 275 32 c 0,47,48
 275 47 275 47 295 80 c 2,49,-1
 906 1075 l 2,50,51
 907 1077 907 1077 912 1085 c 128,-1,52
 917 1093 917 1093 918.5 1095.5 c 128,-1,53
 920 1098 920 1098 924 1104.5 c 128,-1,54
 928 1111 928 1111 931 1113 c 128,-1,55
 934 1115 934 1115 938 1118.5 c 128,-1,56
 942 1122 942 1122 946.5 1123 c 128,-1,57
 951 1124 951 1124 956 1124 c 0,58,59
 992 1124 992 1124 992 1094 c 0,60,61
 992 1072 992 1072 973 1042 c 2,39,-1
EndSplineSet
EndChar

StartChar: ampersand
Encoding: 38 38 9
Width: 1164
GlyphClass: 2
Flags: W
LayerCount: 2
Fore
SplineSet
471 1085 m 0,0,1
 375 1085 375 1085 313 1035 c 128,-1,2
 251 985 251 985 251 905 c 0,3,4
 251 806 251 806 358 695 c 1,5,-1
 675 695 l 1,6,-1
 675 855 l 2,7,8
 675 870 675 870 687 878 c 128,-1,9
 699 886 699 886 715 886 c 128,-1,10
 731 886 731 886 743 878 c 128,-1,11
 755 870 755 870 755 855 c 2,12,-1
 755 695 l 1,13,-1
 916 695 l 2,14,15
 941 695 941 695 949 688.5 c 128,-1,16
 957 682 957 682 957 666 c 0,17,18
 957 636 957 636 916 636 c 2,19,-1
 755 636 l 1,20,-1
 755 279 l 2,21,22
 755 209 755 209 769 161.5 c 128,-1,23
 783 114 783 114 811 90.5 c 128,-1,24
 839 67 839 67 870 58 c 128,-1,25
 901 49 901 49 944 49 c 0,26,27
 983 49 983 49 1022.5 67.5 c 128,-1,28
 1062 86 1062 86 1089 105 c 128,-1,29
 1116 124 1116 124 1123 124 c 0,30,31
 1133 124 1133 124 1139 117 c 128,-1,32
 1145 110 1145 110 1145 100 c 0,33,34
 1145 71 1145 71 1075 30.5 c 128,-1,35
 1005 -10 1005 -10 930 -10 c 0,36,37
 801 -10 801 -10 736 67 c 1,38,39
 596 -18 596 -18 434 -18 c 0,40,41
 332 -18 332 -18 249 17.5 c 128,-1,42
 166 53 166 53 112 133 c 128,-1,43
 58 213 58 213 58 327 c 0,44,45
 58 392 58 392 75.5 447 c 128,-1,46
 93 502 93 502 119.5 538 c 128,-1,47
 146 574 146 574 183 602 c 128,-1,48
 220 630 220 630 253 645.5 c 128,-1,49
 286 661 286 661 322 671 c 1,50,51
 266 698 266 698 223.5 756 c 128,-1,52
 181 814 181 814 181 909 c 0,53,54
 181 1015 181 1015 263.5 1079.5 c 128,-1,55
 346 1144 346 1144 457 1144 c 0,56,57
 513 1144 513 1144 559.5 1136.5 c 128,-1,58
 606 1129 606 1129 632.5 1118 c 128,-1,59
 659 1107 659 1107 677 1094.5 c 128,-1,60
 695 1082 695 1082 701.5 1073 c 128,-1,61
 708 1064 708 1064 708 1058 c 0,62,63
 708 1046 708 1046 700.5 1036.5 c 128,-1,64
 693 1027 693 1027 682 1027 c 0,65,66
 676 1027 676 1027 650 1041.5 c 128,-1,67
 624 1056 624 1056 576.5 1070.5 c 128,-1,68
 529 1085 529 1085 471 1085 c 0,0,1
134 331 m 0,69,70
 134 257 134 257 158.5 201 c 128,-1,71
 183 145 183 145 226.5 112.5 c 128,-1,72
 270 80 270 80 322.5 64 c 128,-1,73
 375 48 375 48 436 48 c 0,74,75
 582 48 582 48 702 123 c 1,76,77
 675 187 675 187 675 279 c 2,78,-1
 675 636 l 1,79,-1
 364 636 l 1,80,81
 251 600 251 600 192.5 528.5 c 128,-1,82
 134 457 134 457 134 331 c 0,69,70
EndSplineSet
EndChar

StartChar: quotesingle
Encoding: 39 39 10
Width: 246
GlyphClass: 2
Flags: W
LayerCount: 2
Fore
SplineSet
97 810 m 1,0,1
 96 822 96 822 91.5 898 c 128,-1,2
 87 974 87 974 82.5 1033.5 c 128,-1,3
 78 1093 78 1093 74 1099 c 1,4,5
 74 1116 74 1116 88 1125.5 c 128,-1,6
 102 1135 102 1135 123 1135 c 128,-1,7
 144 1135 144 1135 157.5 1125.5 c 128,-1,8
 171 1116 171 1116 171 1099 c 1,9,10
 168 1097 168 1097 163.5 1036.5 c 128,-1,11
 159 976 159 976 154.5 897 c 128,-1,12
 150 818 150 818 149 810 c 0,13,14
 146 789 146 789 123 789 c 0,15,16
 97 789 97 789 97 810 c 1,0,1
EndSplineSet
EndChar

StartChar: parenleft
Encoding: 40 40 11
Width: 444
GlyphClass: 2
Flags: W
LayerCount: 2
Fore
SplineSet
70 551 m 0,0,1
 70 664 70 664 84.5 768 c 128,-1,2
 99 872 99 872 131 966 c 128,-1,3
 163 1060 163 1060 210 1129.5 c 128,-1,4
 257 1199 257 1199 326.5 1240 c 128,-1,5
 396 1281 396 1281 481 1281 c 0,6,7
 497 1281 497 1281 505.5 1271.5 c 128,-1,8
 514 1262 514 1262 514 1249 c 128,-1,9
 514 1236 514 1236 505.5 1226.5 c 128,-1,10
 497 1217 497 1217 481 1217 c 0,11,12
 393 1217 393 1217 327 1161 c 128,-1,13
 261 1105 261 1105 223 1008.5 c 128,-1,14
 185 912 185 912 166.5 797.5 c 128,-1,15
 148 683 148 683 148 552 c 128,-1,16
 148 421 148 421 166.5 306.5 c 128,-1,17
 185 192 185 192 223 95.5 c 128,-1,18
 261 -1 261 -1 327 -57 c 128,-1,19
 393 -113 393 -113 481 -113 c 0,20,21
 497 -113 497 -113 505.5 -122.5 c 128,-1,22
 514 -132 514 -132 514 -145 c 128,-1,23
 514 -158 514 -158 505.5 -167.5 c 128,-1,24
 497 -177 497 -177 481 -177 c 0,25,26
 376 -177 376 -177 294.5 -115.5 c 128,-1,27
 213 -54 213 -54 165.5 50.5 c 128,-1,28
 118 155 118 155 94 282 c 128,-1,29
 70 409 70 409 70 551 c 0,0,1
EndSplineSet
EndChar

StartChar: parenright
Encoding: 41 41 12
Width: 444
GlyphClass: 2
Flags: W
LayerCount: 2
Fore
SplineSet
374 551 m 0,0,1
 374 409 374 409 350 282 c 128,-1,2
 326 155 326 155 278.5 50.5 c 128,-1,3
 231 -54 231 -54 149.5 -115.5 c 128,-1,4
 68 -177 68 -177 -37 -177 c 0,5,6
 -53 -177 -53 -177 -61.5 -167.5 c 128,-1,7
 -70 -158 -70 -158 -70 -145 c 128,-1,8
 -70 -132 -70 -132 -61.5 -122.5 c 128,-1,9
 -53 -113 -53 -113 -37 -113 c 0,10,11
 51 -113 51 -113 117 -57 c 128,-1,12
 183 -1 183 -1 221 95.5 c 128,-1,13
 259 192 259 192 277.5 306.5 c 128,-1,14
 296 421 296 421 296 552 c 128,-1,15
 296 683 296 683 277.5 797.5 c 128,-1,16
 259 912 259 912 221 1008.5 c 128,-1,17
 183 1105 183 1105 117 1161 c 128,-1,18
 51 1217 51 1217 -37 1217 c 0,19,20
 -53 1217 -53 1217 -61.5 1226.5 c 128,-1,21
 -70 1236 -70 1236 -70 1249 c 128,-1,22
 -70 1262 -70 1262 -61.5 1271.5 c 128,-1,23
 -53 1281 -53 1281 -37 1281 c 0,24,25
 48 1281 48 1281 117.5 1240 c 128,-1,26
 187 1199 187 1199 234 1129.5 c 128,-1,27
 281 1060 281 1060 313 966 c 128,-1,28
 345 872 345 872 359.5 768 c 128,-1,29
 374 664 374 664 374 551 c 0,0,1
EndSplineSet
EndChar

StartChar: asterisk
Encoding: 42 42 13
Width: 868
GlyphClass: 2
Flags: W
LayerCount: 2
Fore
SplineSet
431 733 m 1,0,-1
 542 979 l 2,1,2
 560 1018 560 1018 578 1018 c 0,3,4
 595 1018 595 1018 607 1007.5 c 128,-1,5
 619 997 619 997 619 987 c 0,6,7
 619 979 619 979 605 949 c 2,8,-1
 480 699 l 1,9,-1
 746 705 l 1,10,-1
 757 705 l 2,11,12
 780 705 780 705 791 698 c 128,-1,13
 802 691 802 691 802 669 c 0,14,15
 802 648 802 648 791.5 641 c 128,-1,16
 781 634 781 634 759 634 c 2,17,-1
 749 634 l 1,18,-1
 485 641 l 1,19,-1
 627 406 l 2,20,21
 640 383 640 383 643 366 c 1,22,23
 643 356 643 356 630 345 c 128,-1,24
 617 334 617 334 603 334 c 0,25,26
 585 334 585 334 565 371 c 2,27,-1
 436 606 l 1,28,-1
 325 362 l 2,29,30
 318 348 318 348 314 340.5 c 128,-1,31
 310 333 310 333 304 327.5 c 128,-1,32
 298 322 298 322 290 322 c 0,33,34
 272 322 272 322 260 333 c 128,-1,35
 248 344 248 344 248 354 c 0,36,37
 248 365 248 365 262 391 c 2,38,-1
 387 641 l 1,39,-1
 121 635 l 1,40,-1
 108 635 l 2,41,42
 85 635 85 635 75 642 c 128,-1,43
 65 649 65 649 65 671 c 0,44,45
 65 694 65 694 77.5 700.5 c 128,-1,46
 90 707 90 707 119 707 c 2,47,-1
 381 699 l 1,48,-1
 240 934 l 1,49,50
 225 957 225 957 224 973 c 0,51,52
 224 982 224 982 236 994 c 128,-1,53
 248 1006 248 1006 264 1006 c 0,54,55
 275 1006 275 1006 283 997.5 c 128,-1,56
 291 989 291 989 302 969 c 2,57,-1
 431 733 l 1,0,-1
EndSplineSet
EndChar

StartChar: plus
Encoding: 43 43 14
Width: 797
GlyphClass: 2
Flags: W
LayerCount: 2
Fore
SplineSet
107 511 m 2,0,-1
 368 511 l 1,1,-1
 368 742 l 2,2,3
 368 775 368 775 398 775 c 0,4,5
 410 775 410 775 419 766.5 c 128,-1,6
 428 758 428 758 428 742 c 2,7,-1
 428 511 l 1,8,-1
 690 511 l 2,9,10
 726 511 726 511 726 483 c 0,11,12
 726 472 726 472 717 464.5 c 128,-1,13
 708 457 708 457 690 457 c 2,14,-1
 428 457 l 1,15,-1
 428 224 l 2,16,17
 428 192 428 192 398 192 c 128,-1,18
 368 192 368 192 368 224 c 2,19,-1
 368 457 l 1,20,-1
 107 457 l 2,21,22
 89 457 89 457 80 464.5 c 128,-1,23
 71 472 71 472 71 483 c 0,24,25
 71 511 71 511 107 511 c 2,0,-1
EndSplineSet
EndChar

StartChar: comma
Encoding: 44 44 15
Width: 323
GlyphClass: 2
Flags: W
LayerCount: 2
Fore
SplineSet
85 -124 m 1,0,-1
 85 -88 l 1,1,2
 148 -88 148 -88 148 -21 c 1,3,4
 99 -5 99 -5 99 46 c 0,5,6
 99 74 99 74 119 89.5 c 128,-1,7
 139 105 139 105 169 105 c 0,8,9
 195 105 195 105 216 85.5 c 128,-1,10
 237 66 237 66 237 31 c 0,11,12
 237 -27 237 -27 196.5 -75.5 c 128,-1,13
 156 -124 156 -124 85 -124 c 1,0,-1
EndSplineSet
EndChar

StartChar: hyphen
Encoding: 45 45 16
Width: 603
GlyphClass: 2
Flags: W
LayerCount: 2
Fore
SplineSet
122 518 m 2,0,-1
 481 518 l 2,1,2
 494 518 494 518 501 506.5 c 128,-1,3
 508 495 508 495 508 480 c 0,4,5
 508 466 508 466 501 455 c 128,-1,6
 494 444 494 444 481 444 c 2,7,-1
 122 444 l 2,8,9
 109 444 109 444 102 455 c 128,-1,10
 95 466 95 466 95 480 c 0,11,12
 95 495 95 495 102 506.5 c 128,-1,13
 109 518 109 518 122 518 c 2,0,-1
EndSplineSet
EndChar

StartChar: period
Encoding: 46 46 17
Width: 312
GlyphClass: 2
Flags: W
LayerCount: 2
Fore
SplineSet
93 52 m 0,0,1
 93 81 93 81 110.5 99 c 128,-1,2
 128 117 128 117 157 117 c 0,3,4
 184 117 184 117 203.5 98.5 c 128,-1,5
 223 80 223 80 223 52 c 0,6,7
 223 25 223 25 204 7.5 c 128,-1,8
 185 -10 185 -10 157 -10 c 0,9,10
 128 -10 128 -10 110.5 7 c 128,-1,11
 93 24 93 24 93 52 c 0,0,1
EndSplineSet
EndChar

StartChar: slash
Encoding: 47 47 18
Width: 602
GlyphClass: 2
Flags: W
LayerCount: 2
Fore
SplineSet
543 1098 m 2,0,-1
 131 4 l 2,1,2
 128 -2 128 -2 123 -13.5 c 128,-1,3
 118 -25 118 -25 115.5 -30 c 128,-1,4
 113 -35 113 -35 108.5 -41.5 c 128,-1,5
 104 -48 104 -48 98.5 -50.5 c 128,-1,6
 93 -53 93 -53 86 -53 c 0,7,8
 49 -53 49 -53 49 -17 c 1,9,10
 48 -9 48 -9 61 25 c 2,11,-1
 471 1118 l 1,12,13
 479 1147 479 1147 489 1161.5 c 128,-1,14
 499 1176 499 1176 520 1176 c 0,15,16
 553 1176 553 1176 553 1141 c 0,17,18
 553 1126 553 1126 543 1098 c 2,0,-1
EndSplineSet
EndChar

StartChar: zero
Encoding: 48 48 19
Width: 1060
GlyphClass: 2
Flags: W
LayerCount: 2
Fore
SplineSet
92 557 m 128,-1,1
 92 668 92 668 102.5 751.5 c 128,-1,2
 113 835 113 835 142 910 c 128,-1,3
 171 985 171 985 219 1032.5 c 128,-1,4
 267 1080 267 1080 345 1107.5 c 128,-1,5
 423 1135 423 1135 530 1135 c 128,-1,6
 637 1135 637 1135 715 1107.5 c 128,-1,7
 793 1080 793 1080 841 1032.5 c 128,-1,8
 889 985 889 985 918 910 c 128,-1,9
 947 835 947 835 957.5 751.5 c 128,-1,10
 968 668 968 668 968 557 c 128,-1,11
 968 446 968 446 957.5 362.5 c 128,-1,12
 947 279 947 279 918 204 c 128,-1,13
 889 129 889 129 841 81.5 c 128,-1,14
 793 34 793 34 715 6.5 c 128,-1,15
 637 -21 637 -21 530 -21 c 128,-1,16
 423 -21 423 -21 345 6.5 c 128,-1,17
 267 34 267 34 219 81.5 c 128,-1,18
 171 129 171 129 142 204 c 128,-1,19
 113 279 113 279 102.5 362.5 c 128,-1,0
 92 446 92 446 92 557 c 128,-1,1
892 557 m 128,-1,21
 892 666 892 666 882.5 744.5 c 128,-1,22
 873 823 873 823 849 887 c 128,-1,23
 825 951 825 951 783.5 989.5 c 128,-1,24
 742 1028 742 1028 679.5 1048.5 c 128,-1,25
 617 1069 617 1069 530 1069 c 0,26,27
 423 1069 423 1069 352 1039 c 128,-1,28
 281 1009 281 1009 240.5 942.5 c 128,-1,29
 200 876 200 876 184 784.5 c 128,-1,30
 168 693 168 693 168 557 c 128,-1,31
 168 421 168 421 184 329.5 c 128,-1,32
 200 238 200 238 240.5 171.5 c 128,-1,33
 281 105 281 105 352 75 c 128,-1,34
 423 45 423 45 530 45 c 0,35,36
 617 45 617 45 679.5 65.5 c 128,-1,37
 742 86 742 86 783.5 124.5 c 128,-1,38
 825 163 825 163 849 227 c 128,-1,39
 873 291 873 291 882.5 369.5 c 128,-1,20
 892 448 892 448 892 557 c 128,-1,21
EndSplineSet
EndChar

StartChar: one
Encoding: 49 49 20
Width: 452
GlyphClass: 2
Flags: W
LayerCount: 2
Fore
SplineSet
313 1044 m 2,0,-1
 313 70 l 2,1,2
 313 21 313 21 304 10 c 0,3,4
 297 0 297 0 280 0 c 0,5,6
 266 0 266 0 257.5 5.5 c 128,-1,7
 249 11 249 11 245.5 23 c 128,-1,8
 242 35 242 35 241.5 43.5 c 128,-1,9
 241 52 241 52 241 70 c 2,10,-1
 241 1044 l 1,11,-1
 87 1044 l 2,12,13
 85 1044 85 1044 81 1044 c 0,14,15
 63 1044 63 1044 53.5 1045 c 128,-1,16
 44 1046 44 1046 34 1052.5 c 128,-1,17
 24 1059 24 1059 24 1073 c 0,18,19
 24 1114 24 1114 85 1114 c 2,20,-1
 278 1114 l 2,21,22
 284 1114 284 1114 289.5 1113 c 128,-1,23
 295 1112 295 1112 298.5 1109 c 128,-1,24
 302 1106 302 1106 304.5 1103.5 c 128,-1,25
 307 1101 307 1101 308.5 1095 c 128,-1,26
 310 1089 310 1089 311 1086.5 c 128,-1,27
 312 1084 312 1084 312.5 1076.5 c 128,-1,28
 313 1069 313 1069 313 1066 c 128,-1,29
 313 1063 313 1063 313 1054.5 c 128,-1,30
 313 1046 313 1046 313 1044 c 2,0,-1
EndSplineSet
EndChar

StartChar: two
Encoding: 50 50 21
Width: 925
GlyphClass: 2
Flags: W
LayerCount: 2
Fore
SplineSet
770 761 m 0,0,1
 770 841 770 841 745.5 900.5 c 128,-1,2
 721 960 721 960 675 995.5 c 128,-1,3
 629 1031 629 1031 568.5 1048 c 128,-1,4
 508 1065 508 1065 433 1065 c 0,5,6
 310 1065 310 1065 155 1015 c 0,7,8
 140 1010 140 1010 129 1010 c 0,9,10
 93 1010 93 1010 93 1036 c 0,11,12
 93 1073 93 1073 206.5 1103.5 c 128,-1,13
 320 1134 320 1134 433 1134 c 0,14,15
 569 1134 569 1134 662 1088 c 128,-1,16
 755 1042 755 1042 799.5 958.5 c 128,-1,17
 844 875 844 875 844 757 c 0,18,19
 844 584 844 584 669 450 c 0,20,21
 600 396 600 396 429 304 c 0,22,23
 275 221 275 221 220 171 c 0,24,25
 166 122 166 122 152 70 c 1,26,-1
 774 70 l 2,27,28
 796 70 796 70 807.5 59.5 c 128,-1,29
 819 49 819 49 819 34 c 128,-1,30
 819 19 819 19 807.5 8.5 c 128,-1,31
 796 -2 796 -2 774 -2 c 2,32,-1
 119 -2 l 2,33,34
 75 -2 75 -2 75 34 c 0,35,36
 75 80 75 80 95 122.5 c 128,-1,37
 115 165 115 165 140.5 194.5 c 128,-1,38
 166 224 166 224 218 260 c 128,-1,39
 270 296 270 296 304 315 c 128,-1,40
 338 334 338 334 405 370 c 0,41,42
 441 389 441 389 459 399 c 128,-1,43
 477 409 477 409 511 428 c 128,-1,44
 545 447 545 447 563.5 460 c 128,-1,45
 582 473 582 473 610.5 492.5 c 128,-1,46
 639 512 639 512 655.5 528.5 c 128,-1,47
 672 545 672 545 693 566.5 c 128,-1,48
 714 588 714 588 725.5 609 c 128,-1,49
 737 630 737 630 748.5 654.5 c 128,-1,50
 760 679 760 679 765 705.5 c 128,-1,51
 770 732 770 732 770 761 c 0,0,1
EndSplineSet
EndChar

StartChar: three
Encoding: 51 51 22
Width: 946
GlyphClass: 2
Flags: W
LayerCount: 2
Fore
SplineSet
95 1037 m 0,0,1
 95 1068 95 1068 159.5 1091.5 c 128,-1,2
 224 1115 224 1115 301.5 1125 c 128,-1,3
 379 1135 379 1135 445 1135 c 0,4,5
 532 1135 532 1135 600.5 1119 c 128,-1,6
 669 1103 669 1103 712 1077 c 128,-1,7
 755 1051 755 1051 783 1015 c 128,-1,8
 811 979 811 979 822 941.5 c 128,-1,9
 833 904 833 904 833 862 c 0,10,11
 833 819 833 819 822 781 c 128,-1,12
 811 743 811 743 785.5 706.5 c 128,-1,13
 760 670 760 670 712 643 c 128,-1,14
 664 616 664 616 596 604 c 1,15,16
 682 590 682 590 741 548.5 c 128,-1,17
 800 507 800 507 829.5 444.5 c 128,-1,18
 859 382 859 382 859 300 c 0,19,20
 859 231 859 231 835 173.5 c 128,-1,21
 811 116 811 116 762.5 72 c 128,-1,22
 714 28 714 28 633 3.5 c 128,-1,23
 552 -21 552 -21 445 -21 c 0,24,25
 323 -21 323 -21 207 10 c 128,-1,26
 91 41 91 41 91 77 c 0,27,28
 91 89 91 89 101 97.5 c 128,-1,29
 111 106 111 106 127 103 c 0,30,31
 142 100 142 100 192.5 82.5 c 128,-1,32
 243 65 243 65 303 55 c 128,-1,33
 363 45 363 45 445 45 c 0,34,35
 791 45 791 45 791 303 c 0,36,37
 791 348 791 348 781.5 385.5 c 128,-1,38
 772 423 772 423 747 458 c 128,-1,39
 722 493 722 493 682 517 c 128,-1,40
 642 541 642 541 578.5 555.5 c 128,-1,41
 515 570 515 570 431 570 c 2,42,-1
 289 570 l 2,43,44
 272 570 272 570 263 579.5 c 128,-1,45
 254 589 254 589 254 602 c 128,-1,46
 254 615 254 615 263 624.5 c 128,-1,47
 272 634 272 634 289 634 c 2,48,-1
 422 634 l 2,49,50
 488 634 488 634 541 642 c 128,-1,51
 594 650 594 650 630.5 665.5 c 128,-1,52
 667 681 667 681 693 701 c 128,-1,53
 719 721 719 721 733.5 747 c 128,-1,54
 748 773 748 773 755 799.5 c 128,-1,55
 762 826 762 826 762 857 c 0,56,57
 762 885 762 885 756 910 c 128,-1,58
 750 935 750 935 736.5 960.5 c 128,-1,59
 723 986 723 986 699 1006 c 128,-1,60
 675 1026 675 1026 641 1041.5 c 128,-1,61
 607 1057 607 1057 558 1065.5 c 128,-1,62
 509 1074 509 1074 448 1074 c 0,63,64
 347 1074 347 1074 281.5 1060 c 128,-1,65
 216 1046 216 1046 153 1016 c 0,66,67
 139 1009 139 1009 127 1009 c 0,68,69
 113 1009 113 1009 104 1017.5 c 128,-1,70
 95 1026 95 1026 95 1037 c 0,0,1
EndSplineSet
EndChar

StartChar: four
Encoding: 52 52 23
Width: 1058
GlyphClass: 2
Flags: W
LayerCount: 2
Fore
SplineSet
1044 381 m 0,0,1
 1044 347 1044 347 962 347 c 0,2,3
 952 347 952 347 930.5 347.5 c 128,-1,4
 909 348 909 348 898 348 c 2,5,-1
 753 348 l 1,6,-1
 753 70 l 2,7,8
 753 47 753 47 752 35 c 128,-1,9
 751 23 751 23 742.5 11.5 c 128,-1,10
 734 0 734 0 718 0 c 0,11,12
 704 0 704 0 696 5 c 128,-1,13
 688 10 688 10 685 23 c 128,-1,14
 682 36 682 36 681.5 43 c 128,-1,15
 681 50 681 50 681 70 c 2,16,-1
 681 348 l 1,17,-1
 173 348 l 2,18,19
 147 348 147 348 131 353.5 c 128,-1,20
 115 359 115 359 109 371 c 128,-1,21
 103 383 103 383 101.5 391.5 c 128,-1,22
 100 400 100 400 100 418 c 2,23,-1
 100 1047 l 2,24,25
 100 1063 100 1063 100.5 1071.5 c 128,-1,26
 101 1080 101 1080 104.5 1091.5 c 128,-1,27
 108 1103 108 1103 116.5 1108.5 c 128,-1,28
 125 1114 125 1114 139 1114 c 0,29,30
 151 1114 151 1114 159 1108.5 c 128,-1,31
 167 1103 167 1103 169.5 1090.5 c 128,-1,32
 172 1078 172 1078 172.5 1070.5 c 128,-1,33
 173 1063 173 1063 173 1047 c 2,34,-1
 173 418 l 1,35,-1
 681 418 l 1,36,-1
 681 1044 l 2,37,38
 681 1064 681 1064 681.5 1071 c 128,-1,39
 682 1078 682 1078 685 1091 c 128,-1,40
 688 1104 688 1104 696 1109 c 128,-1,41
 704 1114 704 1114 718 1114 c 0,42,43
 734 1114 734 1114 742.5 1102.5 c 128,-1,44
 751 1091 751 1091 752 1079 c 128,-1,45
 753 1067 753 1067 753 1044 c 2,46,-1
 753 418 l 1,47,-1
 972 418 l 2,48,49
 974 418 974 418 978 418 c 0,50,51
 997 418 997 418 1006 417.5 c 128,-1,52
 1015 417 1015 417 1025.5 413.5 c 128,-1,53
 1036 410 1036 410 1040 402.5 c 128,-1,54
 1044 395 1044 395 1044 381 c 0,0,1
EndSplineSet
EndChar

StartChar: five
Encoding: 53 53 24
Width: 869
GlyphClass: 2
Flags: W
LayerCount: 2
Fore
SplineSet
439 29 m 0,0,1
 596 29 596 29 663 106.5 c 128,-1,2
 730 184 730 184 730 328 c 0,3,4
 730 441 730 441 666 489 c 128,-1,5
 602 537 602 537 439 537 c 2,6,-1
 189 537 l 2,7,8
 172 537 172 537 165.5 537 c 128,-1,9
 159 537 159 537 144.5 540 c 128,-1,10
 130 543 130 543 124 548 c 128,-1,11
 118 553 118 553 112 564.5 c 128,-1,12
 106 576 106 576 106 592 c 0,13,14
 106 602 106 602 107 607 c 2,15,-1
 147 1024 l 2,16,17
 151 1063 151 1063 160 1075 c 1,18,19
 177 1094 177 1094 220 1094 c 2,20,-1
 658 1094 l 2,21,22
 677 1094 677 1094 687.5 1083.5 c 128,-1,23
 698 1073 698 1073 698 1059 c 128,-1,24
 698 1045 698 1045 687 1035 c 128,-1,25
 676 1025 676 1025 658 1025 c 2,26,-1
 220 1025 l 1,27,-1
 180 607 l 1,28,-1
 439 607 l 2,29,30
 524 607 524 607 589 592.5 c 128,-1,31
 654 578 654 578 703.5 545.5 c 128,-1,32
 753 513 753 513 778.5 457.5 c 128,-1,33
 804 402 804 402 804 324 c 0,34,35
 804 224 804 224 778.5 152.5 c 128,-1,36
 753 81 753 81 703.5 39.5 c 128,-1,37
 654 -2 654 -2 589 -21 c 128,-1,38
 524 -40 524 -40 439 -40 c 0,39,40
 317 -40 317 -40 201 -9 c 128,-1,41
 85 22 85 22 85 58 c 0,42,43
 85 84 85 84 121 84 c 0,44,45
 137 84 137 84 182 70.5 c 128,-1,46
 227 57 227 57 239 54 c 0,47,48
 347 29 347 29 439 29 c 0,0,1
EndSplineSet
EndChar

StartChar: six
Encoding: 54 54 25
Width: 1023
GlyphClass: 2
Flags: W
LayerCount: 2
Fore
SplineSet
170 526 m 1,0,1
 170 342 170 342 204 239.5 c 128,-1,2
 238 137 238 137 311.5 93 c 128,-1,3
 385 49 385 49 516 49 c 0,4,5
 617 49 617 49 689.5 70.5 c 128,-1,6
 762 92 762 92 800 129.5 c 128,-1,7
 838 167 838 167 855 210.5 c 128,-1,8
 872 254 872 254 872 306 c 0,9,10
 872 362 872 362 862.5 403 c 128,-1,11
 853 444 853 444 830.5 471.5 c 128,-1,12
 808 499 808 499 780.5 516 c 128,-1,13
 753 533 753 533 707 542 c 128,-1,14
 661 551 661 551 614.5 554 c 128,-1,15
 568 557 568 557 499 557 c 0,16,17
 298 557 298 557 170 526 c 1,0,1
93 557 m 0,18,19
 93 688 93 688 105.5 778.5 c 128,-1,20
 118 869 118 869 147.5 940 c 128,-1,21
 177 1011 177 1011 229 1052 c 128,-1,22
 281 1093 281 1093 358 1113.5 c 128,-1,23
 435 1134 435 1134 545 1134 c 0,24,25
 667 1134 667 1134 783 1103 c 128,-1,26
 899 1072 899 1072 899 1036 c 0,27,28
 899 1010 899 1010 863 1010 c 0,29,30
 847 1010 847 1010 802 1023.5 c 128,-1,31
 757 1037 757 1037 745 1040 c 0,32,33
 637 1065 637 1065 545 1065 c 0,34,35
 496 1065 496 1065 460 1062 c 128,-1,36
 424 1059 424 1059 386 1051 c 128,-1,37
 348 1043 348 1043 321 1027.5 c 128,-1,38
 294 1012 294 1012 268 987.5 c 128,-1,39
 242 963 242 963 225.5 926.5 c 128,-1,40
 209 890 209 890 195.5 841 c 128,-1,41
 182 792 182 792 176 726.5 c 128,-1,42
 170 661 170 661 170 579 c 1,43,44
 268 627 268 627 499 627 c 0,45,46
 616 627 616 627 695 612.5 c 128,-1,47
 774 598 774 598 833.5 561.5 c 128,-1,48
 893 525 893 525 920.5 460.5 c 128,-1,49
 948 396 948 396 948 298 c 0,50,51
 948 234 948 234 924.5 179 c 128,-1,52
 901 124 901 124 852 78.5 c 128,-1,53
 803 33 803 33 716 6.5 c 128,-1,54
 629 -20 629 -20 512 -20 c 0,55,56
 355 -20 355 -20 265 35.5 c 128,-1,57
 175 91 175 91 134 215 c 128,-1,58
 93 339 93 339 93 557 c 0,18,19
EndSplineSet
EndChar

StartChar: seven
Encoding: 55 55 26
Width: 707
GlyphClass: 2
Flags: W
LayerCount: 2
Fore
SplineSet
675 1024 m 2,0,-1
 251 57 l 1,1,2
 235 23 235 23 209 23 c 0,3,4
 194 23 194 23 185 33 c 128,-1,5
 176 43 176 43 176 60 c 0,6,7
 176 73 176 73 180 82 c 2,8,-1
 599 1044 l 1,9,-1
 74 1044 l 2,10,11
 56 1044 56 1044 46 1054 c 128,-1,12
 36 1064 36 1064 36 1079 c 0,13,14
 36 1093 36 1093 46 1103.5 c 128,-1,15
 56 1114 56 1114 74 1114 c 2,16,-1
 629 1114 l 2,17,18
 683 1114 683 1114 683 1063 c 0,19,20
 683 1043 683 1043 675 1024 c 2,0,-1
EndSplineSet
EndChar

StartChar: eight
Encoding: 56 56 27
Width: 1030
GlyphClass: 2
Flags: W
LayerCount: 2
Fore
SplineSet
515 637 m 128,-1,1
 607 637 607 637 674 655 c 128,-1,2
 741 673 741 673 777 704.5 c 128,-1,3
 813 736 813 736 829 772 c 128,-1,4
 845 808 845 808 845 851 c 0,5,6
 845 884 845 884 836.5 913.5 c 128,-1,7
 828 943 828 943 805.5 972 c 128,-1,8
 783 1001 783 1001 747 1022 c 128,-1,9
 711 1043 711 1043 651.5 1056 c 128,-1,10
 592 1069 592 1069 515 1069 c 128,-1,11
 438 1069 438 1069 378.5 1056 c 128,-1,12
 319 1043 319 1043 283 1022 c 128,-1,13
 247 1001 247 1001 224.5 972 c 128,-1,14
 202 943 202 943 193.5 913.5 c 128,-1,15
 185 884 185 884 185 851 c 0,16,17
 185 808 185 808 201 772 c 128,-1,18
 217 736 217 736 253 704.5 c 128,-1,19
 289 673 289 673 356 655 c 128,-1,0
 423 637 423 637 515 637 c 128,-1,1
515 -21 m 128,-1,21
 291 -21 291 -21 189 68 c 128,-1,22
 87 157 87 157 87 307 c 0,23,24
 87 431 87 431 152 505 c 128,-1,25
 217 579 217 579 366 604 c 1,26,27
 308 612 308 612 263 631.5 c 128,-1,28
 218 651 218 651 190.5 676 c 128,-1,29
 163 701 163 701 145 732 c 128,-1,30
 127 763 127 763 120.5 792 c 128,-1,31
 114 821 114 821 114 850 c 0,32,33
 114 894 114 894 124.5 933 c 128,-1,34
 135 972 135 972 163.5 1010 c 128,-1,35
 192 1048 192 1048 236 1075 c 128,-1,36
 280 1102 280 1102 351.5 1118.5 c 128,-1,37
 423 1135 423 1135 515 1135 c 128,-1,38
 607 1135 607 1135 678.5 1118.5 c 128,-1,39
 750 1102 750 1102 794 1075 c 128,-1,40
 838 1048 838 1048 866.5 1010 c 128,-1,41
 895 972 895 972 905.5 933 c 128,-1,42
 916 894 916 894 916 850 c 0,43,44
 916 821 916 821 909.5 792 c 128,-1,45
 903 763 903 763 885 732 c 128,-1,46
 867 701 867 701 839.5 676 c 128,-1,47
 812 651 812 651 767 631.5 c 128,-1,48
 722 612 722 612 664 604 c 1,49,50
 813 579 813 579 878 505 c 128,-1,51
 943 431 943 431 943 307 c 0,52,53
 943 157 943 157 841 68 c 128,-1,20
 739 -21 739 -21 515 -21 c 128,-1,21
515 567 m 128,-1,55
 153 567 153 567 153 313 c 0,56,57
 153 45 153 45 515 45 c 128,-1,58
 877 45 877 45 877 313 c 0,59,54
 877 567 877 567 515 567 c 128,-1,55
EndSplineSet
EndChar

StartChar: nine
Encoding: 57 57 28
Width: 1023
GlyphClass: 2
Flags: W
LayerCount: 2
Fore
SplineSet
852 588 m 1,0,1
 852 772 852 772 818 874.5 c 128,-1,2
 784 977 784 977 710.5 1021 c 128,-1,3
 637 1065 637 1065 506 1065 c 0,4,5
 405 1065 405 1065 332.5 1043.5 c 128,-1,6
 260 1022 260 1022 222 984.5 c 128,-1,7
 184 947 184 947 167 903.5 c 128,-1,8
 150 860 150 860 150 808 c 0,9,10
 150 752 150 752 159.5 711 c 128,-1,11
 169 670 169 670 191.5 642.5 c 128,-1,12
 214 615 214 615 241.5 598 c 128,-1,13
 269 581 269 581 315 572 c 128,-1,14
 361 563 361 563 407.5 560 c 128,-1,15
 454 557 454 557 523 557 c 0,16,17
 724 557 724 557 852 588 c 1,0,1
929 557 m 0,18,19
 929 426 929 426 916.5 335.5 c 128,-1,20
 904 245 904 245 874.5 174 c 128,-1,21
 845 103 845 103 793 62 c 128,-1,22
 741 21 741 21 664 0.5 c 128,-1,23
 587 -20 587 -20 477 -20 c 0,24,25
 355 -20 355 -20 239 11 c 128,-1,26
 123 42 123 42 123 78 c 0,27,28
 123 104 123 104 159 104 c 0,29,30
 175 104 175 104 220 90.5 c 128,-1,31
 265 77 265 77 277 74 c 0,32,33
 385 49 385 49 477 49 c 0,34,35
 526 49 526 49 562 52 c 128,-1,36
 598 55 598 55 636 63 c 128,-1,37
 674 71 674 71 701 86.5 c 128,-1,38
 728 102 728 102 754 126.5 c 128,-1,39
 780 151 780 151 796.5 187.5 c 128,-1,40
 813 224 813 224 826.5 273 c 128,-1,41
 840 322 840 322 846 387.5 c 128,-1,42
 852 453 852 453 852 535 c 1,43,44
 754 487 754 487 523 487 c 0,45,46
 406 487 406 487 327 501.5 c 128,-1,47
 248 516 248 516 188.5 552.5 c 128,-1,48
 129 589 129 589 101.5 653.5 c 128,-1,49
 74 718 74 718 74 816 c 0,50,51
 74 880 74 880 97.5 935 c 128,-1,52
 121 990 121 990 170 1035.5 c 128,-1,53
 219 1081 219 1081 306 1107.5 c 128,-1,54
 393 1134 393 1134 510 1134 c 0,55,56
 667 1134 667 1134 757 1078.5 c 128,-1,57
 847 1023 847 1023 888 899 c 128,-1,58
 929 775 929 775 929 557 c 0,18,19
EndSplineSet
EndChar

StartChar: colon
Encoding: 58 58 29
Width: 393
GlyphClass: 2
Flags: W
LayerCount: 2
Fore
SplineSet
133 204 m 0,0,1
 133 233 133 233 150.5 251 c 128,-1,2
 168 269 168 269 197 269 c 0,3,4
 224 269 224 269 243.5 250.5 c 128,-1,5
 263 232 263 232 263 204 c 0,6,7
 263 177 263 177 244 159.5 c 128,-1,8
 225 142 225 142 197 142 c 0,9,10
 168 142 168 142 150.5 159 c 128,-1,11
 133 176 133 176 133 204 c 0,0,1
133 561 m 0,12,13
 133 590 133 590 150.5 608 c 128,-1,14
 168 626 168 626 197 626 c 0,15,16
 224 626 224 626 243.5 607.5 c 128,-1,17
 263 589 263 589 263 561 c 0,18,19
 263 534 263 534 244 516.5 c 128,-1,20
 225 499 225 499 197 499 c 0,21,22
 168 499 168 499 150.5 516 c 128,-1,23
 133 533 133 533 133 561 c 0,12,13
EndSplineSet
EndChar

StartChar: semicolon
Encoding: 59 59 30
Width: 379
GlyphClass: 2
Flags: W
LayerCount: 2
Fore
SplineSet
125 35 m 1,0,-1
 125 71 l 1,1,2
 188 71 188 71 188 138 c 1,3,4
 139 154 139 154 139 205 c 0,5,6
 139 233 139 233 159 248.5 c 128,-1,7
 179 264 179 264 209 264 c 0,8,9
 235 264 235 264 256 244.5 c 128,-1,10
 277 225 277 225 277 190 c 0,11,12
 277 132 277 132 236.5 83.5 c 128,-1,13
 196 35 196 35 125 35 c 1,0,-1
123 561 m 0,14,15
 123 590 123 590 140.5 608 c 128,-1,16
 158 626 158 626 187 626 c 0,17,18
 214 626 214 626 233.5 607.5 c 128,-1,19
 253 589 253 589 253 561 c 0,20,21
 253 534 253 534 234 516.5 c 128,-1,22
 215 499 215 499 187 499 c 0,23,24
 158 499 158 499 140.5 516 c 128,-1,25
 123 533 123 533 123 561 c 0,14,15
EndSplineSet
EndChar

StartChar: less
Encoding: 60 60 31
Width: 775
GlyphClass: 2
Flags: W
LayerCount: 2
Fore
SplineSet
65 335 m 0,0,1
 65 355 65 355 76 365 c 128,-1,2
 87 375 87 375 116 388 c 2,3,-1
 620 622 l 2,4,5
 633 627 633 627 640 627 c 0,6,7
 655 627 655 627 664.5 616.5 c 128,-1,8
 674 606 674 606 674 591 c 0,9,10
 674 568 674 568 653 559 c 2,11,-1
 166 335 l 1,12,-1
 653 112 l 2,13,14
 674 102 674 102 674 79 c 0,15,16
 674 66 674 66 664 55 c 128,-1,17
 654 44 654 44 640 44 c 0,18,19
 632 44 632 44 620 49 c 2,20,-1
 116 283 l 2,21,22
 87 296 87 296 76 306 c 128,-1,23
 65 316 65 316 65 335 c 0,0,1
EndSplineSet
EndChar

StartChar: equal
Encoding: 61 61 32
Width: 906
GlyphClass: 2
Flags: W
LayerCount: 2
Fore
SplineSet
781 638 m 128,-1,1
 781 609 781 609 756 609 c 2,2,-1
 151 609 l 2,3,4
 127 609 127 609 127 638 c 128,-1,5
 127 667 127 667 151 667 c 2,6,-1
 756 667 l 2,7,0
 781 667 781 667 781 638 c 128,-1,1
779 499 m 128,-1,9
 779 470 779 470 754 470 c 2,10,-1
 149 470 l 2,11,12
 125 470 125 470 125 499 c 128,-1,13
 125 528 125 528 149 528 c 2,14,-1
 754 528 l 2,15,8
 779 528 779 528 779 499 c 128,-1,9
EndSplineSet
EndChar

StartChar: greater
Encoding: 62 62 33
Width: 773
GlyphClass: 2
Flags: W
LayerCount: 2
Fore
SplineSet
708 335 m 0,0,1
 708 316 708 316 697 306 c 128,-1,2
 686 296 686 296 657 283 c 2,3,-1
 153 49 l 2,4,5
 141 44 141 44 133 44 c 0,6,7
 119 44 119 44 109 55 c 128,-1,8
 99 66 99 66 99 79 c 0,9,10
 99 102 99 102 120 112 c 2,11,-1
 607 335 l 1,12,-1
 120 559 l 2,13,14
 99 568 99 568 99 591 c 0,15,16
 99 606 99 606 108.5 616.5 c 128,-1,17
 118 627 118 627 133 627 c 0,18,19
 140 627 140 627 153 622 c 2,20,-1
 657 388 l 2,21,22
 686 375 686 375 697 365 c 128,-1,23
 708 355 708 355 708 335 c 0,0,1
EndSplineSet
EndChar

StartChar: question
Encoding: 63 63 34
Width: 888
GlyphClass: 2
Flags: W
LayerCount: 2
Fore
SplineSet
203 46 m 0,0,1
 203 72 203 72 219 88.5 c 128,-1,2
 235 105 235 105 261 105 c 0,3,4
 286 105 286 105 303.5 88.5 c 128,-1,5
 321 72 321 72 321 46 c 0,6,7
 321 22 321 22 303.5 6 c 128,-1,8
 286 -10 286 -10 261 -10 c 0,9,10
 235 -10 235 -10 219 5.5 c 128,-1,11
 203 21 203 21 203 46 c 0,0,1
295 480 m 1,12,-1
 295 264 l 2,13,14
 295 239 295 239 294 227.5 c 128,-1,15
 293 216 293 216 285.5 205 c 128,-1,16
 278 194 278 194 262 194 c 0,17,18
 248 194 248 194 239.5 199 c 128,-1,19
 231 204 231 204 227.5 215.5 c 128,-1,20
 224 227 224 227 223.5 235.5 c 128,-1,21
 223 244 223 244 223 262 c 2,22,-1
 223 512 l 2,23,24
 223 525 223 525 232 534.5 c 128,-1,25
 241 544 241 544 258 544 c 0,26,27
 384 544 384 544 476.5 558.5 c 128,-1,28
 569 573 569 573 623 596 c 128,-1,29
 677 619 677 619 709 654 c 128,-1,30
 741 689 741 689 751.5 723 c 128,-1,31
 762 757 762 757 762 801 c 0,32,33
 762 863 762 863 746 909 c 128,-1,34
 730 955 730 955 692 991.5 c 128,-1,35
 654 1028 654 1028 584.5 1047 c 128,-1,36
 515 1066 515 1066 414 1066 c 0,37,38
 285 1066 285 1066 122 1016 c 0,39,40
 107 1011 107 1011 96 1011 c 0,41,42
 60 1011 60 1011 60 1037 c 0,43,44
 60 1074 60 1074 178 1104.5 c 128,-1,45
 296 1135 296 1135 414 1135 c 0,46,47
 828 1135 828 1135 828 807 c 0,48,49
 828 770 828 770 824.5 741 c 128,-1,50
 821 712 821 712 807.5 677 c 128,-1,51
 794 642 794 642 772 616 c 128,-1,52
 750 590 750 590 709.5 564 c 128,-1,53
 669 538 669 538 614 521 c 128,-1,54
 559 504 559 504 478 493 c 128,-1,55
 397 482 397 482 295 480 c 1,12,-1
EndSplineSet
EndChar

StartChar: at
Encoding: 64 64 35
Width: 1334
GlyphClass: 2
Flags: W
LayerCount: 2
Fore
SplineSet
923 321 m 1,0,-1
 945 686 l 1,1,2
 829 735 829 735 730 735 c 0,3,4
 669 735 669 735 612 716.5 c 128,-1,5
 555 698 555 698 508 662.5 c 128,-1,6
 461 627 461 627 432.5 567.5 c 128,-1,7
 404 508 404 508 404 433 c 0,8,9
 404 314 404 314 461 256 c 128,-1,10
 518 198 518 198 639 198 c 0,11,12
 727 198 727 198 796.5 231 c 128,-1,13
 866 264 866 264 904 302 c 2,14,-1
 923 321 l 1,0,-1
1055 -48 m 0,15,16
 898 -119 898 -119 721 -119 c 0,17,18
 73 -119 73 -119 73 457 c 0,19,20
 73 715 73 715 246.5 873 c 128,-1,21
 420 1031 420 1031 723 1031 c 0,22,23
 990 1031 990 1031 1129 913.5 c 128,-1,24
 1268 796 1268 796 1268 573 c 0,25,26
 1268 361 1268 361 1209 238.5 c 128,-1,27
 1150 116 1150 116 1038 116 c 0,28,29
 982 116 982 116 951.5 150.5 c 128,-1,30
 921 185 921 185 921 253 c 1,31,32
 822 132 822 132 634 132 c 0,33,34
 552 132 552 132 490.5 155.5 c 128,-1,35
 429 179 429 179 394 221 c 128,-1,36
 359 263 359 263 342 313.5 c 128,-1,37
 325 364 325 364 325 424 c 0,38,39
 325 523 325 523 361 598.5 c 128,-1,40
 397 674 397 674 456.5 716.5 c 128,-1,41
 516 759 516 759 583.5 780 c 128,-1,42
 651 801 651 801 724 801 c 0,43,44
 879 801 879 801 950 730 c 1,45,46
 956 757 956 757 963 769 c 128,-1,47
 970 781 970 781 985 781 c 0,48,49
 1023 781 1023 781 1023 718 c 0,50,51
 1023 661 1023 661 998 331 c 1,52,53
 994 263 994 263 994 262 c 0,54,55
 994 176 994 176 1043 176 c 0,56,57
 1112 176 1112 176 1152 281.5 c 128,-1,58
 1192 387 1192 387 1192 575 c 0,59,60
 1192 770 1192 770 1073 871 c 128,-1,61
 954 972 954 972 723 972 c 0,62,63
 456 972 456 972 303 831 c 128,-1,64
 150 690 150 690 150 457 c 0,65,66
 150 333 150 333 181 239.5 c 128,-1,67
 212 146 212 146 278.5 78 c 128,-1,68
 345 10 345 10 456.5 -25 c 128,-1,69
 568 -60 568 -60 723 -60 c 0,70,71
 893 -60 893 -60 1037 5 c 0,72,73
 1046 9 1046 9 1054 9 c 0,74,75
 1078 9 1078 9 1078 -15 c 0,76,77
 1078 -38 1078 -38 1055 -48 c 0,15,16
EndSplineSet
EndChar

StartChar: A
Encoding: 65 65 36
Width: 1349
GlyphClass: 2
Flags: W
LayerCount: 2
Fore
SplineSet
347 401 m 1,0,-1
 1001 401 l 1,1,-1
 674 998 l 1,2,-1
 347 401 l 1,0,-1
71 68 m 2,3,-1
 622 1063 l 2,4,5
 639 1095 639 1095 648 1104.5 c 128,-1,6
 657 1114 657 1114 674 1114 c 0,7,8
 688 1114 688 1114 698.5 1103.5 c 128,-1,9
 709 1093 709 1093 726 1063 c 2,10,-1
 1278 67 l 2,11,12
 1289 48 1289 48 1289 28 c 0,13,14
 1289 10 1289 10 1279.5 0 c 128,-1,15
 1270 -10 1270 -10 1255 -10 c 0,16,17
 1224 -10 1224 -10 1200 34 c 2,18,-1
 1030 342 l 1,19,-1
 318 342 l 1,20,-1
 146 30 l 2,21,22
 125 -10 125 -10 92 -10 c 128,-1,23
 59 -10 59 -10 59 34 c 0,24,25
 59 46 59 46 71 68 c 2,3,-1
EndSplineSet
EndChar

StartChar: B
Encoding: 66 66 37
Width: 1408
GlyphClass: 2
Flags: W
LayerCount: 2
Fore
SplineSet
1193 326 m 0,0,1
 1193 394 1193 394 1160.5 441 c 128,-1,2
 1128 488 1128 488 1064 514.5 c 128,-1,3
 1000 541 1000 541 916 552.5 c 128,-1,4
 832 564 832 564 718 564 c 2,5,-1
 245 564 l 1,6,-1
 245 66 l 1,7,-1
 808 66 l 2,8,9
 913 66 913 66 986.5 81 c 128,-1,10
 1060 96 1060 96 1099.5 118 c 128,-1,11
 1139 140 1139 140 1161 177.5 c 128,-1,12
 1183 215 1183 215 1188 246.5 c 128,-1,13
 1193 278 1193 278 1193 326 c 0,0,1
1134 836 m 0,14,15
 1134 880 1134 880 1123.5 911 c 128,-1,16
 1113 942 1113 942 1085 969 c 128,-1,17
 1057 996 1057 996 1008 1012.5 c 128,-1,18
 959 1029 959 1029 881 1038.5 c 128,-1,19
 803 1048 803 1048 694 1048 c 2,20,-1
 245 1048 l 1,21,-1
 245 619 l 1,22,-1
 718 619 l 2,23,24
 833 619 833 619 906 627.5 c 128,-1,25
 979 636 979 636 1033 660 c 128,-1,26
 1087 684 1087 684 1110.5 726.5 c 128,-1,27
 1134 769 1134 769 1134 836 c 0,14,15
1278 326 m 1,28,29
 1278 247 1278 247 1252 188.5 c 128,-1,30
 1226 130 1226 130 1182.5 94 c 128,-1,31
 1139 58 1139 58 1072 36.5 c 128,-1,32
 1005 15 1005 15 933.5 7.5 c 128,-1,33
 862 0 862 0 770 0 c 2,34,-1
 194 0 l 2,35,36
 160 0 160 0 160 35 c 2,37,-1
 160 1077 l 2,38,39
 160 1114 160 1114 199 1114 c 2,40,-1
 657 1114 l 2,41,42
 716 1114 716 1114 753 1113.5 c 128,-1,43
 790 1113 790 1113 844 1110.5 c 128,-1,44
 898 1108 898 1108 932 1102.5 c 128,-1,45
 966 1097 966 1097 1009.5 1087.5 c 128,-1,46
 1053 1078 1053 1078 1080.5 1064 c 128,-1,47
 1108 1050 1108 1050 1137 1029 c 128,-1,48
 1166 1008 1166 1008 1182 981 c 128,-1,49
 1198 954 1198 954 1208.5 917 c 128,-1,50
 1219 880 1219 880 1219 836 c 0,51,52
 1219 786 1219 786 1205 745.5 c 128,-1,53
 1191 705 1191 705 1170.5 680.5 c 128,-1,54
 1150 656 1150 656 1122 638 c 128,-1,55
 1094 620 1094 620 1069 611.5 c 128,-1,56
 1044 603 1044 603 1018 599 c 128,-1,57
 992 595 992 595 979 594.5 c 128,-1,58
 966 594 966 594 959 594 c 1,59,60
 1026 587 1026 587 1078 572 c 128,-1,61
 1130 557 1130 557 1177 528 c 128,-1,62
 1224 499 1224 499 1250.5 448 c 128,-1,63
 1277 397 1277 397 1278 326 c 1,28,29
EndSplineSet
EndChar

StartChar: C
Encoding: 67 67 38
Width: 1489
GlyphClass: 2
Flags: W
LayerCount: 2
Fore
SplineSet
123 557 m 128,-1,1
 123 862 123 862 308 998.5 c 128,-1,2
 493 1135 493 1135 873 1135 c 0,3,4
 1133 1135 1133 1135 1373 1036 c 0,5,6
 1403 1023 1403 1023 1403 998 c 0,7,8
 1403 986 1403 986 1394 977 c 128,-1,9
 1385 968 1385 968 1371 968 c 0,10,11
 1364 968 1364 968 1352 973 c 0,12,13
 1122 1069 1122 1069 873 1069 c 0,14,15
 518 1069 518 1069 363 948.5 c 128,-1,16
 208 828 208 828 208 557 c 128,-1,17
 208 286 208 286 363 165.5 c 128,-1,18
 518 45 518 45 873 45 c 0,19,20
 1122 45 1122 45 1352 141 c 0,21,22
 1364 145 1364 145 1370 145 c 0,23,24
 1385 145 1385 145 1394.5 136 c 128,-1,25
 1404 127 1404 127 1404 115 c 0,26,27
 1404 91 1404 91 1373 78 c 0,28,29
 1133 -21 1133 -21 873 -21 c 0,30,31
 493 -21 493 -21 308 115.5 c 128,-1,0
 123 252 123 252 123 557 c 128,-1,1
EndSplineSet
EndChar

StartChar: D
Encoding: 68 68 39
Width: 1670
GlyphClass: 2
Flags: W
LayerCount: 2
Fore
SplineSet
1462 559 m 0,0,1
 1462 736 1462 736 1408.5 840.5 c 128,-1,2
 1355 945 1355 945 1229.5 996.5 c 128,-1,3
 1104 1048 1104 1048 887 1048 c 2,4,-1
 245 1048 l 1,5,-1
 245 66 l 1,6,-1
 887 66 l 2,7,8
 1104 66 1104 66 1229.5 117.5 c 128,-1,9
 1355 169 1355 169 1408.5 274.5 c 128,-1,10
 1462 380 1462 380 1462 559 c 0,0,1
1547 559 m 0,11,12
 1547 401 1547 401 1506 292.5 c 128,-1,13
 1465 184 1465 184 1379 119.5 c 128,-1,14
 1293 55 1293 55 1174.5 27.5 c 128,-1,15
 1056 0 1056 0 887 0 c 2,16,-1
 199 0 l 2,17,18
 170 0 170 0 165 4.5 c 128,-1,19
 160 9 160 9 160 35 c 2,20,-1
 160 1077 l 2,21,22
 160 1106 160 1106 165 1110 c 128,-1,23
 170 1114 170 1114 201 1114 c 2,24,-1
 887 1114 l 2,25,26
 1055 1114 1055 1114 1174.5 1085.5 c 128,-1,27
 1294 1057 1294 1057 1379.5 992.5 c 128,-1,28
 1465 928 1465 928 1506 821 c 128,-1,29
 1547 714 1547 714 1547 559 c 0,11,12
EndSplineSet
EndChar

StartChar: E
Encoding: 69 69 40
Width: 1302
GlyphClass: 2
Flags: W
LayerCount: 2
Fore
SplineSet
1187 35 m 0,0,1
 1187 27 1187 27 1186 21 c 128,-1,2
 1185 15 1185 15 1180.5 11 c 128,-1,3
 1176 7 1176 7 1173.5 5 c 128,-1,4
 1171 3 1171 3 1163 2 c 128,-1,5
 1155 1 1155 1 1151.5 0.5 c 128,-1,6
 1148 0 1148 0 1136.5 0 c 128,-1,7
 1125 0 1125 0 1121 0 c 2,8,-1
 200 0 l 1,9,-1
 187 0 l 2,10,11
 168 0 168 0 164.5 5.5 c 128,-1,12
 161 11 161 11 161 35 c 2,13,-1
 161 1067 l 2,14,15
 161 1086 161 1086 161 1091.5 c 128,-1,16
 161 1097 161 1097 164.5 1104.5 c 128,-1,17
 168 1112 168 1112 175.5 1113 c 128,-1,18
 183 1114 183 1114 198 1114 c 2,19,-1
 1111 1114 l 2,20,21
 1114 1114 1114 1114 1122.5 1114 c 128,-1,22
 1131 1114 1131 1114 1134 1114 c 128,-1,23
 1137 1114 1137 1114 1144 1114 c 128,-1,24
 1151 1114 1151 1114 1154 1113 c 128,-1,25
 1157 1112 1157 1112 1162.5 1111 c 128,-1,26
 1168 1110 1168 1110 1170.5 1108 c 128,-1,27
 1173 1106 1173 1106 1176.5 1103.5 c 128,-1,28
 1180 1101 1180 1101 1181.5 1097.5 c 128,-1,29
 1183 1094 1183 1094 1184 1089.5 c 128,-1,30
 1185 1085 1185 1085 1185 1079 c 0,31,32
 1185 1064 1185 1064 1174.5 1057 c 128,-1,33
 1164 1050 1164 1050 1152.5 1049 c 128,-1,34
 1141 1048 1141 1048 1117 1048 c 0,35,36
 1113 1048 1113 1048 1111 1048 c 2,37,-1
 246 1048 l 1,38,-1
 246 610 l 1,39,-1
 1106 610 l 2,40,41
 1158 610 1158 610 1158 578 c 0,42,43
 1158 542 1158 542 1113 542 c 2,44,-1
 246 542 l 1,45,-1
 246 66 l 1,46,-1
 1113 66 l 2,47,48
 1115 66 1115 66 1119 66 c 0,49,50
 1143 66 1143 66 1154.5 65 c 128,-1,51
 1166 64 1166 64 1176.5 57 c 128,-1,52
 1187 50 1187 50 1187 35 c 0,0,1
EndSplineSet
EndChar

StartChar: F
Encoding: 70 70 41
Width: 1239
GlyphClass: 2
Flags: W
LayerCount: 2
Fore
SplineSet
246 528 m 1,0,-1
 246 70 l 2,1,2
 246 0 246 0 205 0 c 0,3,4
 178 0 178 0 169.5 18 c 128,-1,5
 161 36 161 36 161 68 c 2,6,-1
 161 1077 l 2,7,8
 161 1106 161 1106 165 1110 c 128,-1,9
 169 1114 169 1114 198 1114 c 2,10,-1
 1176 1114 l 2,11,12
 1199 1114 1199 1114 1209.5 1113 c 128,-1,13
 1220 1112 1220 1112 1229.5 1103.5 c 128,-1,14
 1239 1095 1239 1095 1239 1079 c 0,15,16
 1239 1064 1239 1064 1230 1057 c 128,-1,17
 1221 1050 1221 1050 1210.5 1049 c 128,-1,18
 1200 1048 1200 1048 1176 1048 c 2,19,-1
 246 1048 l 1,20,-1
 246 594 l 1,21,-1
 1033 594 l 2,22,23
 1058 594 1058 594 1069 593 c 128,-1,24
 1080 592 1080 592 1089.5 585 c 128,-1,25
 1099 578 1099 578 1099 563 c 0,26,27
 1099 547 1099 547 1088.5 538.5 c 128,-1,28
 1078 530 1078 530 1067 529 c 128,-1,29
 1056 528 1056 528 1033 528 c 2,30,-1
 246 528 l 1,0,-1
EndSplineSet
EndChar

StartChar: G
Encoding: 71 71 42
Width: 1623
GlyphClass: 2
Flags: W
LayerCount: 2
Fore
SplineSet
873 45 m 0,0,1
 1137 45 1137 45 1437 118 c 1,2,-1
 1437 536 l 1,3,-1
 927 536 l 2,4,5
 905 536 905 536 893 537 c 128,-1,6
 881 538 881 538 868.5 546.5 c 128,-1,7
 856 555 856 555 856 571 c 128,-1,8
 856 587 856 587 868 595.5 c 128,-1,9
 880 604 880 604 892 605 c 128,-1,10
 904 606 904 606 927 606 c 2,11,-1
 1437 606 l 2,12,13
 1478 606 1478 606 1493.5 590.5 c 128,-1,14
 1509 575 1509 575 1509 536 c 2,15,-1
 1509 118 l 2,16,17
 1509 90 1509 90 1488 72.5 c 128,-1,18
 1467 55 1467 55 1437 49 c 0,19,20
 1083 -21 1083 -21 873 -21 c 0,21,22
 493 -21 493 -21 308 115.5 c 128,-1,23
 123 252 123 252 123 557 c 128,-1,24
 123 862 123 862 308 998.5 c 128,-1,25
 493 1135 493 1135 873 1135 c 0,26,27
 1133 1135 1133 1135 1373 1036 c 0,28,29
 1403 1023 1403 1023 1403 998 c 0,30,31
 1403 986 1403 986 1394 977 c 128,-1,32
 1385 968 1385 968 1371 968 c 0,33,34
 1364 968 1364 968 1352 973 c 0,35,36
 1122 1069 1122 1069 873 1069 c 0,37,38
 518 1069 518 1069 363 948.5 c 128,-1,39
 208 828 208 828 208 557 c 128,-1,40
 208 286 208 286 363 165.5 c 128,-1,41
 518 45 518 45 873 45 c 0,0,1
EndSplineSet
EndChar

StartChar: H
Encoding: 72 72 43
Width: 1373
GlyphClass: 2
Flags: W
LayerCount: 2
Fore
SplineSet
159 70 m 2,0,-1
 159 1044 l 2,1,2
 159 1114 159 1114 207 1114 c 0,3,4
 244 1114 244 1114 244 1044 c 2,5,-1
 244 606 l 1,6,-1
 1129 606 l 1,7,-1
 1129 1044 l 2,8,9
 1129 1066 1129 1066 1131 1079 c 128,-1,10
 1133 1092 1133 1092 1143 1103 c 128,-1,11
 1153 1114 1153 1114 1171 1114 c 0,12,13
 1198 1114 1198 1114 1206 1095.5 c 128,-1,14
 1214 1077 1214 1077 1214 1044 c 2,15,-1
 1214 70 l 2,16,17
 1214 48 1214 48 1212 35 c 128,-1,18
 1210 22 1210 22 1200 11 c 128,-1,19
 1190 0 1190 0 1172 0 c 0,20,21
 1145 0 1145 0 1137 18.5 c 128,-1,22
 1129 37 1129 37 1129 70 c 2,23,-1
 1129 544 l 1,24,-1
 244 544 l 1,25,-1
 244 70 l 2,26,27
 244 41 244 41 234.5 20.5 c 128,-1,28
 225 0 225 0 205 0 c 0,29,30
 177 0 177 0 168 19 c 128,-1,31
 159 38 159 38 159 70 c 2,0,-1
EndSplineSet
EndChar

StartChar: I
Encoding: 73 73 44
Width: 1031
GlyphClass: 2
Flags: W
LayerCount: 2
Fore
SplineSet
473 66 m 1,0,-1
 473 1048 l 1,1,-1
 116 1048 l 2,2,3
 62 1048 62 1048 51 1059 c 0,4,5
 43 1067 43 1067 43 1079 c 0,6,7
 43 1085 43 1085 44 1090.5 c 128,-1,8
 45 1096 45 1096 48.5 1099.5 c 128,-1,9
 52 1103 52 1103 54.5 1105.5 c 128,-1,10
 57 1108 57 1108 63 1109.5 c 128,-1,11
 69 1111 69 1111 72 1112 c 128,-1,12
 75 1113 75 1113 83 1113.5 c 128,-1,13
 91 1114 91 1114 93.5 1114 c 128,-1,14
 96 1114 96 1114 105 1114 c 128,-1,15
 114 1114 114 1114 116 1114 c 2,16,-1
 915 1114 l 2,17,18
 918 1114 918 1114 923 1114 c 0,19,20
 946 1114 946 1114 956.5 1113 c 128,-1,21
 967 1112 967 1112 977 1104.5 c 128,-1,22
 987 1097 987 1097 987 1081 c 128,-1,23
 987 1065 987 1065 977 1057.5 c 128,-1,24
 967 1050 967 1050 956.5 1049 c 128,-1,25
 946 1048 946 1048 923 1048 c 0,26,27
 918 1048 918 1048 915 1048 c 2,28,-1
 558 1048 l 1,29,-1
 558 66 l 1,30,-1
 915 66 l 2,31,32
 918 66 918 66 923 66 c 0,33,34
 946 66 946 66 956.5 65 c 128,-1,35
 967 64 967 64 977 56.5 c 128,-1,36
 987 49 987 49 987 33 c 128,-1,37
 987 17 987 17 977 9.5 c 128,-1,38
 967 2 967 2 956.5 1 c 128,-1,39
 946 0 946 0 923 0 c 0,40,41
 918 0 918 0 915 0 c 2,42,-1
 116 0 l 2,43,44
 114 0 114 0 105 0 c 128,-1,45
 96 0 96 0 93.5 0 c 128,-1,46
 91 0 91 0 83 0.5 c 128,-1,47
 75 1 75 1 72 2 c 128,-1,48
 69 3 69 3 63 4.5 c 128,-1,49
 57 6 57 6 54.5 8.5 c 128,-1,50
 52 11 52 11 48.5 14.5 c 128,-1,51
 45 18 45 18 44 23.5 c 128,-1,52
 43 29 43 29 43 35 c 0,53,54
 43 50 43 50 54.5 57 c 128,-1,55
 66 64 66 64 77 65 c 128,-1,56
 88 66 88 66 110 66 c 0,57,58
 114 66 114 66 116 66 c 2,59,-1
 473 66 l 1,0,-1
EndSplineSet
EndChar

StartChar: J
Encoding: 74 74 45
Width: 1057
GlyphClass: 2
Flags: W
LayerCount: 2
Fore
SplineSet
898 1044 m 2,0,-1
 898 594 l 2,1,2
 898 432 898 432 877.5 321.5 c 128,-1,3
 857 211 857 211 807.5 132 c 128,-1,4
 758 53 758 53 674.5 16.5 c 128,-1,5
 591 -20 591 -20 467 -20 c 0,6,7
 376 -20 376 -20 305.5 -9.5 c 128,-1,8
 235 1 235 1 172 26 c 128,-1,9
 109 51 109 51 67.5 98 c 128,-1,10
 26 145 26 145 7 214 c 0,11,12
 3 225 3 225 3 238 c 0,13,14
 3 277 3 277 37 277 c 0,15,16
 50 277 50 277 62.5 267 c 128,-1,17
 75 257 75 257 80 240 c 1,18,19
 90 196 90 196 111.5 162.5 c 128,-1,20
 133 129 133 129 165 109 c 128,-1,21
 197 89 197 89 229 76 c 128,-1,22
 261 63 261 63 307 57.5 c 128,-1,23
 353 52 353 52 386 50.5 c 128,-1,24
 419 49 419 49 467 49 c 0,25,26
 551 49 551 49 611.5 72.5 c 128,-1,27
 672 96 672 96 711 138.5 c 128,-1,28
 750 181 750 181 772.5 250 c 128,-1,29
 795 319 795 319 804 400.5 c 128,-1,30
 813 482 813 482 813 594 c 2,31,-1
 813 1044 l 2,32,33
 813 1078 813 1078 822 1096 c 128,-1,34
 831 1114 831 1114 858 1114 c 0,35,36
 898 1114 898 1114 898 1044 c 2,0,-1
EndSplineSet
EndChar

StartChar: K
Encoding: 75 75 46
Width: 1229
GlyphClass: 2
Flags: W
LayerCount: 2
Fore
SplineSet
1098 1044 m 2,0,-1
 516 621 l 1,1,-1
 1099 77 l 2,2,3
 1119 59 1119 59 1119 37 c 0,4,5
 1119 22 1119 22 1109 11 c 128,-1,6
 1099 0 1099 0 1084 0 c 0,7,8
 1068 0 1068 0 1051 15 c 2,9,-1
 453 580 l 1,10,-1
 246 444 l 1,11,-1
 246 70 l 2,12,13
 246 0 246 0 204 0 c 0,14,15
 177 0 177 0 168.5 18 c 128,-1,16
 160 36 160 36 160 68 c 2,17,-1
 160 1048 l 2,18,19
 160 1081 160 1081 169.5 1097.5 c 128,-1,20
 179 1114 179 1114 206 1114 c 0,21,22
 246 1114 246 1114 246 1050 c 2,23,-1
 246 524 l 1,24,-1
 1047 1099 l 2,25,26
 1067 1114 1067 1114 1087 1114 c 0,27,28
 1120 1114 1120 1114 1120 1082 c 0,29,30
 1120 1060 1120 1060 1098 1044 c 2,0,-1
EndSplineSet
EndChar

StartChar: L
Encoding: 76 76 47
Width: 1145
GlyphClass: 2
Flags: W
LayerCount: 2
Fore
SplineSet
1104 0 m 2,0,-1
 201 0 l 2,1,2
 171 0 171 0 165.5 5 c 128,-1,3
 160 10 160 10 160 37 c 2,4,-1
 160 1049 l 2,5,6
 160 1114 160 1114 207 1114 c 0,7,8
 245 1114 245 1114 245 1049 c 2,9,-1
 245 66 l 1,10,-1
 1104 66 l 2,11,12
 1123 66 1123 66 1134 56 c 128,-1,13
 1145 46 1145 46 1145 33 c 0,14,15
 1145 19 1145 19 1134 9.5 c 128,-1,16
 1123 0 1123 0 1104 0 c 2,0,-1
EndSplineSet
EndChar

StartChar: M
Encoding: 77 77 48
Width: 1768
GlyphClass: 2
Flags: W
LayerCount: 2
Fore
SplineSet
264 1071 m 2,0,-1
 884 139 l 1,1,-1
 1504 1071 l 2,2,3
 1532 1114 1532 1114 1565 1114 c 0,4,5
 1584 1114 1584 1114 1596.5 1098.5 c 128,-1,6
 1609 1083 1609 1083 1609 1060 c 2,7,-1
 1609 70 l 2,8,9
 1609 35 1609 35 1601 17.5 c 128,-1,10
 1593 0 1593 0 1566 0 c 0,11,12
 1524 0 1524 0 1524 70 c 2,13,-1
 1524 958 l 1,14,-1
 933 86 l 2,15,16
 909 52 909 52 884 52 c 0,17,18
 857 52 857 52 835 86 c 2,19,-1
 244 958 l 1,20,-1
 244 70 l 2,21,22
 244 0 244 0 202 0 c 0,23,24
 175 0 175 0 167 17.5 c 128,-1,25
 159 35 159 35 159 70 c 2,26,-1
 159 1060 l 2,27,28
 159 1083 159 1083 171.5 1098.5 c 128,-1,29
 184 1114 184 1114 203 1114 c 0,30,31
 235 1114 235 1114 264 1071 c 2,0,-1
EndSplineSet
EndChar

StartChar: N
Encoding: 78 78 49
Width: 1527
GlyphClass: 2
Flags: W
LayerCount: 2
Fore
SplineSet
259 1081 m 2,0,-1
 1282 128 l 1,1,-1
 1282 1038 l 2,2,3
 1282 1062 1282 1062 1284 1076 c 128,-1,4
 1286 1090 1286 1090 1296 1102 c 128,-1,5
 1306 1114 1306 1114 1325 1114 c 0,6,7
 1367 1114 1367 1114 1367 1038 c 2,8,-1
 1367 64 l 2,9,10
 1367 0 1367 0 1333 0 c 0,11,12
 1310 0 1310 0 1276 31 c 2,13,-1
 245 986 l 1,14,-1
 245 70 l 2,15,16
 245 0 245 0 204 0 c 0,17,18
 177 0 177 0 168.5 18 c 128,-1,19
 160 36 160 36 160 70 c 2,20,-1
 160 1049 l 2,21,22
 160 1111 160 1111 201 1111 c 0,23,24
 226 1111 226 1111 259 1081 c 2,0,-1
EndSplineSet
EndChar

StartChar: O
Encoding: 79 79 50
Width: 1715
GlyphClass: 2
Flags: W
LayerCount: 2
Fore
SplineSet
208 557 m 128,-1,1
 208 283 208 283 365 164 c 128,-1,2
 522 45 522 45 857 45 c 128,-1,3
 1192 45 1192 45 1349.5 164 c 128,-1,4
 1507 283 1507 283 1507 557 c 128,-1,5
 1507 831 1507 831 1349.5 950 c 128,-1,6
 1192 1069 1192 1069 857 1069 c 128,-1,7
 522 1069 522 1069 365 950 c 128,-1,0
 208 831 208 831 208 557 c 128,-1,1
1592 557 m 128,-1,9
 1592 263 1592 263 1413.5 121 c 128,-1,10
 1235 -21 1235 -21 857 -21 c 128,-1,11
 479 -21 479 -21 301 121 c 128,-1,12
 123 263 123 263 123 557 c 128,-1,13
 123 851 123 851 301 993 c 128,-1,14
 479 1135 479 1135 857 1135 c 128,-1,15
 1235 1135 1235 1135 1413.5 993 c 128,-1,8
 1592 851 1592 851 1592 557 c 128,-1,9
EndSplineSet
EndChar

StartChar: P
Encoding: 80 80 51
Width: 1187
GlyphClass: 2
Flags: W
LayerCount: 2
Fore
SplineSet
1069 717 m 0,0,1
 1069 800 1069 800 1048 858 c 128,-1,2
 1027 916 1027 916 989 953.5 c 128,-1,3
 951 991 951 991 884 1011.5 c 128,-1,4
 817 1032 817 1032 737.5 1040 c 128,-1,5
 658 1048 658 1048 543 1048 c 2,6,-1
 245 1048 l 1,7,-1
 245 410 l 1,8,-1
 543 410 l 2,9,10
 618 410 618 410 670.5 411.5 c 128,-1,11
 723 413 723 413 778 418.5 c 128,-1,12
 833 424 833 424 869.5 433.5 c 128,-1,13
 906 443 906 443 942 458.5 c 128,-1,14
 978 474 978 474 999 496.5 c 128,-1,15
 1020 519 1020 519 1037.5 550.5 c 128,-1,16
 1055 582 1055 582 1062 623.5 c 128,-1,17
 1069 665 1069 665 1069 717 c 0,0,1
1154 717 m 0,18,19
 1154 641 1154 641 1136 582.5 c 128,-1,20
 1118 524 1118 524 1092 485 c 128,-1,21
 1066 446 1066 446 1016 419.5 c 128,-1,22
 966 393 966 393 923.5 379 c 128,-1,23
 881 365 881 365 807 358 c 128,-1,24
 733 351 733 351 682.5 349.5 c 128,-1,25
 632 348 632 348 543 348 c 2,26,-1
 245 348 l 1,27,-1
 245 76 l 2,28,29
 245 0 245 0 206 0 c 0,30,31
 160 0 160 0 160 76 c 2,32,-1
 160 1077 l 2,33,34
 160 1092 160 1092 161.5 1099.5 c 128,-1,35
 163 1107 163 1107 171.5 1110 c 128,-1,36
 180 1113 180 1113 185.5 1113.5 c 128,-1,37
 191 1114 191 1114 211 1114 c 2,38,-1
 543 1114 l 2,39,40
 642 1114 642 1114 715.5 1108.5 c 128,-1,41
 789 1103 789 1103 862.5 1088.5 c 128,-1,42
 936 1074 936 1074 986 1046 c 128,-1,43
 1036 1018 1036 1018 1076 975 c 128,-1,44
 1116 932 1116 932 1135 867 c 128,-1,45
 1154 802 1154 802 1154 717 c 0,18,19
EndSplineSet
EndChar

StartChar: Q
Encoding: 81 81 52
Width: 1715
GlyphClass: 2
Flags: W
LayerCount: 2
Fore
SplineSet
208 557 m 128,-1,1
 208 283 208 283 365 164 c 128,-1,2
 522 45 522 45 857 45 c 0,3,4
 912 45 912 45 963 48 c 1,5,-1
 951 109 l 2,6,7
 945 139 945 139 945 150 c 0,8,9
 945 187 945 187 981 187 c 0,10,11
 994 187 994 187 1002.5 177.5 c 128,-1,12
 1011 168 1011 168 1014 157 c 128,-1,13
 1017 146 1017 146 1021 126 c 2,14,-1
 1035 54 l 1,15,16
 1276 82 1276 82 1391.5 202 c 128,-1,17
 1507 322 1507 322 1507 557 c 0,18,19
 1507 831 1507 831 1349.5 950 c 128,-1,20
 1192 1069 1192 1069 857 1069 c 128,-1,21
 522 1069 522 1069 365 950 c 128,-1,0
 208 831 208 831 208 557 c 128,-1,1
1592 557 m 0,22,23
 1592 303 1592 303 1459.5 163 c 128,-1,24
 1327 23 1327 23 1049 -10 c 1,25,-1
 1074 -133 l 2,26,27
 1080 -165 1080 -165 1080 -176 c 0,28,29
 1080 -209 1080 -209 1045 -209 c 0,30,31
 1031 -209 1031 -209 1022.5 -199.5 c 128,-1,32
 1014 -190 1014 -190 1011 -180 c 128,-1,33
 1008 -170 1008 -170 1004 -150 c 2,34,-1
 977 -17 l 1,35,36
 901 -21 901 -21 857 -21 c 0,37,38
 479 -21 479 -21 301 121 c 128,-1,39
 123 263 123 263 123 557 c 128,-1,40
 123 851 123 851 301 993 c 128,-1,41
 479 1135 479 1135 857 1135 c 128,-1,42
 1235 1135 1235 1135 1413.5 993 c 128,-1,43
 1592 851 1592 851 1592 557 c 0,22,23
EndSplineSet
EndChar

StartChar: R
Encoding: 82 82 53
Width: 1256
GlyphClass: 2
Flags: W
LayerCount: 2
Fore
SplineSet
1056 768 m 0,0,1
 1056 808 1056 808 1050.5 840.5 c 128,-1,2
 1045 873 1045 873 1032 899 c 128,-1,3
 1019 925 1019 925 1003.5 945.5 c 128,-1,4
 988 966 988 966 962 981 c 128,-1,5
 936 996 936 996 911 1007 c 128,-1,6
 886 1018 886 1018 847.5 1025.5 c 128,-1,7
 809 1033 809 1033 774.5 1037.5 c 128,-1,8
 740 1042 740 1042 689 1044.5 c 128,-1,9
 638 1047 638 1047 594.5 1047.5 c 128,-1,10
 551 1048 551 1048 488 1048 c 2,11,-1
 246 1048 l 1,12,-1
 246 518 l 1,13,-1
 621 518 l 2,14,15
 699 518 699 518 756.5 522.5 c 128,-1,16
 814 527 814 527 873.5 542.5 c 128,-1,17
 933 558 933 558 970.5 584.5 c 128,-1,18
 1008 611 1008 611 1032 657.5 c 128,-1,19
 1056 704 1056 704 1056 768 c 0,0,1
1141 768 m 0,20,21
 1141 698 1141 698 1115 643.5 c 128,-1,22
 1089 589 1089 589 1048.5 555.5 c 128,-1,23
 1008 522 1008 522 950.5 499.5 c 128,-1,24
 893 477 893 477 837 468 c 128,-1,25
 781 459 781 459 718 456 c 1,26,-1
 1086 69 l 2,27,28
 1103 52 1103 52 1103 33 c 0,29,30
 1103 19 1103 19 1093.5 9.5 c 128,-1,31
 1084 0 1084 0 1069 0 c 0,32,33
 1042 0 1042 0 1021 24 c 1,34,-1
 620 452 l 1,35,-1
 246 452 l 1,36,-1
 246 76 l 2,37,38
 246 0 246 0 208 0 c 0,39,40
 161 0 161 0 161 76 c 2,41,-1
 161 1077 l 2,42,43
 161 1106 161 1106 165 1110 c 128,-1,44
 169 1114 169 1114 198 1114 c 2,45,-1
 488 1114 l 2,46,47
 573 1114 573 1114 624 1113 c 128,-1,48
 675 1112 675 1112 746 1107.5 c 128,-1,49
 817 1103 817 1103 859 1093.5 c 128,-1,50
 901 1084 901 1084 952.5 1068 c 128,-1,51
 1004 1052 1004 1052 1033.5 1026 c 128,-1,52
 1063 1000 1063 1000 1090.5 964.5 c 128,-1,53
 1118 929 1118 929 1129.5 879.5 c 128,-1,54
 1141 830 1141 830 1141 768 c 0,20,21
EndSplineSet
EndChar

StartChar: S
Encoding: 83 83 54
Width: 1540
GlyphClass: 2
Flags: W
LayerCount: 2
Fore
SplineSet
1427 311 m 0,0,1
 1427 237 1427 237 1393.5 178.5 c 128,-1,2
 1360 120 1360 120 1305 83.5 c 128,-1,3
 1250 47 1250 47 1171.5 23 c 128,-1,4
 1093 -1 1093 -1 1009 -10.5 c 128,-1,5
 925 -20 925 -20 829 -20 c 0,6,7
 632 -20 632 -20 431 16 c 128,-1,8
 230 52 230 52 149 90 c 0,9,10
 122 103 122 103 122 129 c 0,11,12
 122 158 122 158 148 158 c 0,13,14
 154 158 154 158 162 155 c 0,15,16
 253 117 253 117 454 81.5 c 128,-1,17
 655 46 655 46 844 46 c 0,18,19
 949 46 949 46 1035 59.5 c 128,-1,20
 1121 73 1121 73 1192 102.5 c 128,-1,21
 1263 132 1263 132 1302.5 185 c 128,-1,22
 1342 238 1342 238 1342 311 c 0,23,24
 1342 378 1342 378 1300 423 c 128,-1,25
 1258 468 1258 468 1186.5 490 c 128,-1,26
 1115 512 1115 512 1022.5 524 c 128,-1,27
 930 536 930 536 828 540.5 c 128,-1,28
 726 545 726 545 624 550.5 c 128,-1,29
 522 556 522 556 429.5 570.5 c 128,-1,30
 337 585 337 585 265.5 611.5 c 128,-1,31
 194 638 194 638 152 689.5 c 128,-1,32
 110 741 110 741 110 815 c 0,33,34
 110 890 110 890 144.5 947 c 128,-1,35
 179 1004 179 1004 235.5 1039 c 128,-1,36
 292 1074 292 1074 373 1096 c 128,-1,37
 454 1118 454 1118 536.5 1126.5 c 128,-1,38
 619 1135 619 1135 716 1135 c 0,39,40
 891 1135 891 1135 1059.5 1105 c 128,-1,41
 1228 1075 1228 1075 1311 1036 c 0,42,43
 1327 1029 1327 1029 1327 1009 c 0,44,45
 1327 994 1327 994 1317 982.5 c 128,-1,46
 1307 971 1307 971 1291 971 c 0,47,48
 1281 971 1281 971 1274 975 c 1,49,50
 1169 1018 1169 1018 1020 1043.5 c 128,-1,51
 871 1069 871 1069 720 1069 c 0,52,53
 610 1069 610 1069 520 1056.5 c 128,-1,54
 430 1044 430 1044 354.5 1017 c 128,-1,55
 279 990 279 990 237 940 c 128,-1,56
 195 890 195 890 195 821 c 0,57,58
 195 747 195 747 263 704.5 c 128,-1,59
 331 662 331 662 439.5 647 c 128,-1,60
 548 632 548 632 679.5 625.5 c 128,-1,61
 811 619 811 619 942.5 607 c 128,-1,62
 1074 595 1074 595 1182.5 568.5 c 128,-1,63
 1291 542 1291 542 1359 477.5 c 128,-1,64
 1427 413 1427 413 1427 311 c 0,0,1
EndSplineSet
EndChar

StartChar: T
Encoding: 84 84 55
Width: 1343
GlyphClass: 2
Flags: W
LayerCount: 2
Fore
SplineSet
1325 1077 m 0,0,1
 1325 1072 1325 1072 1324 1067.5 c 128,-1,2
 1323 1063 1323 1063 1320 1060 c 128,-1,3
 1317 1057 1317 1057 1315 1055 c 128,-1,4
 1313 1053 1313 1053 1307.5 1051.5 c 128,-1,5
 1302 1050 1302 1050 1299 1049 c 128,-1,6
 1296 1048 1296 1048 1289 1048 c 128,-1,7
 1282 1048 1282 1048 1278 1048 c 128,-1,8
 1274 1048 1274 1048 1265.5 1048 c 128,-1,9
 1257 1048 1257 1048 1253 1048 c 2,10,-1
 716 1048 l 1,11,-1
 716 74 l 2,12,13
 716 50 716 50 714 36.5 c 128,-1,14
 712 23 712 23 702 11.5 c 128,-1,15
 692 0 692 0 674 0 c 0,16,17
 631 0 631 0 631 74 c 2,18,-1
 631 1048 l 1,19,-1
 92 1048 l 2,20,21
 88 1048 88 1048 79.5 1048 c 128,-1,22
 71 1048 71 1048 67.5 1048 c 128,-1,23
 64 1048 64 1048 56.5 1048 c 128,-1,24
 49 1048 49 1048 45.5 1049 c 128,-1,25
 42 1050 42 1050 36.5 1051.5 c 128,-1,26
 31 1053 31 1053 28.5 1055 c 128,-1,27
 26 1057 26 1057 23 1060 c 128,-1,28
 20 1063 20 1063 19 1067.5 c 128,-1,29
 18 1072 18 1072 18 1077 c 0,30,31
 18 1114 18 1114 87 1114 c 0,32,33
 90 1114 90 1114 92 1114 c 2,34,-1
 1253 1114 l 2,35,36
 1255 1114 1255 1114 1258 1114 c 0,37,38
 1276 1114 1276 1114 1285 1113.5 c 128,-1,39
 1294 1113 1294 1113 1305 1109.5 c 128,-1,40
 1316 1106 1316 1106 1320.5 1098 c 128,-1,41
 1325 1090 1325 1090 1325 1077 c 0,0,1
EndSplineSet
EndChar

StartChar: U
Encoding: 85 85 56
Width: 1586
GlyphClass: 2
Flags: W
LayerCount: 2
Fore
SplineSet
794 45 m 128,-1,1
 957 45 957 45 1066.5 76 c 128,-1,2
 1176 107 1176 107 1240.5 173 c 128,-1,3
 1305 239 1305 239 1332.5 332 c 128,-1,4
 1360 425 1360 425 1360 560 c 2,5,-1
 1360 1044 l 2,6,7
 1360 1114 1360 1114 1401 1114 c 0,8,9
 1445 1114 1445 1114 1445 1044 c 2,10,-1
 1445 560 l 2,11,12
 1445 252 1445 252 1286 115.5 c 128,-1,13
 1127 -21 1127 -21 794 -21 c 128,-1,14
 461 -21 461 -21 301 116 c 128,-1,15
 141 253 141 253 141 560 c 2,16,-1
 141 1044 l 2,17,18
 141 1114 141 1114 186 1114 c 0,19,20
 226 1114 226 1114 226 1044 c 2,21,-1
 226 560 l 2,22,23
 226 425 226 425 253.5 332 c 128,-1,24
 281 239 281 239 346 173 c 128,-1,25
 411 107 411 107 521 76 c 128,-1,0
 631 45 631 45 794 45 c 128,-1,1
EndSplineSet
EndChar

StartChar: V
Encoding: 86 86 57
Width: 1427
GlyphClass: 2
Flags: W
LayerCount: 2
Fore
SplineSet
142 1064 m 2,0,-1
 714 90 l 1,1,-1
 1285 1064 l 2,2,3
 1312 1110 1312 1110 1334 1113 c 1,4,5
 1351 1113 1351 1113 1360 1102 c 128,-1,6
 1369 1091 1369 1091 1369 1078 c 128,-1,7
 1369 1065 1369 1065 1348 1029 c 2,8,-1
 765 35 l 2,9,10
 745 0 745 0 713 0 c 0,11,12
 683 0 683 0 662 35 c 2,13,-1
 77 1029 l 2,14,15
 58 1062 58 1062 58 1080 c 0,16,17
 58 1091 58 1091 67 1102 c 128,-1,18
 76 1113 76 1113 91 1113 c 1,19,20
 106 1111 106 1111 117 1099.5 c 128,-1,21
 128 1088 128 1088 142 1064 c 2,0,-1
EndSplineSet
EndChar

StartChar: W
Encoding: 87 87 58
Width: 1792
GlyphClass: 2
Flags: W
LayerCount: 2
Fore
SplineSet
944 1059 m 2,0,-1
 1276 125 l 1,1,-1
 1610 1059 l 2,2,3
 1630 1114 1630 1114 1655 1114 c 0,4,5
 1690 1114 1690 1114 1690 1081 c 0,6,7
 1690 1065 1690 1065 1678 1032 c 2,8,-1
 1325 53 l 2,9,10
 1323 50 1323 50 1319.5 42 c 128,-1,11
 1316 34 1316 34 1314.5 31.5 c 128,-1,12
 1313 29 1313 29 1310 23 c 128,-1,13
 1307 17 1307 17 1305 14.5 c 128,-1,14
 1303 12 1303 12 1299.5 8.5 c 128,-1,15
 1296 5 1296 5 1293 3.5 c 128,-1,16
 1290 2 1290 2 1285.5 1 c 128,-1,17
 1281 0 1281 0 1276 0 c 0,18,19
 1258 0 1258 0 1248.5 12.5 c 128,-1,20
 1239 25 1239 25 1229 53 c 2,21,-1
 895 981 l 1,22,-1
 563 53 l 2,23,24
 544 0 544 0 514 0 c 0,25,26
 496 0 496 0 486.5 12.5 c 128,-1,27
 477 25 477 25 467 53 c 2,28,-1
 115 1032 l 2,29,30
 101 1070 101 1070 101 1081 c 0,31,32
 101 1094 101 1094 109.5 1104 c 128,-1,33
 118 1114 118 1114 137 1114 c 0,34,35
 154 1114 154 1114 163.5 1100 c 128,-1,36
 173 1086 173 1086 183 1059 c 2,37,-1
 514 125 l 1,38,-1
 848 1059 l 2,39,40
 868 1114 868 1114 893 1114 c 0,41,42
 914 1114 914 1114 923.5 1101.5 c 128,-1,43
 933 1089 933 1089 944 1059 c 2,0,-1
EndSplineSet
EndChar

StartChar: X
Encoding: 88 88 59
Width: 1435
GlyphClass: 2
Flags: W
LayerCount: 2
Fore
SplineSet
221 1093 m 2,0,-1
 717 596 l 1,1,-1
 1213 1093 l 2,2,3
 1233 1113 1233 1113 1253 1113 c 0,4,5
 1266 1113 1266 1113 1275 1103 c 128,-1,6
 1284 1093 1284 1093 1284 1079 c 0,7,8
 1284 1059 1284 1059 1267 1042 c 2,9,-1
 769 547 l 1,10,-1
 1276 75 l 2,11,12
 1300 52 1300 52 1300 28 c 0,13,14
 1300 16 1300 16 1292.5 8 c 128,-1,15
 1285 0 1285 0 1273 0 c 0,16,17
 1251 0 1251 0 1226 24 c 2,18,-1
 717 498 l 1,19,-1
 208 23 l 2,20,21
 184 0 184 0 161 0 c 0,22,23
 148 0 148 0 140.5 7.5 c 128,-1,24
 133 15 133 15 133 27 c 0,25,26
 133 50 133 50 158 74 c 2,27,-1
 665 547 l 1,28,-1
 167 1042 l 2,29,30
 149 1060 149 1060 149 1079 c 0,31,32
 149 1093 149 1093 158 1103 c 128,-1,33
 167 1113 167 1113 181 1113 c 0,34,35
 201 1113 201 1113 221 1093 c 2,0,-1
EndSplineSet
EndChar

StartChar: Y
Encoding: 89 89 60
Width: 1165
GlyphClass: 2
Flags: W
LayerCount: 2
Fore
SplineSet
126 1089 m 2,0,-1
 583 535 l 1,1,-1
 1040 1089 l 2,2,3
 1060 1113 1060 1113 1082 1113 c 0,4,5
 1115 1113 1115 1113 1115 1077 c 0,6,7
 1115 1060 1115 1060 1098 1040 c 2,8,-1
 626 471 l 1,9,-1
 626 69 l 2,10,11
 626 0 626 0 586 0 c 0,12,13
 541 0 541 0 541 67 c 2,14,-1
 541 473 l 1,15,-1
 67 1040 l 2,16,17
 50 1060 50 1060 50 1080 c 0,18,19
 50 1095 50 1095 59.5 1104.5 c 128,-1,20
 69 1114 69 1114 83 1114 c 0,21,22
 105 1114 105 1114 126 1089 c 2,0,-1
EndSplineSet
EndChar

StartChar: Z
Encoding: 90 90 61
Width: 1335
GlyphClass: 2
Flags: W
LayerCount: 2
Fore
SplineSet
1257 1026 m 1,0,-1
 172 66 l 1,1,-1
 1212 66 l 2,2,3
 1234 66 1234 66 1246.5 56 c 128,-1,4
 1259 46 1259 46 1259 33 c 0,5,6
 1259 19 1259 19 1246.5 9.5 c 128,-1,7
 1234 0 1234 0 1212 0 c 2,8,-1
 120 0 l 2,9,10
 97 0 97 0 87 0.5 c 128,-1,11
 77 1 77 1 66 4.5 c 128,-1,12
 55 8 55 8 51 15.5 c 128,-1,13
 47 23 47 23 47 36 c 0,14,15
 47 59 47 59 79 88 c 2,16,-1
 1163 1048 l 1,17,-1
 120 1048 l 2,18,19
 98 1048 98 1048 86.5 1057.5 c 128,-1,20
 75 1067 75 1067 75 1081 c 0,21,22
 75 1094 75 1094 86.5 1104 c 128,-1,23
 98 1114 98 1114 120 1114 c 2,24,-1
 1208 1114 l 2,25,26
 1236 1114 1236 1114 1251 1112.5 c 128,-1,27
 1266 1111 1266 1111 1278 1103 c 128,-1,28
 1290 1095 1290 1095 1290 1079 c 0,29,30
 1290 1061 1290 1061 1257 1026 c 1,0,-1
EndSplineSet
EndChar

StartChar: bracketleft
Encoding: 91 91 62
Width: 391
GlyphClass: 2
Flags: W
LayerCount: 2
Fore
SplineSet
332 -174 m 0,0,1
 332 -195 332 -195 314 -202 c 128,-1,2
 296 -209 296 -209 261 -209 c 2,3,-1
 154 -209 l 2,4,5
 135 -209 135 -209 126 -198 c 128,-1,6
 117 -187 117 -187 116 -176 c 128,-1,7
 115 -165 115 -165 115 -139 c 2,8,-1
 115 1253 l 2,9,10
 115 1272 115 1272 115.5 1281 c 128,-1,11
 116 1290 116 1290 120 1302 c 128,-1,12
 124 1314 124 1314 132.5 1318.5 c 128,-1,13
 141 1323 141 1323 156 1323 c 2,14,-1
 261 1323 l 2,15,16
 286 1323 286 1323 298 1322 c 128,-1,17
 310 1321 310 1321 321 1313.5 c 128,-1,18
 332 1306 332 1306 332 1290 c 0,19,20
 332 1276 332 1276 327.5 1268 c 128,-1,21
 323 1260 323 1260 310 1257 c 128,-1,22
 297 1254 297 1254 290 1253.5 c 128,-1,23
 283 1253 283 1253 261 1253 c 2,24,-1
 187 1253 l 1,25,-1
 187 -139 l 1,26,27
 203 -139 203 -139 229.5 -138.5 c 128,-1,28
 256 -138 256 -138 265 -138 c 0,29,30
 300 -138 300 -138 316 -145 c 128,-1,31
 332 -152 332 -152 332 -174 c 0,0,1
EndSplineSet
EndChar

StartChar: backslash
Encoding: 92 92 63
Width: 644
GlyphClass: 2
Flags: W
LayerCount: 2
Fore
SplineSet
129 1118 m 2,0,-1
 582 16 l 1,1,2
 596 -13 596 -13 596 -33 c 0,3,4
 596 -46 596 -46 587 -54.5 c 128,-1,5
 578 -63 578 -63 561 -63 c 0,6,7
 545 -63 545 -63 534.5 -49.5 c 128,-1,8
 524 -36 524 -36 514 -10 c 2,9,-1
 62 1092 l 1,10,11
 47 1123 47 1123 47 1141 c 0,12,13
 47 1154 47 1154 56 1164 c 128,-1,14
 65 1174 65 1174 84 1174 c 0,15,16
 91 1174 91 1174 96.5 1171.5 c 128,-1,17
 102 1169 102 1169 107 1162 c 128,-1,18
 112 1155 112 1155 114.5 1150 c 128,-1,19
 117 1145 117 1145 122 1133.5 c 128,-1,20
 127 1122 127 1122 129 1118 c 2,0,-1
EndSplineSet
EndChar

StartChar: bracketright
Encoding: 93 93 64
Width: 390
GlyphClass: 2
Flags: W
LayerCount: 2
Fore
SplineSet
58 -174 m 0,0,1
 58 -149 58 -149 83 -143.5 c 128,-1,2
 108 -138 108 -138 171 -139 c 0,3,4
 193 -139 193 -139 204 -139 c 1,5,-1
 204 1253 l 1,6,-1
 130 1253 l 2,7,8
 79 1253 79 1253 67 1265 c 0,9,10
 58 1273 58 1273 58 1290 c 0,11,12
 58 1305 58 1305 70 1313 c 128,-1,13
 82 1321 82 1321 94 1322 c 128,-1,14
 106 1323 106 1323 130 1323 c 2,15,-1
 234 1323 l 2,16,17
 262 1323 262 1323 268.5 1306.5 c 128,-1,18
 275 1290 275 1290 275 1253 c 2,19,-1
 275 -139 l 2,20,21
 275 -165 275 -165 274 -176 c 128,-1,22
 273 -187 273 -187 264 -198 c 128,-1,23
 255 -209 255 -209 236 -209 c 2,24,-1
 130 -209 l 2,25,26
 58 -209 58 -209 58 -174 c 0,0,1
EndSplineSet
EndChar

StartChar: asciicircum
Encoding: 94 94 65
Width: 619
GlyphClass: 2
Flags: W
LayerCount: 2
Fore
SplineSet
494 997 m 2,0,-1
 312 1204 l 1,1,-1
 172 1049 l 1,2,3
 97 954 97 954 72 954 c 0,4,5
 59 954 59 954 49 965.5 c 128,-1,6
 39 977 39 977 39 987 c 0,7,8
 39 993 39 993 42 1000 c 128,-1,9
 45 1007 45 1007 48 1011 c 128,-1,10
 51 1015 51 1015 59 1024.5 c 128,-1,11
 67 1034 67 1034 70 1038 c 0,12,13
 263 1288 263 1288 310 1288 c 0,14,15
 326 1288 326 1288 348 1272 c 1,16,-1
 365 1255 l 1,17,-1
 551 1038 l 1,18,19
 580 1011 580 1011 580 989 c 0,20,21
 580 978 580 978 571 966 c 128,-1,22
 562 954 562 954 547 954 c 0,23,24
 542 954 542 954 537.5 956 c 128,-1,25
 533 958 533 958 527.5 962.5 c 128,-1,26
 522 967 522 967 518 971.5 c 128,-1,27
 514 976 514 976 506.5 984 c 128,-1,28
 499 992 499 992 494 997 c 2,0,-1
EndSplineSet
EndChar

StartChar: underscore
Encoding: 95 95 66
Width: 1511
GlyphClass: 2
Flags: W
LayerCount: 2
Fore
SplineSet
1388 228 m 128,-1,1
 1388 184 1388 184 1350 184 c 2,2,-1
 160 184 l 2,3,4
 123 184 123 184 123 228 c 128,-1,5
 123 272 123 272 160 272 c 2,6,-1
 1350 272 l 2,7,0
 1388 272 1388 272 1388 228 c 128,-1,1
EndSplineSet
EndChar

StartChar: grave
Encoding: 96 96 67
Width: 376
GlyphClass: 2
Flags: W
LayerCount: 2
Fore
SplineSet
101 1289 m 2,0,-1
 353 1013 l 2,1,2
 361 1005 361 1005 361 995 c 0,3,4
 361 984 361 984 353 976.5 c 128,-1,5
 345 969 345 969 334 969 c 0,6,7
 326 969 326 969 319 974 c 2,8,-1
 27 1211 l 2,9,10
 12 1223 12 1223 12 1239 c 0,11,12
 12 1261 12 1261 33 1280.5 c 128,-1,13
 54 1300 54 1300 76 1300 c 0,14,15
 90 1300 90 1300 101 1289 c 2,0,-1
EndSplineSet
EndChar

StartChar: a
Encoding: 97 97 68
Width: 1191
GlyphClass: 2
Flags: W
LayerCount: 2
Fore
SplineSet
963 421 m 1,0,1
 963 477 963 477 954 521.5 c 128,-1,2
 945 566 945 566 928.5 598 c 128,-1,3
 912 630 912 630 886 653.5 c 128,-1,4
 860 677 860 677 830.5 691 c 128,-1,5
 801 705 801 705 760.5 713.5 c 128,-1,6
 720 722 720 722 679.5 725 c 128,-1,7
 639 728 639 728 587 728 c 0,8,9
 514 728 514 728 455 723.5 c 128,-1,10
 396 719 396 719 350.5 709 c 128,-1,11
 305 699 305 699 284 693.5 c 128,-1,12
 263 688 263 688 227 676 c 0,13,14
 221 674 221 674 219 674 c 0,15,16
 207 674 207 674 197 686 c 128,-1,17
 187 698 187 698 187 712 c 0,18,19
 187 725 187 725 199 731 c 0,20,21
 206 734 206 734 219 738.5 c 128,-1,22
 232 743 232 743 256 750 c 128,-1,23
 280 757 280 757 314.5 763 c 128,-1,24
 349 769 349 769 391.5 774.5 c 128,-1,25
 434 780 434 780 492.5 783 c 128,-1,26
 551 786 551 786 616 786 c 0,27,28
 672 786 672 786 717.5 781.5 c 128,-1,29
 763 777 763 777 808 765.5 c 128,-1,30
 853 754 853 754 887.5 735 c 128,-1,31
 922 716 922 716 952.5 685.5 c 128,-1,32
 983 655 983 655 1002.5 614 c 128,-1,33
 1022 573 1022 573 1033 516 c 128,-1,34
 1044 459 1044 459 1044 388 c 2,35,-1
 1044 70 l 2,36,37
 1044 0 1044 0 1003 0 c 0,38,39
 963 0 963 0 963 74 c 2,40,-1
 963 130 l 1,41,42
 827 -10 827 -10 502 -10 c 0,43,44
 337 -10 337 -10 235.5 47.5 c 128,-1,45
 134 105 134 105 134 224 c 0,46,47
 134 477 134 477 532 477 c 0,48,49
 665 477 665 477 783 462.5 c 128,-1,50
 901 448 901 448 963 421 c 1,0,1
214 224 m 0,51,52
 214 133 214 133 289 91 c 128,-1,53
 364 49 364 49 494 49 c 0,54,55
 805 49 805 49 963 178 c 1,56,-1
 963 379 l 1,57,58
 681 418 681 418 540 418 c 0,59,60
 376 418 376 418 295 375.5 c 128,-1,61
 214 333 214 333 214 224 c 0,51,52
EndSplineSet
EndChar

StartChar: b
Encoding: 98 98 69
Width: 1255
GlyphClass: 2
Flags: W
LayerCount: 2
Fore
SplineSet
689 727 m 1,0,1
 619 726 619 726 556 717 c 128,-1,2
 493 708 493 708 424 687.5 c 128,-1,3
 355 667 355 667 305.5 625 c 128,-1,4
 256 583 256 583 239 524 c 1,5,-1
 239 140 l 1,6,7
 480 49 480 49 689 49 c 0,8,9
 881 49 881 49 966.5 131 c 128,-1,10
 1052 213 1052 213 1052 396 c 0,11,12
 1052 727 1052 727 689 727 c 1,0,1
689 786 m 0,13,14
 764 786 764 786 827.5 774.5 c 128,-1,15
 891 763 891 763 948.5 735 c 128,-1,16
 1006 707 1006 707 1045.5 663.5 c 128,-1,17
 1085 620 1085 620 1108.5 552 c 128,-1,18
 1132 484 1132 484 1132 396 c 0,19,20
 1132 179 1132 179 1021 84.5 c 128,-1,21
 910 -10 910 -10 689 -10 c 0,22,23
 436 -10 436 -10 239 97 c 1,24,-1
 239 73 l 2,25,26
 239 55 239 55 238 44.5 c 128,-1,27
 237 34 237 34 233.5 22.5 c 128,-1,28
 230 11 230 11 221 5.5 c 128,-1,29
 212 0 212 0 198 0 c 128,-1,30
 184 0 184 0 175.5 5 c 128,-1,31
 167 10 167 10 163.5 22.5 c 128,-1,32
 160 35 160 35 159.5 44.5 c 128,-1,33
 159 54 159 54 159 73 c 2,34,-1
 159 1065 l 2,35,36
 159 1114 159 1114 201 1114 c 0,37,38
 219 1114 219 1114 229 1104 c 128,-1,39
 239 1094 239 1094 239 1065 c 2,40,-1
 239 587 l 1,41,42
 254 647 254 647 306.5 689 c 128,-1,43
 359 731 359 731 431 750.5 c 128,-1,44
 503 770 503 770 565 778 c 128,-1,45
 627 786 627 786 689 786 c 0,13,14
EndSplineSet
EndChar

StartChar: c
Encoding: 99 99 70
Width: 1132
GlyphClass: 2
Flags: W
LayerCount: 2
Fore
SplineSet
628 727 m 0,0,1
 399 727 399 727 299.5 647.5 c 128,-1,2
 200 568 200 568 200 385 c 0,3,4
 200 205 200 205 304 127 c 128,-1,5
 408 49 408 49 627 49 c 0,6,7
 715 49 715 49 812.5 72 c 128,-1,8
 910 95 910 95 964 122 c 0,9,10
 976 127 976 127 985 127 c 0,11,12
 998 127 998 127 1005.5 119.5 c 128,-1,13
 1013 112 1013 112 1013 101 c 0,14,15
 1013 81 1013 81 992 70 c 0,16,17
 837 -10 837 -10 628 -10 c 0,18,19
 533 -10 533 -10 458.5 1 c 128,-1,20
 384 12 384 12 319 39.5 c 128,-1,21
 254 67 254 67 211 111.5 c 128,-1,22
 168 156 168 156 144 225 c 128,-1,23
 120 294 120 294 120 385 c 0,24,25
 120 499 120 499 153 577.5 c 128,-1,26
 186 656 186 656 253.5 701.5 c 128,-1,27
 321 747 321 747 411.5 766.5 c 128,-1,28
 502 786 502 786 628 786 c 0,29,30
 837 786 837 786 992 706 c 0,31,32
 1013 695 1013 695 1013 675 c 0,33,34
 1013 664 1013 664 1005.5 656.5 c 128,-1,35
 998 649 998 649 985 649 c 0,36,37
 976 649 976 649 964 654 c 0,38,39
 910 681 910 681 813 704 c 128,-1,40
 716 727 716 727 628 727 c 0,0,1
EndSplineSet
EndChar

StartChar: d
Encoding: 100 100 71
Width: 1255
GlyphClass: 2
Flags: W
LayerCount: 2
Fore
SplineSet
566 49 m 1,0,1
 636 50 636 50 699 59 c 128,-1,2
 762 68 762 68 831 88.5 c 128,-1,3
 900 109 900 109 949.5 151 c 128,-1,4
 999 193 999 193 1016 252 c 1,5,-1
 1016 612 l 1,6,7
 875 727 875 727 566 727 c 0,8,9
 374 727 374 727 288.5 645 c 128,-1,10
 203 563 203 563 203 380 c 0,11,12
 203 49 203 49 566 49 c 1,0,1
566 -10 m 0,13,14
 491 -10 491 -10 427.5 1.5 c 128,-1,15
 364 13 364 13 306.5 41 c 128,-1,16
 249 69 249 69 209.5 112.5 c 128,-1,17
 170 156 170 156 146.5 224 c 128,-1,18
 123 292 123 292 123 380 c 0,19,20
 123 597 123 597 234 691.5 c 128,-1,21
 345 786 345 786 566 786 c 0,22,23
 889 786 889 786 1016 659 c 1,24,-1
 1016 1043 l 2,25,26
 1016 1061 1016 1061 1016.5 1070 c 128,-1,27
 1017 1079 1017 1079 1020.5 1091 c 128,-1,28
 1024 1103 1024 1103 1032.5 1108.5 c 128,-1,29
 1041 1114 1041 1114 1055 1114 c 0,30,31
 1073 1114 1073 1114 1082.5 1104 c 128,-1,32
 1092 1094 1092 1094 1094 1081.5 c 128,-1,33
 1096 1069 1096 1069 1096 1045 c 2,34,-1
 1096 54 l 2,35,36
 1096 0 1096 0 1057 0 c 0,37,38
 1016 0 1016 0 1016 52 c 2,39,-1
 1016 191 l 1,40,41
 1003 142 1003 142 964.5 104.5 c 128,-1,42
 926 67 926 67 878.5 46 c 128,-1,43
 831 25 831 25 770.5 11.5 c 128,-1,44
 710 -2 710 -2 661.5 -6 c 128,-1,45
 613 -10 613 -10 566 -10 c 0,13,14
EndSplineSet
EndChar

StartChar: e
Encoding: 101 101 72
Width: 1130
GlyphClass: 2
Flags: W
LayerCount: 2
Fore
SplineSet
201 389 m 1,0,1
 203 291 203 291 228 225 c 128,-1,2
 253 159 253 159 304 120 c 128,-1,3
 355 81 355 81 424.5 64.5 c 128,-1,4
 494 48 494 48 592 48 c 0,5,6
 655 48 655 48 713.5 57 c 128,-1,7
 772 66 772 66 808 76.5 c 128,-1,8
 844 87 844 87 882.5 105.5 c 128,-1,9
 921 124 921 124 934 132 c 128,-1,10
 947 140 947 140 970 155 c 0,11,12
 973 157 973 157 978 157 c 0,13,14
 989 157 989 157 998.5 146.5 c 128,-1,15
 1008 136 1008 136 1008 124 c 0,16,17
 1008 113 1008 113 998 106 c 1,18,19
 985 93 985 93 960.5 77.5 c 128,-1,20
 936 62 936 62 888.5 40 c 128,-1,21
 841 18 841 18 763 3.5 c 128,-1,22
 685 -11 685 -11 593 -11 c 0,23,24
 121 -11 121 -11 121 385 c 0,25,26
 121 786 121 786 600 786 c 0,27,28
 806 786 806 786 910.5 707 c 128,-1,29
 1015 628 1015 628 1015 479 c 0,30,31
 1015 450 1015 450 1007 414.5 c 128,-1,32
 999 379 999 379 991 379 c 2,33,-1
 697 379 l 1,34,-1
 201 389 l 1,0,1
600 727 m 0,35,36
 409 727 409 727 309.5 657.5 c 128,-1,37
 210 588 210 588 202 431 c 1,38,-1
 956 431 l 1,39,-1
 956 485 l 2,40,41
 956 594 956 594 871 660.5 c 128,-1,42
 786 727 786 727 600 727 c 0,35,36
EndSplineSet
EndChar

StartChar: f
Encoding: 102 102 73
Width: 689
GlyphClass: 2
Flags: W
LayerCount: 2
Fore
SplineSet
264 816 m 2,0,-1
 264 751 l 1,1,-1
 629 751 l 2,2,3
 643 751 643 751 651 744 c 128,-1,4
 659 737 659 737 659 727 c 128,-1,5
 659 717 659 717 651 710 c 128,-1,6
 643 703 643 703 629 703 c 2,7,-1
 264 703 l 1,8,-1
 264 49 l 2,9,10
 264 19 264 19 254 9.5 c 128,-1,11
 244 0 244 0 224 0 c 0,12,13
 184 0 184 0 184 49 c 2,14,-1
 184 703 l 1,15,-1
 96 703 l 2,16,17
 83 703 83 703 75.5 710 c 128,-1,18
 68 717 68 717 68 727 c 128,-1,19
 68 737 68 737 75.5 744 c 128,-1,20
 83 751 83 751 96 751 c 2,21,-1
 185 751 l 1,22,-1
 185 816 l 2,23,24
 185 971 185 971 245 1038 c 128,-1,25
 305 1105 305 1105 419 1105 c 0,26,27
 537 1105 537 1105 655 1066 c 0,28,29
 686 1055 686 1055 686 1035 c 0,30,31
 686 1026 686 1026 677.5 1018 c 128,-1,32
 669 1010 669 1010 655 1010 c 0,33,34
 645 1010 645 1010 636 1014 c 0,35,36
 541 1047 541 1047 433 1047 c 0,37,38
 390 1047 390 1047 361.5 1038 c 128,-1,39
 333 1029 333 1029 309.5 1005 c 128,-1,40
 286 981 286 981 275 934.5 c 128,-1,41
 264 888 264 888 264 816 c 2,0,-1
EndSplineSet
EndChar

StartChar: g
Encoding: 103 103 74
Width: 1239
GlyphClass: 2
Flags: W
LayerCount: 2
Fore
SplineSet
602 -10 m 0,0,1
 346 -10 346 -10 236 80 c 0,2,3
 121 175 121 175 121 394 c 0,4,5
 121 468 121 468 137 527 c 128,-1,6
 153 586 153 586 183.5 628.5 c 128,-1,7
 214 671 214 671 256.5 701.5 c 128,-1,8
 299 732 299 732 355 750.5 c 128,-1,9
 411 769 411 769 473.5 777.5 c 128,-1,10
 536 786 536 786 611 786 c 0,11,12
 948 786 948 786 1000 594 c 1,13,14
 1000 605 1000 605 998.5 635.5 c 128,-1,15
 997 666 997 666 997 682 c 0,16,17
 997 766 997 766 1032 766 c 0,18,19
 1080 766 1080 766 1080 696 c 2,20,-1
 1080 -23 l 2,21,22
 1080 -180 1080 -180 961.5 -260 c 128,-1,23
 843 -340 843 -340 621 -340 c 0,24,25
 532 -340 532 -340 455 -327 c 128,-1,26
 378 -314 378 -314 339 -300 c 128,-1,27
 300 -286 300 -286 254 -265 c 0,28,29
 241 -259 241 -259 232 -249.5 c 128,-1,30
 223 -240 223 -240 219 -231 c 128,-1,31
 215 -222 215 -222 215 -214 c 0,32,33
 215 -203 215 -203 222 -195.5 c 128,-1,34
 229 -188 229 -188 241 -188 c 128,-1,35
 253 -188 253 -188 268 -196 c 1,36,37
 430 -270 430 -270 621 -270 c 0,38,39
 794 -270 794 -270 897 -208.5 c 128,-1,40
 1000 -147 1000 -147 1000 -23 c 2,41,-1
 1000 96 l 1,42,43
 848 -10 848 -10 602 -10 c 0,0,1
619 717 m 0,44,45
 405 717 405 717 303 640 c 128,-1,46
 201 563 201 563 201 383 c 0,47,48
 201 198 201 198 291 123.5 c 128,-1,49
 381 49 381 49 606 49 c 0,50,51
 847 49 847 49 1000 150 c 1,52,-1
 1000 524 l 1,53,54
 993 550 993 550 980.5 573 c 128,-1,55
 968 596 968 596 939.5 623.5 c 128,-1,56
 911 651 911 651 871.5 671 c 128,-1,57
 832 691 832 691 766.5 704 c 128,-1,58
 701 717 701 717 619 717 c 0,44,45
EndSplineSet
EndChar

StartChar: h
Encoding: 104 104 75
Width: 1198
GlyphClass: 2
Flags: W
LayerCount: 2
Fore
SplineSet
1051 418 m 2,0,-1
 1051 72 l 2,1,2
 1051 0 1051 0 1013 0 c 0,3,4
 987 0 987 0 979 19 c 128,-1,5
 971 38 971 38 971 72 c 2,6,-1
 971 418 l 2,7,8
 971 501 971 501 959 555 c 128,-1,9
 947 609 947 609 914 650 c 128,-1,10
 881 691 881 691 820 709 c 128,-1,11
 759 727 759 727 664 727 c 0,12,13
 601 727 601 727 538 717 c 128,-1,14
 475 707 475 707 412.5 685 c 128,-1,15
 350 663 350 663 303 621.5 c 128,-1,16
 256 580 256 580 239 524 c 1,17,-1
 239 72 l 2,18,19
 239 0 239 0 201 0 c 0,20,21
 159 0 159 0 159 72 c 2,22,-1
 159 1044 l 2,23,24
 159 1114 159 1114 201 1114 c 0,25,26
 239 1114 239 1114 239 1044 c 2,27,-1
 239 594 l 1,28,29
 255 651 255 651 303.5 691.5 c 128,-1,30
 352 732 352 732 418.5 751 c 128,-1,31
 485 770 485 770 544.5 778 c 128,-1,32
 604 786 604 786 664 786 c 0,33,34
 881 786 881 786 966 705.5 c 128,-1,35
 1051 625 1051 625 1051 418 c 2,0,-1
EndSplineSet
EndChar

StartChar: i
Encoding: 105 105 76
Width: 426
GlyphClass: 2
Flags: W
LayerCount: 2
Fore
SplineSet
159 992 m 128,-1,1
 159 1015 159 1015 174 1030.5 c 128,-1,2
 189 1046 189 1046 212 1046 c 128,-1,3
 235 1046 235 1046 251 1030.5 c 128,-1,4
 267 1015 267 1015 267 992 c 128,-1,5
 267 969 267 969 251.5 955 c 128,-1,6
 236 941 236 941 212 941 c 0,7,8
 189 941 189 941 174 955 c 128,-1,0
 159 969 159 969 159 992 c 128,-1,1
252 707 m 2,9,-1
 252 63 l 2,10,11
 252 41 252 41 250.5 30 c 128,-1,12
 249 19 249 19 239.5 9.5 c 128,-1,13
 230 0 230 0 212 0 c 0,14,15
 186 0 186 0 179 14.5 c 128,-1,16
 172 29 172 29 172 63 c 2,17,-1
 172 705 l 2,18,19
 172 734 172 734 180.5 750 c 128,-1,20
 189 766 189 766 214 766 c 0,21,22
 252 766 252 766 252 707 c 2,9,-1
EndSplineSet
EndChar

StartChar: j
Encoding: 106 106 77
Width: 483
GlyphClass: 2
Flags: W
LayerCount: 2
Fore
SplineSet
265 992 m 128,-1,1
 265 1015 265 1015 280 1030.5 c 128,-1,2
 295 1046 295 1046 318 1046 c 128,-1,3
 341 1046 341 1046 357 1030.5 c 128,-1,4
 373 1015 373 1015 373 992 c 128,-1,5
 373 969 373 969 357.5 955 c 128,-1,6
 342 941 342 941 318 941 c 0,7,8
 295 941 295 941 280 955 c 128,-1,0
 265 969 265 969 265 992 c 128,-1,1
359 714 m 2,9,-1
 359 94 l 2,10,11
 359 54 359 54 358 29.5 c 128,-1,12
 357 5 357 5 351.5 -37 c 128,-1,13
 346 -79 346 -79 335 -106.5 c 128,-1,14
 324 -134 324 -134 302.5 -167 c 128,-1,15
 281 -200 281 -200 250.5 -219.5 c 128,-1,16
 220 -239 220 -239 173 -252.5 c 128,-1,17
 126 -266 126 -266 66 -266 c 0,18,19
 43 -266 43 -266 32 -265 c 128,-1,20
 21 -264 21 -264 10.5 -255.5 c 128,-1,21
 0 -247 0 -247 0 -231 c 0,22,23
 0 -218 0 -218 4.5 -211 c 128,-1,24
 9 -204 9 -204 20.5 -201 c 128,-1,25
 32 -198 32 -198 40 -197.5 c 128,-1,26
 48 -197 48 -197 66 -197 c 0,27,28
 111 -197 111 -197 145 -188 c 128,-1,29
 179 -179 179 -179 201.5 -166.5 c 128,-1,30
 224 -154 224 -154 239.5 -129.5 c 128,-1,31
 255 -105 255 -105 262.5 -86.5 c 128,-1,32
 270 -68 270 -68 274 -33 c 128,-1,33
 278 2 278 2 278.5 21.5 c 128,-1,34
 279 41 279 41 279 80 c 0,35,36
 279 89 279 89 279 94 c 2,37,-1
 279 714 l 2,38,39
 279 739 279 739 287.5 752.5 c 128,-1,40
 296 766 296 766 320 766 c 0,41,42
 334 766 334 766 342.5 762.5 c 128,-1,43
 351 759 351 759 354.5 750.5 c 128,-1,44
 358 742 358 742 358.5 735 c 128,-1,45
 359 728 359 728 359 714 c 2,9,-1
EndSplineSet
EndChar

StartChar: k
Encoding: 107 107 78
Width: 999
GlyphClass: 2
Flags: W
LayerCount: 2
Fore
SplineSet
453 461 m 1,0,-1
 904 59 l 1,1,2
 917 46 917 46 917 30 c 0,3,4
 917 17 917 17 908 8.5 c 128,-1,5
 899 0 899 0 885 0 c 0,6,7
 868 0 868 0 851 16 c 2,8,-1
 392 430 l 1,9,-1
 240 345 l 1,10,-1
 240 44 l 2,11,12
 240 22 240 22 228 11 c 128,-1,13
 216 0 216 0 200 0 c 0,14,15
 185 0 185 0 172.5 11.5 c 128,-1,16
 160 23 160 23 160 44 c 2,17,-1
 160 1070 l 2,18,19
 160 1089 160 1089 173.5 1099.5 c 128,-1,20
 187 1110 187 1110 202 1110 c 0,21,22
 218 1110 218 1110 229 1099.5 c 128,-1,23
 240 1089 240 1089 240 1070 c 2,24,-1
 240 410 l 1,25,-1
 866 774 l 2,26,27
 872 777 872 777 879 777 c 0,28,29
 891 777 891 777 900 767.5 c 128,-1,30
 909 758 909 758 909 746 c 0,31,32
 909 733 909 733 892 722 c 2,33,-1
 453 461 l 1,0,-1
EndSplineSet
EndChar

StartChar: l
Encoding: 108 108 79
Width: 399
GlyphClass: 2
Flags: W
LayerCount: 2
Fore
SplineSet
240 1044 m 2,0,-1
 240 70 l 2,1,2
 240 0 240 0 201 0 c 0,3,4
 183 0 183 0 173.5 10.5 c 128,-1,5
 164 21 164 21 162 33.5 c 128,-1,6
 160 46 160 46 160 68 c 2,7,-1
 160 1042 l 2,8,9
 160 1065 160 1065 162 1078.5 c 128,-1,10
 164 1092 164 1092 174 1103 c 128,-1,11
 184 1114 184 1114 203 1114 c 0,12,13
 240 1114 240 1114 240 1044 c 2,0,-1
EndSplineSet
EndChar

StartChar: m
Encoding: 109 109 80
Width: 1630
GlyphClass: 2
Flags: W
LayerCount: 2
Fore
SplineSet
1403 52 m 2,0,-1
 1403 489 l 2,1,2
 1403 623 1403 623 1358.5 675 c 128,-1,3
 1314 727 1314 727 1215 727 c 0,4,5
 983 727 983 727 862 532 c 1,6,-1
 862 52 l 2,7,8
 862 0 862 0 824 0 c 0,9,10
 815 0 815 0 809 1 c 128,-1,11
 803 2 803 2 796 6.5 c 128,-1,12
 789 11 789 11 785.5 22.5 c 128,-1,13
 782 34 782 34 782 52 c 2,14,-1
 782 532 l 2,15,16
 782 727 782 727 603 727 c 0,17,18
 466 727 466 727 365 669.5 c 128,-1,19
 264 612 264 612 239 528 c 1,20,-1
 239 52 l 2,21,22
 239 0 239 0 204 0 c 0,23,24
 191 0 191 0 183 2 c 128,-1,25
 175 4 175 4 167 16 c 128,-1,26
 159 28 159 28 159 52 c 2,27,-1
 159 717 l 2,28,29
 159 766 159 766 200 766 c 0,30,31
 220 766 220 766 229 756.5 c 128,-1,32
 238 747 238 747 238 717 c 2,33,-1
 238 594 l 1,34,35
 270 683 270 683 369 734.5 c 128,-1,36
 468 786 468 786 601 786 c 0,37,38
 659 786 659 786 703.5 771.5 c 128,-1,39
 748 757 748 757 772 738.5 c 128,-1,40
 796 720 796 720 813.5 690.5 c 128,-1,41
 831 661 831 661 837 643 c 128,-1,42
 843 625 843 625 848 599 c 1,43,44
 891 675 891 675 982.5 730.5 c 128,-1,45
 1074 786 1074 786 1213 786 c 0,46,47
 1351 786 1351 786 1417 714.5 c 128,-1,48
 1483 643 1483 643 1483 489 c 2,49,-1
 1483 52 l 2,50,51
 1483 0 1483 0 1444 0 c 0,52,53
 1434 0 1434 0 1428.5 1 c 128,-1,54
 1423 2 1423 2 1416 6.5 c 128,-1,55
 1409 11 1409 11 1406 22.5 c 128,-1,56
 1403 34 1403 34 1403 52 c 2,0,-1
EndSplineSet
EndChar

StartChar: n
Encoding: 110 110 81
Width: 1192
GlyphClass: 2
Flags: W
LayerCount: 2
Fore
SplineSet
1045 418 m 2,0,-1
 1045 72 l 2,1,2
 1045 0 1045 0 1004 0 c 0,3,4
 990 0 990 0 981.5 5.5 c 128,-1,5
 973 11 973 11 969.5 23.5 c 128,-1,6
 966 36 966 36 965.5 45 c 128,-1,7
 965 54 965 54 965 72 c 2,8,-1
 965 418 l 2,9,10
 965 502 965 502 953 555 c 128,-1,11
 941 608 941 608 908.5 649.5 c 128,-1,12
 876 691 876 691 815.5 709 c 128,-1,13
 755 727 755 727 660 727 c 0,14,15
 596 727 596 727 534 717 c 128,-1,16
 472 707 472 707 410 685 c 128,-1,17
 348 663 348 663 302 621.5 c 128,-1,18
 256 580 256 580 239 524 c 1,19,-1
 239 72 l 2,20,21
 239 0 239 0 202 0 c 0,22,23
 159 0 159 0 159 72 c 2,24,-1
 159 720 l 2,25,26
 159 766 159 766 201 766 c 0,27,28
 239 766 239 766 239 720 c 2,29,-1
 239 610 l 1,30,31
 279 665 279 665 331.5 702.5 c 128,-1,32
 384 740 384 740 443.5 757 c 128,-1,33
 503 774 503 774 553 780 c 128,-1,34
 603 786 603 786 663 786 c 0,35,36
 878 786 878 786 961.5 705.5 c 128,-1,37
 1045 625 1045 625 1045 418 c 2,0,-1
EndSplineSet
EndChar

StartChar: o
Encoding: 111 111 82
Width: 1240
GlyphClass: 2
Flags: W
LayerCount: 2
Fore
SplineSet
620 49 m 128,-1,1
 725 49 725 49 802.5 69 c 128,-1,2
 880 89 880 89 924 120 c 128,-1,3
 968 151 968 151 994.5 197 c 128,-1,4
 1021 243 1021 243 1029 286.5 c 128,-1,5
 1037 330 1037 330 1037 385 c 0,6,7
 1037 569 1037 569 939 648 c 128,-1,8
 841 727 841 727 620 727 c 128,-1,9
 399 727 399 727 301 648 c 128,-1,10
 203 569 203 569 203 385 c 0,11,12
 203 330 203 330 211 286.5 c 128,-1,13
 219 243 219 243 245.5 197 c 128,-1,14
 272 151 272 151 316 120 c 128,-1,15
 360 89 360 89 437.5 69 c 128,-1,0
 515 49 515 49 620 49 c 128,-1,1
620 -10 m 128,-1,17
 355 -10 355 -10 239 91 c 128,-1,18
 123 192 123 192 123 385 c 0,19,20
 123 595 123 595 243 690.5 c 128,-1,21
 363 786 363 786 620 786 c 128,-1,22
 877 786 877 786 997 690.5 c 128,-1,23
 1117 595 1117 595 1117 385 c 0,24,25
 1117 192 1117 192 1001 91 c 128,-1,16
 885 -10 885 -10 620 -10 c 128,-1,17
EndSplineSet
EndChar

StartChar: p
Encoding: 112 112 83
Width: 1255
GlyphClass: 2
Flags: W
LayerCount: 2
Fore
SplineSet
689 727 m 1,0,1
 619 726 619 726 556 717 c 128,-1,2
 493 708 493 708 424 687.5 c 128,-1,3
 355 667 355 667 305.5 625 c 128,-1,4
 256 583 256 583 239 524 c 1,5,-1
 239 140 l 1,6,7
 480 49 480 49 689 49 c 0,8,9
 881 49 881 49 966.5 131 c 128,-1,10
 1052 213 1052 213 1052 396 c 0,11,12
 1052 727 1052 727 689 727 c 1,0,1
689 786 m 0,13,14
 764 786 764 786 827.5 774.5 c 128,-1,15
 891 763 891 763 948.5 735 c 128,-1,16
 1006 707 1006 707 1045.5 663.5 c 128,-1,17
 1085 620 1085 620 1108.5 552 c 128,-1,18
 1132 484 1132 484 1132 396 c 0,19,20
 1132 179 1132 179 1021 84.5 c 128,-1,21
 910 -10 910 -10 689 -10 c 0,22,23
 436 -10 436 -10 239 97 c 1,24,-1
 237 -267 l 2,25,26
 237 -284 237 -284 236.5 -293 c 128,-1,27
 236 -302 236 -302 232.5 -314 c 128,-1,28
 229 -326 229 -326 220.5 -331.5 c 128,-1,29
 212 -337 212 -337 198 -337 c 128,-1,30
 184 -337 184 -337 175.5 -331.5 c 128,-1,31
 167 -326 167 -326 163.5 -313 c 128,-1,32
 160 -300 160 -300 159.5 -290 c 128,-1,33
 159 -280 159 -280 159 -261 c 2,34,-1
 159 717 l 2,35,36
 159 766 159 766 197 766 c 0,37,38
 216 766 216 766 225 756.5 c 128,-1,39
 234 747 234 747 234 717 c 2,40,-1
 234 585 l 1,41,42
 251 645 251 645 304 687.5 c 128,-1,43
 357 730 357 730 429 750 c 128,-1,44
 501 770 501 770 564 778 c 128,-1,45
 627 786 627 786 689 786 c 0,13,14
EndSplineSet
EndChar

StartChar: q
Encoding: 113 113 84
Width: 1197
GlyphClass: 2
Flags: W
LayerCount: 2
Fore
SplineSet
566 727 m 1,0,1
 203 727 203 727 203 396 c 0,2,3
 203 213 203 213 288.5 131 c 128,-1,4
 374 49 374 49 566 49 c 0,5,6
 874 49 874 49 1016 164 c 1,7,-1
 1016 524 l 1,8,9
 999 583 999 583 949.5 625 c 128,-1,10
 900 667 900 667 831 687.5 c 128,-1,11
 762 708 762 708 699 717 c 128,-1,12
 636 726 636 726 566 727 c 1,0,1
566 786 m 0,13,14
 628 786 628 786 690.5 778 c 128,-1,15
 753 770 753 770 824 750 c 128,-1,16
 895 730 895 730 947 687.5 c 128,-1,17
 999 645 999 645 1016 585 c 1,18,-1
 1016 714 l 2,19,20
 1016 766 1016 766 1059 766 c 0,21,22
 1096 766 1096 766 1096 712 c 2,23,-1
 1096 -269 l 2,24,25
 1096 -293 1096 -293 1094 -305.5 c 128,-1,26
 1092 -318 1092 -318 1082.5 -328 c 128,-1,27
 1073 -338 1073 -338 1055 -338 c 0,28,29
 1041 -338 1041 -338 1032.5 -332.5 c 128,-1,30
 1024 -327 1024 -327 1020.5 -315 c 128,-1,31
 1017 -303 1017 -303 1016.5 -294 c 128,-1,32
 1016 -285 1016 -285 1016 -267 c 2,33,-1
 1016 117 l 1,34,35
 894 -10 894 -10 566 -10 c 0,36,37
 345 -10 345 -10 234 84.5 c 128,-1,38
 123 179 123 179 123 396 c 0,39,40
 123 484 123 484 146.5 552 c 128,-1,41
 170 620 170 620 209.5 663.5 c 128,-1,42
 249 707 249 707 306.5 735 c 128,-1,43
 364 763 364 763 427.5 774.5 c 128,-1,44
 491 786 491 786 566 786 c 0,13,14
EndSplineSet
EndChar

StartChar: r
Encoding: 114 114 85
Width: 809
GlyphClass: 2
Flags: W
LayerCount: 2
Fore
SplineSet
748 762 m 0,0,1
 769 756 769 756 769 732 c 0,2,3
 769 718 769 718 760 707.5 c 128,-1,4
 751 697 751 697 735 697 c 1,5,-1
 723 699 l 1,6,7
 643 722 643 722 571 722 c 0,8,9
 448 722 448 722 358.5 673.5 c 128,-1,10
 269 625 269 625 238 530 c 1,11,-1
 238 70 l 2,12,13
 238 0 238 0 199 0 c 0,14,15
 173 0 173 0 165.5 18.5 c 128,-1,16
 158 37 158 37 158 70 c 2,17,-1
 158 710 l 2,18,19
 158 766 158 766 203 766 c 0,20,21
 238 766 238 766 238 710 c 2,22,-1
 238 594 l 1,23,24
 253 652 253 652 292 692.5 c 128,-1,25
 331 733 331 733 383 752 c 128,-1,26
 435 771 435 771 480 778.5 c 128,-1,27
 525 786 525 786 571 786 c 0,28,29
 592 786 592 786 610.5 785.5 c 128,-1,30
 629 785 629 785 645 783 c 128,-1,31
 661 781 661 781 671.5 780 c 128,-1,32
 682 779 682 779 695.5 775.5 c 128,-1,33
 709 772 709 772 714 771 c 128,-1,34
 719 770 719 770 732.5 766.5 c 128,-1,35
 746 763 746 763 748 762 c 0,0,1
EndSplineSet
EndChar

StartChar: s
Encoding: 115 115 86
Width: 1182
GlyphClass: 2
Flags: W
LayerCount: 2
Fore
SplineSet
992 209 m 0,0,1
 992 260 992 260 954.5 291.5 c 128,-1,2
 917 323 917 323 855.5 333.5 c 128,-1,3
 794 344 794 344 715.5 350.5 c 128,-1,4
 637 357 637 357 555.5 356.5 c 128,-1,5
 474 356 474 356 395.5 365.5 c 128,-1,6
 317 375 317 375 255.5 392.5 c 128,-1,7
 194 410 194 410 156.5 451.5 c 128,-1,8
 119 493 119 493 119 557 c 0,9,10
 119 623 119 623 155.5 669.5 c 128,-1,11
 192 716 192 716 256 740.5 c 128,-1,12
 320 765 320 765 392 775.5 c 128,-1,13
 464 786 464 786 550 786 c 0,14,15
 826 786 826 786 1004 692 c 0,16,17
 1020 683 1020 683 1022 664 c 1,18,19
 1022 651 1022 651 1014 641 c 128,-1,20
 1006 631 1006 631 996 631 c 0,21,22
 990 631 990 631 988 633 c 0,23,24
 802 727 802 727 554 727 c 0,25,26
 482 727 482 727 421.5 718.5 c 128,-1,27
 361 710 361 710 309.5 691 c 128,-1,28
 258 672 258 672 228.5 638 c 128,-1,29
 199 604 199 604 199 557 c 0,30,31
 199 503 199 503 247 473 c 128,-1,32
 295 443 295 443 372 434 c 128,-1,33
 449 425 449 425 542 422.5 c 128,-1,34
 635 420 635 420 728.5 414 c 128,-1,35
 822 408 822 408 899 391 c 128,-1,36
 976 374 976 374 1024 328.5 c 128,-1,37
 1072 283 1072 283 1072 209 c 0,38,39
 1072 150 1072 150 1035 106.5 c 128,-1,40
 998 63 998 63 932.5 38 c 128,-1,41
 867 13 867 13 788.5 1.5 c 128,-1,42
 710 -10 710 -10 617 -10 c 0,43,44
 549 -10 549 -10 497.5 -7.5 c 128,-1,45
 446 -5 446 -5 378 4 c 128,-1,46
 310 13 310 13 253 34 c 128,-1,47
 196 55 196 55 155 87 c 0,48,49
 141 98 141 98 141 113 c 0,50,51
 141 126 141 126 148.5 135.5 c 128,-1,52
 156 145 156 145 167 145 c 0,53,54
 175 145 175 145 179 141 c 1,55,56
 257 88 257 88 360.5 68.5 c 128,-1,57
 464 49 464 49 607 49 c 0,58,59
 687 49 687 49 752.5 57 c 128,-1,60
 818 65 818 65 874 82.5 c 128,-1,61
 930 100 930 100 961 132 c 128,-1,62
 992 164 992 164 992 209 c 0,0,1
EndSplineSet
EndChar

StartChar: t
Encoding: 116 116 87
Width: 714
GlyphClass: 2
Flags: W
LayerCount: 2
Fore
SplineSet
265 751 m 1,0,-1
 597 751 l 2,1,2
 611 751 611 751 619 744 c 128,-1,3
 627 737 627 737 627 727 c 128,-1,4
 627 717 627 717 619 710 c 128,-1,5
 611 703 611 703 597 703 c 2,6,-1
 265 703 l 1,7,-1
 265 279 l 2,8,9
 265 209 265 209 279 161.5 c 128,-1,10
 293 114 293 114 321 90.5 c 128,-1,11
 349 67 349 67 380 58 c 128,-1,12
 411 49 411 49 454 49 c 0,13,14
 531 49 531 49 654 115 c 0,15,16
 666 121 666 121 677 121 c 0,17,18
 690 121 690 121 697.5 113.5 c 128,-1,19
 705 106 705 106 705 95 c 0,20,21
 705 75 705 75 683 63 c 0,22,23
 602 19 602 19 551.5 4.5 c 128,-1,24
 501 -10 501 -10 440 -10 c 0,25,26
 323 -10 323 -10 254 58 c 128,-1,27
 185 126 185 126 185 279 c 2,28,-1
 185 703 l 1,29,-1
 97 703 l 2,30,31
 84 703 84 703 76.5 710 c 128,-1,32
 69 717 69 717 69 727 c 128,-1,33
 69 737 69 737 76.5 744 c 128,-1,34
 84 751 84 751 97 751 c 2,35,-1
 185 751 l 1,36,-1
 185 1000 l 2,37,38
 185 1049 185 1049 225 1049 c 0,39,40
 245 1049 245 1049 255 1039.5 c 128,-1,41
 265 1030 265 1030 265 1000 c 2,42,-1
 265 751 l 1,0,-1
EndSplineSet
EndChar

StartChar: u
Encoding: 117 117 88
Width: 1178
GlyphClass: 2
Flags: W
LayerCount: 2
Fore
SplineSet
938 70 m 1,0,-1
 939 141 l 1,1,2
 809 -10 809 -10 545 -10 c 0,3,4
 332 -10 332 -10 239.5 74 c 128,-1,5
 147 158 147 158 147 348 c 2,6,-1
 147 694 l 2,7,8
 147 766 147 766 187 766 c 0,9,10
 205 766 205 766 214.5 754 c 128,-1,11
 224 742 224 742 225.5 729.5 c 128,-1,12
 227 717 227 717 227 694 c 2,13,-1
 227 348 l 2,14,15
 227 261 227 261 240.5 206.5 c 128,-1,16
 254 152 254 152 290.5 115.5 c 128,-1,17
 327 79 327 79 387.5 64 c 128,-1,18
 448 49 448 49 545 49 c 0,19,20
 770 49 770 49 939 178 c 1,21,-1
 939 694 l 2,22,23
 939 716 939 716 940.5 729 c 128,-1,24
 942 742 942 742 951 754 c 128,-1,25
 960 766 960 766 976 766 c 0,26,27
 1003 766 1003 766 1011 747 c 128,-1,28
 1019 728 1019 728 1019 694 c 2,29,-1
 1019 70 l 2,30,31
 1019 0 1019 0 981 0 c 0,32,33
 938 0 938 0 938 61 c 2,34,-1
 938 70 l 1,0,-1
EndSplineSet
EndChar

StartChar: v
Encoding: 118 118 89
Width: 1024
GlyphClass: 2
Flags: W
LayerCount: 2
Fore
SplineSet
512 -10 m 0,0,1
 482 -10 482 -10 461 29 c 1,2,-1
 71 695 l 2,3,4
 61 711 61 711 61 730 c 0,5,6
 61 746 61 746 70.5 756 c 128,-1,7
 80 766 80 766 95 766 c 0,8,9
 121 766 121 766 139 735 c 2,10,-1
 512 73 l 1,11,-1
 885 735 l 2,12,13
 903 766 903 766 929 766 c 0,14,15
 943 766 943 766 953 756 c 128,-1,16
 963 746 963 746 963 730 c 128,-1,17
 963 714 963 714 953 695 c 2,18,-1
 563 29 l 2,19,20
 540 -10 540 -10 512 -10 c 0,0,1
EndSplineSet
EndChar

StartChar: w
Encoding: 119 119 90
Width: 1356
GlyphClass: 2
Flags: W
LayerCount: 2
Fore
SplineSet
740 712 m 2,0,-1
 952 90 l 1,1,-1
 1164 726 l 1,2,3
 1179 766 1179 766 1209 766 c 0,4,5
 1225 766 1225 766 1237.5 753 c 128,-1,6
 1250 740 1250 740 1250 720 c 0,7,8
 1250 707 1250 707 1246 698 c 2,9,-1
 1010 49 l 2,10,11
 990 -5 990 -5 952 -5 c 0,12,13
 915 -5 915 -5 897 49 c 2,14,-1
 678 674 l 1,15,-1
 459 49 l 2,16,17
 440 -5 440 -5 404 -5 c 0,18,19
 366 -5 366 -5 346 49 c 2,20,-1
 110 698 l 2,21,22
 106 707 106 707 106 720 c 0,23,24
 106 740 106 740 118.5 753 c 128,-1,25
 131 766 131 766 147 766 c 0,26,27
 177 766 177 766 192 726 c 1,28,-1
 404 90 l 1,29,-1
 616 712 l 2,30,31
 634 766 634 766 677 766 c 0,32,33
 697 766 697 766 714 752 c 128,-1,34
 731 738 731 738 740 712 c 2,0,-1
EndSplineSet
EndChar

StartChar: x
Encoding: 120 120 91
Width: 1139
GlyphClass: 2
Flags: W
LayerCount: 2
Fore
SplineSet
624 387 m 1,0,-1
 971 70 l 2,1,2
 993 49 993 49 993 27 c 0,3,4
 993 14 993 14 984.5 5.5 c 128,-1,5
 976 -3 976 -3 963 -3 c 0,6,7
 942 -3 942 -3 921 17 c 2,8,-1
 570 337 l 1,9,-1
 219 17 l 2,10,11
 198 -3 198 -3 177 -3 c 0,12,13
 164 -3 164 -3 155 5.5 c 128,-1,14
 146 14 146 14 146 28 c 0,15,16
 146 48 146 48 169 70 c 2,17,-1
 516 387 l 1,18,-1
 165 698 l 2,19,20
 145 715 145 715 145 735 c 0,21,22
 145 748 145 748 154.5 757 c 128,-1,23
 164 766 164 766 178 766 c 0,24,25
 200 766 200 766 219 748 c 2,26,-1
 570 436 l 1,27,-1
 921 748 l 2,28,29
 942 766 942 766 961 766 c 0,30,31
 975 766 975 766 984.5 757 c 128,-1,32
 994 748 994 748 994 735 c 0,33,34
 994 716 994 716 975 698 c 2,35,-1
 624 387 l 1,0,-1
EndSplineSet
EndChar

StartChar: y
Encoding: 121 121 92
Width: 1170
GlyphClass: 2
Flags: W
LayerCount: 2
Fore
SplineSet
587 -275 m 0,0,1
 792 -275 792 -275 869 -179 c 128,-1,2
 946 -83 946 -83 946 170 c 1,3,4
 897 -10 897 -10 536 -10 c 0,5,6
 319 -10 319 -10 233 76.5 c 128,-1,7
 147 163 147 163 147 387 c 2,8,-1
 147 694 l 2,9,10
 147 716 147 716 149 729.5 c 128,-1,11
 151 743 151 743 160 754.5 c 128,-1,12
 169 766 169 766 186 766 c 0,13,14
 200 766 200 766 209 760 c 128,-1,15
 218 754 218 754 221.5 742.5 c 128,-1,16
 225 731 225 731 226 720.5 c 128,-1,17
 227 710 227 710 227 694 c 2,18,-1
 227 387 l 2,19,20
 227 285 227 285 239 223.5 c 128,-1,21
 251 162 251 162 286.5 121 c 128,-1,22
 322 80 322 80 380.5 64.5 c 128,-1,23
 439 49 439 49 536 49 c 0,24,25
 600 49 600 49 659.5 57.5 c 128,-1,26
 719 66 719 66 780 85.5 c 128,-1,27
 841 105 841 105 885.5 144.5 c 128,-1,28
 930 184 930 184 946 240 c 1,29,-1
 946 694 l 2,30,31
 946 766 946 766 984 766 c 0,32,33
 1010 766 1010 766 1018 747 c 128,-1,34
 1026 728 1026 728 1026 694 c 2,35,-1
 1026 203 l 2,36,37
 1026 -3 1026 -3 980.5 -120 c 128,-1,38
 935 -237 935 -237 841.5 -285.5 c 128,-1,39
 748 -334 748 -334 587 -334 c 0,40,41
 484 -334 484 -334 408.5 -317.5 c 128,-1,42
 333 -301 333 -301 303 -284.5 c 128,-1,43
 273 -268 273 -268 238 -240 c 0,44,45
 230 -233 230 -233 230 -221 c 0,46,47
 230 -188 230 -188 261 -188 c 0,48,49
 269 -188 269 -188 278 -194 c 0,50,51
 387 -275 387 -275 587 -275 c 0,0,1
EndSplineSet
EndChar

StartChar: z
Encoding: 122 122 93
Width: 1032
GlyphClass: 2
Flags: W
LayerCount: 2
Fore
SplineSet
867 0 m 2,0,-1
 151 0 l 2,1,2
 134 0 134 0 121.5 13 c 128,-1,3
 109 26 109 26 109 45 c 0,4,5
 109 71 109 71 135 94 c 2,6,-1
 820 699 l 1,7,-1
 173 699 l 2,8,9
 171 699 171 699 167 699 c 0,10,11
 143 699 143 699 132 700 c 128,-1,12
 121 701 121 701 110.5 708 c 128,-1,13
 100 715 100 715 100 730 c 0,14,15
 100 747 100 747 109.5 755.5 c 128,-1,16
 119 764 119 764 129.5 765 c 128,-1,17
 140 766 140 766 163 766 c 0,18,19
 168 766 168 766 171 766 c 2,20,-1
 875 766 l 2,21,22
 898 766 898 766 911.5 754 c 128,-1,23
 925 742 925 742 925 723 c 0,24,25
 925 698 925 698 901 677 c 2,26,-1
 211 67 l 1,27,-1
 865 67 l 2,28,29
 915 67 915 67 926.5 58.5 c 128,-1,30
 938 50 938 50 938 31 c 0,31,32
 938 16 938 16 927 9 c 128,-1,33
 916 2 916 2 905 1 c 128,-1,34
 894 0 894 0 873 0 c 0,35,36
 869 0 869 0 867 0 c 2,0,-1
EndSplineSet
EndChar

StartChar: braceleft
Encoding: 123 123 94
Width: 605
GlyphClass: 2
Flags: W
LayerCount: 2
Fore
SplineSet
42 782 m 0,0,1
 112 782 112 782 158 806 c 128,-1,2
 204 830 204 830 225 870 c 128,-1,3
 246 910 246 910 256 962 c 128,-1,4
 266 1014 266 1014 269 1072 c 128,-1,5
 272 1130 272 1130 276 1187.5 c 128,-1,6
 280 1245 280 1245 295 1297 c 128,-1,7
 310 1349 310 1349 338.5 1389 c 128,-1,8
 367 1429 367 1429 424.5 1453 c 128,-1,9
 482 1477 482 1477 566 1477 c 0,10,11
 582 1477 582 1477 590.5 1467 c 128,-1,12
 599 1457 599 1457 599 1444 c 0,13,14
 599 1413 599 1413 566 1413 c 2,15,-1
 549 1413 l 2,16,17
 476 1413 476 1413 432 1378 c 128,-1,18
 388 1343 388 1343 371.5 1286 c 128,-1,19
 355 1229 355 1229 348 1160.5 c 128,-1,20
 341 1092 341 1092 335 1022 c 128,-1,21
 329 952 329 952 314.5 893.5 c 128,-1,22
 300 835 300 835 259.5 795 c 128,-1,23
 219 755 219 755 151 750 c 1,24,25
 204 746 204 746 240.5 720.5 c 128,-1,26
 277 695 277 695 295 655.5 c 128,-1,27
 313 616 313 616 323 566 c 128,-1,28
 333 516 333 516 337 462 c 128,-1,29
 341 408 341 408 345 354 c 128,-1,30
 349 300 349 300 360.5 252 c 128,-1,31
 372 204 372 204 392 167 c 128,-1,32
 412 130 412 130 451.5 108 c 128,-1,33
 491 86 491 86 549 86 c 0,34,35
 552 86 552 86 558 86.5 c 128,-1,36
 564 87 564 87 568 87 c 0,37,38
 583 87 583 87 591 77.5 c 128,-1,39
 599 68 599 68 599 56 c 0,40,41
 599 42 599 42 590.5 32.5 c 128,-1,42
 582 23 582 23 566 23 c 0,43,44
 482 23 482 23 424.5 47 c 128,-1,45
 367 71 367 71 338.5 111 c 128,-1,46
 310 151 310 151 295 203 c 128,-1,47
 280 255 280 255 276 313 c 128,-1,48
 272 371 272 371 269 428.5 c 128,-1,49
 266 486 266 486 256 538 c 128,-1,50
 246 590 246 590 225 630 c 128,-1,51
 204 670 204 670 158 694 c 128,-1,52
 112 718 112 718 42 718 c 0,53,54
 26 718 26 718 17.5 727.5 c 128,-1,55
 9 737 9 737 9 750 c 128,-1,56
 9 763 9 763 17.5 772.5 c 128,-1,57
 26 782 26 782 42 782 c 0,0,1
EndSplineSet
EndChar

StartChar: bar
Encoding: 124 124 95
Width: 304
GlyphClass: 2
Flags: W
LayerCount: 2
Fore
SplineSet
188 1227 m 2,0,-1
 188 -63 l 2,1,2
 188 -78 188 -78 187.5 -85.5 c 128,-1,3
 187 -93 187 -93 185.5 -104 c 128,-1,4
 184 -115 184 -115 180.5 -120 c 128,-1,5
 177 -125 177 -125 170 -129 c 128,-1,6
 163 -133 163 -133 153 -133 c 0,7,8
 139 -133 139 -133 131 -128.5 c 128,-1,9
 123 -124 123 -124 120 -111.5 c 128,-1,10
 117 -99 117 -99 116.5 -92.5 c 128,-1,11
 116 -86 116 -86 116 -66 c 2,12,-1
 116 1225 l 2,13,14
 116 1227 116 1227 116 1230 c 0,15,16
 116 1254 116 1254 117 1265 c 128,-1,17
 118 1276 118 1276 126.5 1286 c 128,-1,18
 135 1296 135 1296 153 1296 c 0,19,20
 166 1296 166 1296 173.5 1291 c 128,-1,21
 181 1286 181 1286 184 1274 c 128,-1,22
 187 1262 187 1262 187.5 1253 c 128,-1,23
 188 1244 188 1244 188 1227 c 2,0,-1
EndSplineSet
EndChar

StartChar: braceright
Encoding: 125 125 96
Width: 605
GlyphClass: 2
Flags: W
LayerCount: 2
Fore
SplineSet
564 782 m 0,0,1
 580 782 580 782 588.5 772.5 c 128,-1,2
 597 763 597 763 597 750 c 128,-1,3
 597 737 597 737 588.5 727.5 c 128,-1,4
 580 718 580 718 564 718 c 0,5,6
 494 718 494 718 448 694 c 128,-1,7
 402 670 402 670 381 630 c 128,-1,8
 360 590 360 590 350 538 c 128,-1,9
 340 486 340 486 337 428 c 128,-1,10
 334 370 334 370 330 312.5 c 128,-1,11
 326 255 326 255 311 203 c 128,-1,12
 296 151 296 151 267.5 111 c 128,-1,13
 239 71 239 71 181.5 47 c 128,-1,14
 124 23 124 23 40 23 c 0,15,16
 24 23 24 23 15.5 32.5 c 128,-1,17
 7 42 7 42 7 56 c 0,18,19
 7 68 7 68 15 77.5 c 128,-1,20
 23 87 23 87 38 87 c 0,21,22
 42 87 42 87 48 86.5 c 128,-1,23
 54 86 54 86 57 86 c 0,24,25
 115 86 115 86 154.5 108 c 128,-1,26
 194 130 194 130 214 167 c 128,-1,27
 234 204 234 204 245.5 252 c 128,-1,28
 257 300 257 300 261 354 c 128,-1,29
 265 408 265 408 269 462 c 128,-1,30
 273 516 273 516 283 566 c 128,-1,31
 293 616 293 616 311 655.5 c 128,-1,32
 329 695 329 695 365.5 720.5 c 128,-1,33
 402 746 402 746 455 750 c 1,34,35
 387 755 387 755 346.5 795 c 128,-1,36
 306 835 306 835 291.5 893.5 c 128,-1,37
 277 952 277 952 271 1022 c 128,-1,38
 265 1092 265 1092 258 1160.5 c 128,-1,39
 251 1229 251 1229 234.5 1286 c 128,-1,40
 218 1343 218 1343 174 1378 c 128,-1,41
 130 1413 130 1413 57 1413 c 2,42,-1
 40 1413 l 2,43,44
 7 1413 7 1413 7 1444 c 0,45,46
 7 1457 7 1457 15.5 1467 c 128,-1,47
 24 1477 24 1477 40 1477 c 0,48,49
 124 1477 124 1477 181.5 1453 c 128,-1,50
 239 1429 239 1429 267.5 1389 c 128,-1,51
 296 1349 296 1349 311 1297 c 128,-1,52
 326 1245 326 1245 330 1187 c 128,-1,53
 334 1129 334 1129 337 1071.5 c 128,-1,54
 340 1014 340 1014 350 962 c 128,-1,55
 360 910 360 910 381 870 c 128,-1,56
 402 830 402 830 448 806 c 128,-1,57
 494 782 494 782 564 782 c 0,0,1
EndSplineSet
EndChar

StartChar: asciitilde
Encoding: 126 126 97
Width: 969
GlyphClass: 2
Flags: W
LayerCount: 2
Fore
SplineSet
668 475 m 0,0,1
 814 475 814 475 814 647 c 1,2,-1
 887 647 l 1,3,4
 887 573 887 573 864 521.5 c 128,-1,5
 841 470 841 470 804 446 c 128,-1,6
 767 422 767 422 734 412.5 c 128,-1,7
 701 403 701 403 668 403 c 0,8,9
 618 403 618 403 575.5 424.5 c 128,-1,10
 533 446 533 446 502.5 477 c 128,-1,11
 472 508 472 508 443.5 538.5 c 128,-1,12
 415 569 415 569 380 590.5 c 128,-1,13
 345 612 345 612 306 612 c 0,14,15
 160 612 160 612 160 440 c 1,16,-1
 89 440 l 1,17,18
 89 499 89 499 104.5 544.5 c 128,-1,19
 120 590 120 590 143.5 615.5 c 128,-1,20
 167 641 167 641 197.5 657.5 c 128,-1,21
 228 674 228 674 254 679 c 128,-1,22
 280 684 280 684 306 684 c 0,23,24
 356 684 356 684 398.5 662.5 c 128,-1,25
 441 641 441 641 471.5 610.5 c 128,-1,26
 502 580 502 580 530.5 549 c 128,-1,27
 559 518 559 518 594 496.5 c 128,-1,28
 629 475 629 475 668 475 c 0,0,1
EndSplineSet
EndChar

StartChar: exclamdown
Encoding: 161 161 98
Width: 328
GlyphClass: 2
Flags: W
LayerCount: 2
Fore
SplineSet
108 1054 m 0,0,1
 108 1079 108 1079 124 1094.5 c 128,-1,2
 140 1110 140 1110 166 1110 c 0,3,4
 191 1110 191 1110 208.5 1094 c 128,-1,5
 226 1078 226 1078 226 1054 c 0,6,7
 226 1028 226 1028 208.5 1011.5 c 128,-1,8
 191 995 191 995 166 995 c 0,9,10
 140 995 140 995 124 1011.5 c 128,-1,11
 108 1028 108 1028 108 1054 c 0,0,1
108 35 m 0,12,13
 108 37 108 37 140 850 c 0,14,15
 142 879 142 879 164 879 c 0,16,17
 187 879 187 879 189 850 c 2,18,-1
 221 37 l 2,19,20
 221 14 221 14 204.5 2 c 128,-1,21
 188 -10 188 -10 164 -10 c 128,-1,22
 140 -10 140 -10 124 1 c 128,-1,23
 108 12 108 12 108 35 c 0,12,13
EndSplineSet
EndChar

StartChar: cent
Encoding: 162 162 99
Width: 1132
GlyphClass: 2
Flags: W
LayerCount: 2
Fore
SplineSet
200 385 m 0,0,1
 200 214 200 214 294 135 c 128,-1,2
 388 56 388 56 586 49 c 1,3,-1
 586 726 l 1,4,5
 380 719 380 719 290 639 c 128,-1,6
 200 559 200 559 200 385 c 0,0,1
658 -9 m 1,7,-1
 658 -63 l 2,8,9
 658 -78 658 -78 657.5 -85.5 c 128,-1,10
 657 -93 657 -93 655.5 -104 c 128,-1,11
 654 -115 654 -115 650.5 -120 c 128,-1,12
 647 -125 647 -125 640 -129 c 128,-1,13
 633 -133 633 -133 623 -133 c 0,14,15
 609 -133 609 -133 601 -128.5 c 128,-1,16
 593 -124 593 -124 590 -111.5 c 128,-1,17
 587 -99 587 -99 586.5 -92.5 c 128,-1,18
 586 -86 586 -86 586 -66 c 2,19,-1
 586 -9 l 1,20,21
 476 -6 476 -6 394.5 14.5 c 128,-1,22
 313 35 313 35 249 79 c 128,-1,23
 185 123 185 123 152.5 199.5 c 128,-1,24
 120 276 120 276 120 385 c 0,25,26
 120 597 120 597 236 688 c 128,-1,27
 352 779 352 779 586 785 c 1,28,-1
 586 879 l 2,29,30
 586 881 586 881 586 884 c 0,31,32
 586 908 586 908 587 919 c 128,-1,33
 588 930 588 930 596.5 940 c 128,-1,34
 605 950 605 950 623 950 c 0,35,36
 636 950 636 950 643.5 945 c 128,-1,37
 651 940 651 940 654 928 c 128,-1,38
 657 916 657 916 657.5 907 c 128,-1,39
 658 898 658 898 658 881 c 2,40,-1
 658 785 l 1,41,42
 850 780 850 780 992 706 c 0,43,44
 1013 695 1013 695 1013 675 c 0,45,46
 1013 664 1013 664 1005.5 656.5 c 128,-1,47
 998 649 998 649 985 649 c 0,48,49
 976 649 976 649 964 654 c 0,50,51
 914 679 914 679 827 701 c 128,-1,52
 740 723 740 723 658 726 c 1,53,-1
 658 49 l 1,54,55
 742 53 742 53 828.5 75 c 128,-1,56
 915 97 915 97 964 122 c 0,57,58
 976 127 976 127 985 127 c 0,59,60
 998 127 998 127 1005.5 119.5 c 128,-1,61
 1013 112 1013 112 1013 101 c 0,62,63
 1013 81 1013 81 992 70 c 0,64,65
 850 -4 850 -4 658 -9 c 1,7,-1
EndSplineSet
EndChar

StartChar: sterling
Encoding: 163 163 100
Width: 987
GlyphClass: 2
Flags: W
LayerCount: 2
Fore
SplineSet
376 106 m 1,0,1
 302 129 302 129 232 129 c 0,2,3
 183 129 183 129 159 118 c 128,-1,4
 135 107 135 107 135 91 c 0,5,6
 135 54 135 54 229 54 c 0,7,8
 339 54 339 54 376 106 c 1,0,1
444 83 m 1,9,10
 414 36 414 36 356 13 c 128,-1,11
 298 -10 298 -10 232 -10 c 0,12,13
 149 -10 149 -10 105 19 c 128,-1,14
 61 48 61 48 61 90 c 128,-1,15
 61 132 61 132 105 162 c 128,-1,16
 149 192 149 192 232 192 c 0,17,18
 313 192 313 192 396 170 c 1,19,-1
 396 179 l 2,20,21
 396 219 396 219 344 521 c 1,22,-1
 134 521 l 2,23,24
 112 521 112 521 101 531.5 c 128,-1,25
 90 542 90 542 90 556 c 0,26,27
 90 571 90 571 101 581.5 c 128,-1,28
 112 592 112 592 134 592 c 2,29,-1
 334 592 l 1,30,-1
 315 753 l 2,31,32
 311 782 311 782 311 817 c 0,33,34
 311 977 311 977 399 1056 c 128,-1,35
 487 1135 487 1135 624 1135 c 0,36,37
 775 1135 775 1135 878 1060 c 0,38,39
 894 1048 894 1048 896 1025 c 1,40,41
 896 1013 896 1013 886 1005.5 c 128,-1,42
 876 998 876 998 863 998 c 0,43,44
 852 998 852 998 835 1010 c 1,45,46
 740 1070 740 1070 621 1070 c 0,47,48
 521 1070 521 1070 455 1007.5 c 128,-1,49
 389 945 389 945 389 816 c 0,50,51
 389 792 389 792 392 763 c 2,52,-1
 411 592 l 1,53,-1
 703 592 l 2,54,55
 718 592 718 592 725.5 591.5 c 128,-1,56
 733 591 733 591 744 589.5 c 128,-1,57
 755 588 755 588 760 584.5 c 128,-1,58
 765 581 765 581 769 574 c 128,-1,59
 773 567 773 567 773 557 c 0,60,61
 773 540 773 540 763 532 c 128,-1,62
 753 524 753 524 740.5 522.5 c 128,-1,63
 728 521 728 521 703 521 c 2,64,-1
 421 521 l 1,65,66
 472 224 472 224 472 183 c 0,67,68
 472 164 472 164 469 148 c 1,69,70
 476 146 476 146 513 133.5 c 128,-1,71
 550 121 550 121 561.5 117 c 128,-1,72
 573 113 573 113 606.5 103 c 128,-1,73
 640 93 640 93 660.5 89.5 c 128,-1,74
 681 86 681 86 713 80.5 c 128,-1,75
 745 75 745 75 776.5 73 c 128,-1,76
 808 71 808 71 842 71 c 0,77,78
 879 71 879 71 895.5 64.5 c 128,-1,79
 912 58 912 58 912 36 c 0,80,81
 912 23 912 23 907.5 15.5 c 128,-1,82
 903 8 903 8 892 4.5 c 128,-1,83
 881 1 881 1 872 0.5 c 128,-1,84
 863 0 863 0 844 0 c 0,85,86
 761 0 761 0 682.5 13.5 c 128,-1,87
 604 27 604 27 569.5 38 c 128,-1,88
 535 49 535 49 464 76 c 0,89,90
 460 77 460 77 458.5 77.5 c 128,-1,91
 457 78 457 78 454 79 c 128,-1,92
 451 80 451 80 448.5 81 c 128,-1,93
 446 82 446 82 444 83 c 1,9,10
EndSplineSet
EndChar

StartChar: currency
Encoding: 164 164 101
Width: 958
GlyphClass: 2
Flags: W
LayerCount: 2
Fore
SplineSet
781 748 m 0,0,1
 781 868 781 868 693 954.5 c 128,-1,2
 605 1041 605 1041 480 1041 c 0,3,4
 354 1041 354 1041 266 956 c 128,-1,5
 178 871 178 871 178 748 c 0,6,7
 178 628 178 628 267 541 c 128,-1,8
 356 454 356 454 480 454 c 0,9,10
 605 454 605 454 693 540.5 c 128,-1,11
 781 627 781 627 781 748 c 0,0,1
786 494 m 0,12,13
 813 474 813 474 839.5 447 c 128,-1,14
 866 420 866 420 866 410 c 1,15,-1
 860 395 l 1,16,-1
 848 385 l 2,17,18
 842 379 842 379 835 379 c 1,19,-1
 817 385 l 1,20,-1
 727 469 l 1,21,22
 622 381 622 381 479 381 c 128,-1,23
 336 381 336 381 231 469 c 1,24,-1
 215 453 l 2,25,26
 141 379 141 379 125 379 c 1,27,-1
 108 385 l 1,28,29
 92 398 92 398 92 410 c 1,30,31
 103 427 103 427 135 457 c 2,32,-1
 188 508 l 1,33,34
 96 615 96 615 96 748 c 0,35,36
 96 894 96 894 188 987 c 1,37,38
 168 1000 168 1000 130 1037 c 128,-1,39
 92 1074 92 1074 92 1087 c 1,40,-1
 98 1102 l 1,41,42
 114 1118 114 1118 125 1118 c 1,43,-1
 141 1112 l 1,44,-1
 231 1028 l 1,45,46
 336 1116 336 1116 479 1116 c 128,-1,47
 622 1116 622 1116 727 1028 c 1,48,49
 817 1118 817 1118 835 1118 c 1,50,-1
 840 1115 l 2,51,52
 846 1112 846 1112 851.5 1109 c 128,-1,53
 857 1106 857 1106 861.5 1100 c 128,-1,54
 866 1094 866 1094 866 1087 c 1,55,-1
 860 1071 l 1,56,-1
 770 987 l 1,57,58
 862 894 862 894 862 748 c 0,59,60
 862 621 862 621 788 530 c 2,61,-1
 770 508 l 1,62,63
 773 507 773 507 775 505 c 128,-1,64
 777 503 777 503 780 500 c 128,-1,65
 783 497 783 497 786 494 c 0,12,13
EndSplineSet
EndChar

StartChar: yen
Encoding: 165 165 102
Width: 1165
GlyphClass: 2
Flags: W
LayerCount: 2
Fore
SplineSet
908 467 m 128,-1,1
 908 438 908 438 883 438 c 2,2,-1
 626 438 l 1,3,-1
 626 69 l 2,4,5
 626 0 626 0 586 0 c 0,6,7
 541 0 541 0 541 67 c 2,8,-1
 541 438 l 1,9,-1
 278 438 l 2,10,11
 254 438 254 438 254 467 c 128,-1,12
 254 496 254 496 278 496 c 2,13,-1
 522 496 l 1,14,-1
 454 577 l 1,15,-1
 280 577 l 2,16,17
 256 577 256 577 256 606 c 128,-1,18
 256 635 256 635 280 635 c 2,19,-1
 405 635 l 1,20,-1
 67 1040 l 2,21,22
 50 1060 50 1060 50 1080 c 0,23,24
 50 1095 50 1095 59.5 1104.5 c 128,-1,25
 69 1114 69 1114 83 1114 c 0,26,27
 105 1114 105 1114 126 1089 c 2,28,-1
 583 535 l 1,29,-1
 1040 1089 l 2,30,31
 1060 1113 1060 1113 1082 1113 c 0,32,33
 1115 1113 1115 1113 1115 1077 c 0,34,35
 1115 1060 1115 1060 1098 1040 c 2,36,-1
 761 635 l 1,37,-1
 885 635 l 2,38,39
 910 635 910 635 910 606 c 128,-1,40
 910 577 910 577 885 577 c 2,41,-1
 713 577 l 1,42,-1
 646 496 l 1,43,-1
 883 496 l 2,44,0
 908 496 908 496 908 467 c 128,-1,1
EndSplineSet
EndChar

StartChar: brokenbar
Encoding: 166 166 103
Width: 307
GlyphClass: 2
Flags: W
LayerCount: 2
Fore
SplineSet
189 475 m 2,0,-1
 189 -57 l 2,1,2
 189 -82 189 -82 188 -93.5 c 128,-1,3
 187 -105 187 -105 179.5 -116 c 128,-1,4
 172 -127 172 -127 156 -127 c 0,5,6
 142 -127 142 -127 133.5 -122 c 128,-1,7
 125 -117 125 -117 121.5 -105.5 c 128,-1,8
 118 -94 118 -94 117.5 -85.5 c 128,-1,9
 117 -77 117 -77 117 -59 c 2,10,-1
 117 473 l 2,11,12
 117 492 117 492 117.5 501.5 c 128,-1,13
 118 511 118 511 121.5 523 c 128,-1,14
 125 535 125 535 133.5 540 c 128,-1,15
 142 545 142 545 156 545 c 0,16,17
 171 545 171 545 179 533.5 c 128,-1,18
 187 522 187 522 188 510 c 128,-1,19
 189 498 189 498 189 475 c 2,0,-1
189 1227 m 2,20,-1
 189 694 l 2,21,22
 189 669 189 669 188 657.5 c 128,-1,23
 187 646 187 646 179.5 635.5 c 128,-1,24
 172 625 172 625 156 625 c 0,25,26
 142 625 142 625 133.5 630 c 128,-1,27
 125 635 125 635 121.5 646 c 128,-1,28
 118 657 118 657 117.5 666 c 128,-1,29
 117 675 117 675 117 692 c 2,30,-1
 117 1225 l 2,31,32
 117 1244 117 1244 117.5 1253.5 c 128,-1,33
 118 1263 118 1263 121.5 1274.5 c 128,-1,34
 125 1286 125 1286 133.5 1291 c 128,-1,35
 142 1296 142 1296 156 1296 c 0,36,37
 168 1296 168 1296 175 1291 c 128,-1,38
 182 1286 182 1286 185 1274 c 128,-1,39
 188 1262 188 1262 188.5 1253 c 128,-1,40
 189 1244 189 1244 189 1227 c 2,20,-1
EndSplineSet
EndChar

StartChar: section
Encoding: 167 167 104
Width: 1108
GlyphClass: 2
Flags: W
LayerCount: 2
Fore
SplineSet
954 574 m 0,0,1
 954 614 954 614 929.5 641.5 c 128,-1,2
 905 669 905 669 868.5 683.5 c 128,-1,3
 832 698 832 698 772.5 706 c 128,-1,4
 713 714 713 714 660.5 716.5 c 128,-1,5
 608 719 608 719 534 721 c 0,6,7
 525 721 525 721 521 721 c 0,8,9
 161 721 161 721 161 557 c 0,10,11
 161 512 161 512 188 484.5 c 128,-1,12
 215 457 215 457 281.5 444 c 128,-1,13
 348 431 348 431 394 427.5 c 128,-1,14
 440 424 440 424 541 421 c 0,15,16
 578 420 578 420 597 419 c 1,17,18
 954 425 954 425 954 574 c 0,0,1
954 209 m 0,19,20
 954 260 954 260 916.5 291.5 c 128,-1,21
 879 323 879 323 817.5 333.5 c 128,-1,22
 756 344 756 344 677.5 350.5 c 128,-1,23
 599 357 599 357 517.5 356.5 c 128,-1,24
 436 356 436 356 357.5 365.5 c 128,-1,25
 279 375 279 375 217.5 392.5 c 128,-1,26
 156 410 156 410 118.5 451.5 c 128,-1,27
 81 493 81 493 81 557 c 0,28,29
 81 693 81 693 250 748 c 1,30,31
 81 789 81 789 81 922 c 0,32,33
 81 988 81 988 117.5 1034.5 c 128,-1,34
 154 1081 154 1081 218 1105.5 c 128,-1,35
 282 1130 282 1130 354 1140.5 c 128,-1,36
 426 1151 426 1151 512 1151 c 0,37,38
 788 1151 788 1151 966 1057 c 0,39,40
 982 1048 982 1048 984 1029 c 1,41,42
 984 1016 984 1016 976 1006 c 128,-1,43
 968 996 968 996 958 996 c 0,44,45
 952 996 952 996 950 998 c 0,46,47
 764 1092 764 1092 516 1092 c 0,48,49
 444 1092 444 1092 383.5 1083.5 c 128,-1,50
 323 1075 323 1075 271.5 1056 c 128,-1,51
 220 1037 220 1037 190.5 1003 c 128,-1,52
 161 969 161 969 161 922 c 0,53,54
 161 868 161 868 209 838 c 128,-1,55
 257 808 257 808 334 799 c 128,-1,56
 411 790 411 790 504 787.5 c 128,-1,57
 597 785 597 785 690.5 779 c 128,-1,58
 784 773 784 773 861 756 c 128,-1,59
 938 739 938 739 986 693.5 c 128,-1,60
 1034 648 1034 648 1034 574 c 0,61,62
 1034 446 1034 446 853 392 c 1,63,64
 1034 351 1034 351 1034 209 c 0,65,66
 1034 150 1034 150 997 106.5 c 128,-1,67
 960 63 960 63 894.5 38 c 128,-1,68
 829 13 829 13 750.5 1.5 c 128,-1,69
 672 -10 672 -10 579 -10 c 0,70,71
 511 -10 511 -10 459.5 -7.5 c 128,-1,72
 408 -5 408 -5 340 4 c 128,-1,73
 272 13 272 13 215 34 c 128,-1,74
 158 55 158 55 117 87 c 0,75,76
 103 98 103 98 103 113 c 0,77,78
 103 126 103 126 110.5 135.5 c 128,-1,79
 118 145 118 145 129 145 c 0,80,81
 137 145 137 145 141 141 c 1,82,83
 219 88 219 88 322.5 68.5 c 128,-1,84
 426 49 426 49 569 49 c 0,85,86
 649 49 649 49 714.5 57 c 128,-1,87
 780 65 780 65 836 82.5 c 128,-1,88
 892 100 892 100 923 132 c 128,-1,89
 954 164 954 164 954 209 c 0,19,20
EndSplineSet
EndChar

StartChar: dieresis
Encoding: 168 168 105
Width: 723
GlyphClass: 2
Flags: W
LayerCount: 2
Fore
SplineSet
526 996 m 0,0,1
 526 1022 526 1022 542 1038.5 c 128,-1,2
 558 1055 558 1055 584 1055 c 0,3,4
 609 1055 609 1055 626.5 1038.5 c 128,-1,5
 644 1022 644 1022 644 996 c 0,6,7
 644 972 644 972 626.5 956 c 128,-1,8
 609 940 609 940 584 940 c 0,9,10
 558 940 558 940 542 955.5 c 128,-1,11
 526 971 526 971 526 996 c 0,0,1
87 996 m 0,12,13
 87 1022 87 1022 103 1038.5 c 128,-1,14
 119 1055 119 1055 145 1055 c 0,15,16
 170 1055 170 1055 187.5 1038.5 c 128,-1,17
 205 1022 205 1022 205 996 c 0,18,19
 205 972 205 972 187.5 956 c 128,-1,20
 170 940 170 940 145 940 c 0,21,22
 119 940 119 940 103 955.5 c 128,-1,23
 87 971 87 971 87 996 c 0,12,13
EndSplineSet
EndChar

StartChar: copyright
Encoding: 169 169 106
Width: 1181
GlyphClass: 2
Flags: W
LayerCount: 2
Fore
SplineSet
1106 556 m 128,-1,1
 1106 467 1106 467 1077 390.5 c 128,-1,2
 1048 314 1048 314 998.5 260 c 128,-1,3
 949 206 949 206 883 167.5 c 128,-1,4
 817 129 817 129 742.5 110.5 c 128,-1,5
 668 92 668 92 590 92 c 128,-1,6
 512 92 512 92 438 110.5 c 128,-1,7
 364 129 364 129 298 167.5 c 128,-1,8
 232 206 232 206 182.5 260 c 128,-1,9
 133 314 133 314 104 390.5 c 128,-1,10
 75 467 75 467 75 556 c 128,-1,11
 75 645 75 645 104 721.5 c 128,-1,12
 133 798 133 798 182.5 852 c 128,-1,13
 232 906 232 906 298 944.5 c 128,-1,14
 364 983 364 983 438 1001.5 c 128,-1,15
 512 1020 512 1020 590 1020 c 128,-1,16
 668 1020 668 1020 742.5 1001.5 c 128,-1,17
 817 983 817 983 883 944.5 c 128,-1,18
 949 906 949 906 998.5 852 c 128,-1,19
 1048 798 1048 798 1077 721.5 c 128,-1,0
 1106 645 1106 645 1106 556 c 128,-1,1
1040 556 m 128,-1,21
 1040 653 1040 653 1002 731 c 128,-1,22
 964 809 964 809 900.5 858 c 128,-1,23
 837 907 837 907 758 933 c 128,-1,24
 679 959 679 959 594 959 c 128,-1,25
 509 959 509 959 430 933 c 128,-1,26
 351 907 351 907 287.5 858 c 128,-1,27
 224 809 224 809 186 731 c 128,-1,28
 148 653 148 653 148 556 c 128,-1,29
 148 459 148 459 186 381 c 128,-1,30
 224 303 224 303 287.5 254 c 128,-1,31
 351 205 351 205 430 179 c 128,-1,32
 509 153 509 153 594 153 c 128,-1,33
 679 153 679 153 758 179 c 128,-1,34
 837 205 837 205 900.5 254 c 128,-1,35
 964 303 964 303 1002 381 c 128,-1,20
 1040 459 1040 459 1040 556 c 128,-1,21
248 556 m 128,-1,37
 248 636 248 636 275.5 698 c 128,-1,38
 303 760 303 760 350.5 797 c 128,-1,39
 398 834 398 834 456.5 852.5 c 128,-1,40
 515 871 515 871 581 871 c 0,41,42
 717 871 717 871 827 806 c 0,43,44
 841 798 841 798 841 782 c 0,45,46
 841 770 841 770 832.5 760 c 128,-1,47
 824 750 824 750 813 750 c 0,48,49
 804 750 804 750 800 754 c 1,50,51
 705 811 705 811 586 811 c 0,52,53
 532 811 532 811 485 796.5 c 128,-1,54
 438 782 438 782 399.5 753 c 128,-1,55
 361 724 361 724 338.5 673 c 128,-1,56
 316 622 316 622 316 556 c 128,-1,57
 316 490 316 490 338.5 439 c 128,-1,58
 361 388 361 388 399.5 359 c 128,-1,59
 438 330 438 330 485 315.5 c 128,-1,60
 532 301 532 301 586 301 c 0,61,62
 705 301 705 301 800 358 c 1,63,64
 804 362 804 362 813 362 c 0,65,66
 824 362 824 362 832.5 352 c 128,-1,67
 841 342 841 342 841 330 c 0,68,69
 841 314 841 314 827 306 c 0,70,71
 717 241 717 241 581 241 c 0,72,73
 514 241 514 241 456 259.5 c 128,-1,74
 398 278 398 278 350.5 315 c 128,-1,75
 303 352 303 352 275.5 414 c 128,-1,36
 248 476 248 476 248 556 c 128,-1,37
EndSplineSet
EndChar

StartChar: ordfeminine
Encoding: 170 170 107
Width: 1191
GlyphClass: 2
Flags: W
LayerCount: 2
Fore
SplineSet
639 1063 m 0,0,1
 378 1063 378 1063 227 1012 c 0,2,3
 221 1010 221 1010 219 1010 c 0,4,5
 207 1010 207 1010 197 1022 c 128,-1,6
 187 1034 187 1034 187 1048 c 0,7,8
 187 1061 187 1061 199 1067 c 0,9,10
 217 1076 217 1076 257.5 1086.5 c 128,-1,11
 298 1097 298 1097 403.5 1109.5 c 128,-1,12
 509 1122 509 1122 640 1122 c 0,13,14
 707 1122 707 1122 761 1113 c 128,-1,15
 815 1104 815 1104 870 1076 c 128,-1,16
 925 1048 925 1048 961.5 1002.5 c 128,-1,17
 998 957 998 957 1021 878.5 c 128,-1,18
 1044 800 1044 800 1044 694 c 2,19,-1
 1044 406 l 2,20,21
 1044 336 1044 336 1003 336 c 0,22,23
 963 336 963 336 963 410 c 2,24,-1
 963 479 l 1,25,26
 842 326 842 326 552 326 c 0,27,28
 364 326 364 326 249 383.5 c 128,-1,29
 134 441 134 441 134 560 c 0,30,31
 134 813 134 813 532 813 c 0,32,33
 665 813 665 813 783 795.5 c 128,-1,34
 901 778 901 778 963 745 c 1,35,36
 963 824 963 824 945 882 c 128,-1,37
 927 940 927 940 898 974 c 128,-1,38
 869 1008 869 1008 825.5 1028.5 c 128,-1,39
 782 1049 782 1049 738.5 1056 c 128,-1,40
 695 1063 695 1063 639 1063 c 0,0,1
214 560 m 0,41,42
 214 469 214 469 302.5 427 c 128,-1,43
 391 385 391 385 544 385 c 0,44,45
 822 385 822 385 963 514 c 1,46,-1
 963 715 l 1,47,48
 681 754 681 754 540 754 c 0,49,50
 376 754 376 754 295 711.5 c 128,-1,51
 214 669 214 669 214 560 c 0,41,42
302 259 m 2,52,-1
 843 259 l 2,53,54
 852 259 852 259 858.5 252 c 128,-1,55
 865 245 865 245 865 235 c 128,-1,56
 865 225 865 225 858.5 218 c 128,-1,57
 852 211 852 211 843 211 c 2,58,-1
 302 211 l 2,59,60
 293 211 293 211 286.5 218 c 128,-1,61
 280 225 280 225 280 235 c 128,-1,62
 280 245 280 245 286.5 252 c 128,-1,63
 293 259 293 259 302 259 c 2,52,-1
EndSplineSet
EndChar

StartChar: guillemotleft
Encoding: 171 171 108
Width: 646
GlyphClass: 2
Flags: W
LayerCount: 2
Fore
SplineSet
57 367 m 2,0,-1
 298 619 l 2,1,2
 310 631 310 631 325 631 c 128,-1,3
 340 631 340 631 351.5 620.5 c 128,-1,4
 363 610 363 610 363 596 c 128,-1,5
 363 582 363 582 352 571 c 2,6,-1
 114 334 l 1,7,-1
 352 97 l 2,8,9
 364 85 364 85 364 72 c 0,10,11
 364 58 364 58 352 47.5 c 128,-1,12
 340 37 340 37 325 37 c 128,-1,13
 310 37 310 37 298 49 c 2,14,-1
 57 301 l 2,15,16
 40 318 40 318 40 335 c 1,17,18
 42 352 42 352 57 367 c 2,0,-1
256 367 m 2,19,-1
 497 619 l 2,20,21
 509 631 509 631 524 631 c 128,-1,22
 539 631 539 631 550.5 620.5 c 128,-1,23
 562 610 562 610 562 596 c 128,-1,24
 562 582 562 582 551 571 c 2,25,-1
 313 334 l 1,26,-1
 551 97 l 2,27,28
 563 85 563 85 563 72 c 0,29,30
 563 58 563 58 551 47.5 c 128,-1,31
 539 37 539 37 524 37 c 128,-1,32
 509 37 509 37 497 49 c 2,33,-1
 256 301 l 2,34,35
 239 318 239 318 239 335 c 1,36,37
 241 352 241 352 256 367 c 2,19,-1
EndSplineSet
EndChar

StartChar: logicalnot
Encoding: 172 172 109
Width: 731
GlyphClass: 2
Flags: W
LayerCount: 2
Fore
SplineSet
164 504 m 2,0,-1
 596 504 l 2,1,2
 623 504 623 504 623 482 c 2,3,-1
 623 481 l 1,4,-1
 623 327 l 2,5,6
 623 300 623 300 600 300 c 0,7,8
 578 300 578 300 578 327 c 2,9,-1
 578 459 l 1,10,-1
 164 459 l 2,11,12
 137 459 137 459 137 481 c 0,13,14
 137 504 137 504 164 504 c 2,0,-1
EndSplineSet
EndChar

StartChar: uni00AD
Encoding: 173 173 110
Width: 827
GlyphClass: 2
Flags: W
LayerCount: 2
Fore
SplineSet
197 518 m 2,0,-1
 556 518 l 2,1,2
 569 518 569 518 576 506.5 c 128,-1,3
 583 495 583 495 583 480 c 0,4,5
 583 466 583 466 576 455 c 128,-1,6
 569 444 569 444 556 444 c 2,7,-1
 197 444 l 2,8,9
 184 444 184 444 177 455 c 128,-1,10
 170 466 170 466 170 480 c 0,11,12
 170 495 170 495 177 506.5 c 128,-1,13
 184 518 184 518 197 518 c 2,0,-1
EndSplineSet
EndChar

StartChar: registered
Encoding: 174 174 111
Width: 1181
GlyphClass: 2
Flags: W
LayerCount: 2
Fore
SplineSet
1106 556 m 128,-1,1
 1106 467 1106 467 1077 390.5 c 128,-1,2
 1048 314 1048 314 998.5 260 c 128,-1,3
 949 206 949 206 883 167.5 c 128,-1,4
 817 129 817 129 742.5 110.5 c 128,-1,5
 668 92 668 92 590 92 c 128,-1,6
 512 92 512 92 438 110.5 c 128,-1,7
 364 129 364 129 298 167.5 c 128,-1,8
 232 206 232 206 182.5 260 c 128,-1,9
 133 314 133 314 104 390.5 c 128,-1,10
 75 467 75 467 75 556 c 128,-1,11
 75 645 75 645 104 721.5 c 128,-1,12
 133 798 133 798 182.5 852 c 128,-1,13
 232 906 232 906 298 944.5 c 128,-1,14
 364 983 364 983 438 1001.5 c 128,-1,15
 512 1020 512 1020 590 1020 c 128,-1,16
 668 1020 668 1020 742.5 1001.5 c 128,-1,17
 817 983 817 983 883 944.5 c 128,-1,18
 949 906 949 906 998.5 852 c 128,-1,19
 1048 798 1048 798 1077 721.5 c 128,-1,0
 1106 645 1106 645 1106 556 c 128,-1,1
1040 556 m 128,-1,21
 1040 653 1040 653 1002 731 c 128,-1,22
 964 809 964 809 900.5 858 c 128,-1,23
 837 907 837 907 758 933 c 128,-1,24
 679 959 679 959 594 959 c 128,-1,25
 509 959 509 959 430 933 c 128,-1,26
 351 907 351 907 287.5 858 c 128,-1,27
 224 809 224 809 186 731 c 128,-1,28
 148 653 148 653 148 556 c 128,-1,29
 148 459 148 459 186 381 c 128,-1,30
 224 303 224 303 287.5 254 c 128,-1,31
 351 205 351 205 430 179 c 128,-1,32
 509 153 509 153 594 153 c 128,-1,33
 679 153 679 153 758 179 c 128,-1,34
 837 205 837 205 900.5 254 c 128,-1,35
 964 303 964 303 1002 381 c 128,-1,20
 1040 459 1040 459 1040 556 c 128,-1,21
819 674 m 0,36,37
 819 697 819 697 814.5 716 c 128,-1,38
 810 735 810 735 805 749 c 128,-1,39
 800 763 800 763 786.5 773.5 c 128,-1,40
 773 784 773 784 763.5 791 c 128,-1,41
 754 798 754 798 731 803 c 128,-1,42
 708 808 708 808 695 810 c 128,-1,43
 682 812 682 812 651 813.5 c 128,-1,44
 620 815 620 815 603.5 815 c 128,-1,45
 587 815 587 815 548 815 c 0,46,47
 534 815 534 815 527 815 c 2,48,-1
 430 815 l 1,49,-1
 430 542 l 1,50,-1
 601 542 l 2,51,52
 638 542 638 542 656.5 542.5 c 128,-1,53
 675 543 675 543 706 546.5 c 128,-1,54
 737 550 737 550 753 558.5 c 128,-1,55
 769 567 769 567 786.5 581 c 128,-1,56
 804 595 804 595 811.5 618.5 c 128,-1,57
 819 642 819 642 819 674 c 0,36,37
887 674 m 0,58,59
 887 625 887 625 865 587.5 c 128,-1,60
 843 550 843 550 808.5 531.5 c 128,-1,61
 774 513 774 513 740 504 c 128,-1,62
 706 495 706 495 674 495 c 1,63,-1
 837 304 l 2,64,65
 844 296 844 296 844 285 c 0,66,67
 844 273 844 273 834 263.5 c 128,-1,68
 824 254 824 254 811 254 c 0,69,70
 796 254 796 254 785 268 c 2,71,-1
 601 493 l 1,72,-1
 430 493 l 1,73,-1
 430 290 l 2,74,75
 430 272 430 272 420 262 c 128,-1,76
 410 252 410 252 396 252 c 0,77,78
 383 252 383 252 373 262 c 128,-1,79
 363 272 363 272 363 290 c 2,80,-1
 363 830 l 2,81,82
 363 865 363 865 396 865 c 2,83,-1
 527 865 l 2,84,85
 528 865 528 865 530 865 c 0,86,87
 574 865 574 865 595.5 865 c 128,-1,88
 617 865 617 865 655 863 c 128,-1,89
 693 861 693 861 712 858 c 128,-1,90
 731 855 731 855 760.5 848.5 c 128,-1,91
 790 842 790 842 804.5 832.5 c 128,-1,92
 819 823 819 823 838 808.5 c 128,-1,93
 857 794 857 794 865.5 775 c 128,-1,94
 874 756 874 756 880.5 730.5 c 128,-1,95
 887 705 887 705 887 674 c 0,58,59
EndSplineSet
EndChar

StartChar: macron
Encoding: 175 175 112
Width: 677
GlyphClass: 2
Flags: W
LayerCount: 2
Fore
SplineSet
162 981 m 2,0,-1
 514 981 l 2,1,2
 527 981 527 981 534 972 c 128,-1,3
 541 963 541 963 541 952 c 0,4,5
 541 942 541 942 534 934 c 128,-1,6
 527 926 527 926 514 926 c 2,7,-1
 162 926 l 2,8,9
 149 926 149 926 142 934 c 128,-1,10
 135 942 135 942 135 952 c 0,11,12
 135 963 135 963 142 972 c 128,-1,13
 149 981 149 981 162 981 c 2,0,-1
EndSplineSet
EndChar

StartChar: degree
Encoding: 176 176 113
Width: 367
GlyphClass: 2
Flags: W
LayerCount: 2
Fore
SplineSet
117 997 m 0,0,1
 117 971 117 971 136.5 951.5 c 128,-1,2
 156 932 156 932 184 932 c 128,-1,3
 212 932 212 932 232 951.5 c 128,-1,4
 252 971 252 971 252 997 c 0,5,6
 252 1024 252 1024 232 1042.5 c 128,-1,7
 212 1061 212 1061 184 1061 c 128,-1,8
 156 1061 156 1061 136.5 1042.5 c 128,-1,9
 117 1024 117 1024 117 997 c 0,0,1
301 997 m 128,-1,11
 301 949 301 949 266.5 917 c 128,-1,12
 232 885 232 885 184 885 c 128,-1,13
 136 885 136 885 101 917.5 c 128,-1,14
 66 950 66 950 66 997 c 0,15,16
 66 1045 66 1045 100 1077.5 c 128,-1,17
 134 1110 134 1110 184 1110 c 0,18,19
 232 1110 232 1110 266.5 1077.5 c 128,-1,10
 301 1045 301 1045 301 997 c 128,-1,11
EndSplineSet
EndChar

StartChar: plusminus
Encoding: 177 177 114
Width: 829
GlyphClass: 2
Flags: W
LayerCount: 2
Fore
SplineSet
123 54 m 2,0,-1
 706 54 l 2,1,2
 742 54 742 54 742 26 c 0,3,4
 742 15 742 15 733 7.5 c 128,-1,5
 724 0 724 0 706 0 c 2,6,-1
 123 0 l 2,7,8
 105 0 105 0 96 7.5 c 128,-1,9
 87 15 87 15 87 26 c 0,10,11
 87 54 87 54 123 54 c 2,0,-1
123 511 m 2,12,-1
 384 511 l 1,13,-1
 384 742 l 2,14,15
 384 775 384 775 414 775 c 0,16,17
 426 775 426 775 435 766.5 c 128,-1,18
 444 758 444 758 444 742 c 2,19,-1
 444 511 l 1,20,-1
 706 511 l 2,21,22
 742 511 742 511 742 483 c 0,23,24
 742 472 742 472 733 464.5 c 128,-1,25
 724 457 724 457 706 457 c 2,26,-1
 444 457 l 1,27,-1
 444 224 l 2,28,29
 444 192 444 192 414 192 c 128,-1,30
 384 192 384 192 384 224 c 2,31,-1
 384 457 l 1,32,-1
 123 457 l 2,33,34
 105 457 105 457 96 464.5 c 128,-1,35
 87 472 87 472 87 483 c 0,36,37
 87 511 87 511 123 511 c 2,12,-1
EndSplineSet
EndChar

StartChar: uni00B2
Encoding: 178 178 115
Width: 925
GlyphClass: 2
Flags: W
LayerCount: 2
Fore
SplineSet
247 994 m 0,0,1
 238 991 238 991 230 991 c 0,2,3
 213 991 213 991 203 1001 c 128,-1,4
 193 1011 193 1011 193 1024 c 0,5,6
 193 1048 193 1048 224 1058 c 0,7,8
 398 1114 398 1114 524 1114 c 0,9,10
 583 1114 583 1114 632.5 1102.5 c 128,-1,11
 682 1091 682 1091 724 1065 c 128,-1,12
 766 1039 766 1039 789.5 992 c 128,-1,13
 813 945 813 945 813 879 c 0,14,15
 813 818 813 818 781.5 767 c 128,-1,16
 750 716 750 716 700 680.5 c 128,-1,17
 650 645 650 645 589 615 c 128,-1,18
 528 585 528 585 467 560.5 c 128,-1,19
 406 536 406 536 356 512.5 c 128,-1,20
 306 489 306 489 274.5 460 c 128,-1,21
 243 431 243 431 243 399 c 1,22,-1
 749 399 l 2,23,24
 771 399 771 399 782.5 388.5 c 128,-1,25
 794 378 794 378 794 363 c 128,-1,26
 794 348 794 348 782.5 337.5 c 128,-1,27
 771 327 771 327 749 327 c 2,28,-1
 198 327 l 2,29,30
 180 327 180 327 171 349.5 c 128,-1,31
 162 372 162 372 162 400 c 0,32,33
 162 444 162 444 193.5 481.5 c 128,-1,34
 225 519 225 519 276 546.5 c 128,-1,35
 327 574 327 574 388 600 c 128,-1,36
 449 626 449 626 510.5 654 c 128,-1,37
 572 682 572 682 623 712.5 c 128,-1,38
 674 743 674 743 705.5 787.5 c 128,-1,39
 737 832 737 832 737 884 c 1,40,41
 731 1051 731 1051 526 1051 c 0,42,43
 424 1051 424 1051 247 994 c 0,0,1
EndSplineSet
EndChar

StartChar: uni00B3
Encoding: 179 179 116
Width: 946
GlyphClass: 2
Flags: W
LayerCount: 2
Fore
SplineSet
244 1003 m 0,0,1
 233 995 233 995 221 995 c 0,2,3
 208 995 208 995 200 1004 c 128,-1,4
 192 1013 192 1013 192 1027 c 0,5,6
 192 1044 192 1044 226 1064.5 c 128,-1,7
 260 1085 260 1085 325 1100.5 c 128,-1,8
 390 1116 390 1116 465 1116 c 0,9,10
 616 1116 616 1116 687.5 1059.5 c 128,-1,11
 759 1003 759 1003 759 919 c 0,12,13
 759 765 759 765 584 715 c 1,14,15
 784 658 784 658 784 488 c 0,16,17
 784 395 784 395 705.5 332.5 c 128,-1,18
 627 270 627 270 465 270 c 0,19,20
 403 270 403 270 349 279.5 c 128,-1,21
 295 289 295 289 262.5 303 c 128,-1,22
 230 317 230 317 211.5 332 c 128,-1,23
 193 347 193 347 193 359 c 128,-1,24
 193 371 193 371 203 379.5 c 128,-1,25
 213 388 213 388 228 388 c 0,26,27
 237 388 237 388 249 383 c 0,28,29
 345 336 345 336 465 336 c 0,30,31
 595 336 595 336 653 380.5 c 128,-1,32
 711 425 711 425 711 492 c 0,33,34
 711 571 711 571 644.5 626 c 128,-1,35
 578 681 578 681 440 681 c 2,36,-1
 379 681 l 2,37,38
 362 681 362 681 353 690.5 c 128,-1,39
 344 700 344 700 344 713 c 128,-1,40
 344 726 344 726 353 735.5 c 128,-1,41
 362 745 362 745 379 745 c 2,42,-1
 440 745 l 2,43,44
 567 745 567 745 627 794 c 128,-1,45
 687 843 687 843 687 912 c 0,46,47
 687 976 687 976 638.5 1016.5 c 128,-1,48
 590 1057 590 1057 475 1057 c 0,49,50
 330 1057 330 1057 244 1003 c 0,0,1
EndSplineSet
EndChar

StartChar: acute
Encoding: 180 180 117
Width: 376
GlyphClass: 2
Flags: W
LayerCount: 2
Fore
SplineSet
23 1001 m 2,0,-1
 275 1277 l 2,1,2
 286 1288 286 1288 300 1288 c 0,3,4
 322 1288 322 1288 343 1268.5 c 128,-1,5
 364 1249 364 1249 364 1227 c 0,6,7
 364 1211 364 1211 349 1199 c 2,8,-1
 57 962 l 2,9,10
 50 957 50 957 42 957 c 0,11,12
 31 957 31 957 23 964.5 c 128,-1,13
 15 972 15 972 15 983 c 0,14,15
 15 993 15 993 23 1001 c 2,0,-1
EndSplineSet
EndChar

StartChar: uni00B5
Encoding: 181 181 118
Width: 1178
GlyphClass: 2
Flags: W
LayerCount: 2
Fore
SplineSet
938 70 m 1,0,-1
 939 141 l 1,1,2
 809 -10 809 -10 545 -10 c 0,3,4
 332 -10 332 -10 239.5 74 c 128,-1,5
 147 158 147 158 147 348 c 2,6,-1
 147 694 l 2,7,8
 147 766 147 766 187 766 c 0,9,10
 205 766 205 766 214.5 754 c 128,-1,11
 224 742 224 742 225.5 729.5 c 128,-1,12
 227 717 227 717 227 694 c 2,13,-1
 227 348 l 2,14,15
 227 261 227 261 240.5 206.5 c 128,-1,16
 254 152 254 152 290.5 115.5 c 128,-1,17
 327 79 327 79 387.5 64 c 128,-1,18
 448 49 448 49 545 49 c 0,19,20
 770 49 770 49 939 178 c 1,21,-1
 939 694 l 2,22,23
 939 716 939 716 940.5 729 c 128,-1,24
 942 742 942 742 951 754 c 128,-1,25
 960 766 960 766 976 766 c 0,26,27
 1003 766 1003 766 1011 747 c 128,-1,28
 1019 728 1019 728 1019 694 c 2,29,-1
 1019 70 l 2,30,31
 1019 0 1019 0 981 0 c 0,32,33
 938 0 938 0 938 61 c 2,34,-1
 938 70 l 1,0,-1
EndSplineSet
EndChar

StartChar: paragraph
Encoding: 182 182 119
Width: 816
GlyphClass: 2
Flags: W
LayerCount: 2
Fore
SplineSet
404 76 m 2,0,-1
 404 542 l 1,1,2
 243 542 243 542 150 626 c 128,-1,3
 57 710 57 710 57 825 c 128,-1,4
 57 940 57 940 152.5 1023.5 c 128,-1,5
 248 1107 248 1107 423 1111 c 1,6,-1
 654 1114 l 2,7,8
 675 1114 675 1114 681.5 1107.5 c 128,-1,9
 688 1101 688 1101 688 1077 c 2,10,-1
 688 76 l 2,11,12
 688 0 688 0 642 0 c 0,13,14
 603 0 603 0 603 76 c 2,15,-1
 603 1021 l 1,16,-1
 489 1021 l 1,17,-1
 489 76 l 2,18,19
 489 0 489 0 443 0 c 0,20,21
 404 0 404 0 404 76 c 2,0,-1
EndSplineSet
EndChar

StartChar: periodcentered
Encoding: 183 183 120
Width: 312
GlyphClass: 2
Flags: W
LayerCount: 2
Fore
SplineSet
93 1006 m 256,0,1
 93 1034 93 1034 110.5 1052 c 128,-1,2
 128 1070 128 1070 157 1070 c 0,3,4
 170 1070 170 1070 182.5 1065.5 c 128,-1,5
 195 1061 195 1061 203.5 1052.5 c 128,-1,6
 212 1044 212 1044 217.5 1031.5 c 128,-1,7
 223 1019 223 1019 223 1006 c 0,8,9
 223 978 223 978 204 961 c 128,-1,10
 185 944 185 944 157 944 c 0,11,12
 128 944 128 944 110.5 961 c 128,-1,13
 93 978 93 978 93 1006 c 256,0,1
EndSplineSet
EndChar

StartChar: cedilla
Encoding: 184 184 121
Width: 266
GlyphClass: 2
Flags: W
LayerCount: 2
Fore
SplineSet
21 -264 m 2,0,-1
 210 10 l 2,1,2
 223 29 223 29 236 29 c 0,3,4
 254 29 254 29 254 7 c 0,5,6
 254 -1 254 -1 250 -8 c 2,7,-1
 84 -298 l 2,8,9
 69 -324 69 -324 45 -324 c 0,10,11
 31 -324 31 -324 21 -314.5 c 128,-1,12
 11 -305 11 -305 11 -291 c 128,-1,13
 11 -277 11 -277 21 -264 c 2,0,-1
EndSplineSet
EndChar

StartChar: uni00B9
Encoding: 185 185 122
Width: 452
GlyphClass: 2
Flags: W
LayerCount: 2
Fore
SplineSet
331 1039 m 2,0,-1
 331 403 l 2,1,2
 331 354 331 354 322 343 c 0,3,4
 315 333 315 333 298 333 c 0,5,6
 284 333 284 333 275.5 338.5 c 128,-1,7
 267 344 267 344 263.5 356 c 128,-1,8
 260 368 260 368 259.5 377 c 128,-1,9
 259 386 259 386 259 403 c 2,10,-1
 259 1039 l 1,11,-1
 105 1039 l 2,12,13
 103 1039 103 1039 99 1039 c 0,14,15
 81 1039 81 1039 71.5 1040 c 128,-1,16
 62 1041 62 1041 52 1047.5 c 128,-1,17
 42 1054 42 1054 42 1068 c 0,18,19
 42 1109 42 1109 103 1109 c 2,20,-1
 296 1109 l 2,21,22
 302 1109 302 1109 307.5 1108 c 128,-1,23
 313 1107 313 1107 316.5 1104 c 128,-1,24
 320 1101 320 1101 322.5 1098.5 c 128,-1,25
 325 1096 325 1096 326.5 1090 c 128,-1,26
 328 1084 328 1084 329 1081.5 c 128,-1,27
 330 1079 330 1079 330.5 1071.5 c 128,-1,28
 331 1064 331 1064 331 1061 c 128,-1,29
 331 1058 331 1058 331 1049.5 c 128,-1,30
 331 1041 331 1041 331 1039 c 2,0,-1
EndSplineSet
EndChar

StartChar: ordmasculine
Encoding: 186 186 123
Width: 1125
GlyphClass: 2
Flags: W
LayerCount: 2
Fore
SplineSet
625 382 m 128,-1,1
 730 382 730 382 807.5 402 c 128,-1,2
 885 422 885 422 929 453 c 128,-1,3
 973 484 973 484 999.5 530 c 128,-1,4
 1026 576 1026 576 1034 619.5 c 128,-1,5
 1042 663 1042 663 1042 718 c 0,6,7
 1042 902 1042 902 944 981 c 128,-1,8
 846 1060 846 1060 625 1060 c 128,-1,9
 404 1060 404 1060 306 981 c 128,-1,10
 208 902 208 902 208 718 c 0,11,12
 208 663 208 663 216 619.5 c 128,-1,13
 224 576 224 576 250.5 530 c 128,-1,14
 277 484 277 484 321 453 c 128,-1,15
 365 422 365 422 442.5 402 c 128,-1,0
 520 382 520 382 625 382 c 128,-1,1
625 323 m 128,-1,17
 360 323 360 323 244 424 c 128,-1,18
 128 525 128 525 128 718 c 0,19,20
 128 928 128 928 248 1023.5 c 128,-1,21
 368 1119 368 1119 625 1119 c 128,-1,22
 882 1119 882 1119 1002 1023.5 c 128,-1,23
 1122 928 1122 928 1122 718 c 0,24,25
 1122 525 1122 525 1006 424 c 128,-1,16
 890 323 890 323 625 323 c 128,-1,17
281 262 m 2,26,-1
 822 262 l 2,27,28
 831 262 831 262 837.5 255 c 128,-1,29
 844 248 844 248 844 238 c 128,-1,30
 844 228 844 228 837.5 221 c 128,-1,31
 831 214 831 214 822 214 c 2,32,-1
 281 214 l 2,33,34
 272 214 272 214 265.5 221 c 128,-1,35
 259 228 259 228 259 238 c 128,-1,36
 259 248 259 248 265.5 255 c 128,-1,37
 272 262 272 262 281 262 c 2,26,-1
EndSplineSet
EndChar

StartChar: guillemotright
Encoding: 187 187 124
Width: 647
GlyphClass: 2
Flags: W
LayerCount: 2
Fore
SplineSet
347 619 m 2,0,-1
 588 367 l 2,1,2
 603 352 603 352 605 335 c 1,3,4
 605 318 605 318 588 301 c 2,5,-1
 347 49 l 2,6,7
 335 37 335 37 320 37 c 128,-1,8
 305 37 305 37 293 47.5 c 128,-1,9
 281 58 281 58 281 72 c 0,10,11
 281 85 281 85 293 97 c 2,12,-1
 531 334 l 1,13,-1
 293 571 l 2,14,15
 282 582 282 582 282 596 c 128,-1,16
 282 610 282 610 293.5 620.5 c 128,-1,17
 305 631 305 631 320 631 c 128,-1,18
 335 631 335 631 347 619 c 2,0,-1
148 619 m 2,19,-1
 389 367 l 2,20,21
 404 352 404 352 406 335 c 1,22,23
 406 318 406 318 389 301 c 2,24,-1
 148 49 l 2,25,26
 136 37 136 37 121 37 c 128,-1,27
 106 37 106 37 94 47.5 c 128,-1,28
 82 58 82 58 82 72 c 0,29,30
 82 85 82 85 94 97 c 2,31,-1
 332 334 l 1,32,-1
 94 571 l 2,33,34
 83 582 83 582 83 596 c 128,-1,35
 83 610 83 610 94.5 620.5 c 128,-1,36
 106 631 106 631 121 631 c 128,-1,37
 136 631 136 631 148 619 c 2,19,-1
EndSplineSet
EndChar

StartChar: onequarter
Encoding: 188 188 125
Width: 1570
GlyphClass: 2
Flags: W
LayerCount: 2
Fore
SplineSet
1562 321 m 0,0,1
 1562 301 1562 301 1545 294.5 c 128,-1,2
 1528 288 1528 288 1491 288 c 2,3,-1
 1321 288 l 1,4,-1
 1321 70 l 2,5,6
 1321 47 1321 47 1320 35 c 128,-1,7
 1319 23 1319 23 1310.5 11.5 c 128,-1,8
 1302 0 1302 0 1286 0 c 0,9,10
 1272 0 1272 0 1264 5 c 128,-1,11
 1256 10 1256 10 1253 23 c 128,-1,12
 1250 36 1250 36 1249.5 43 c 128,-1,13
 1249 50 1249 50 1249 70 c 2,14,-1
 1249 288 l 1,15,-1
 877 288 l 2,16,17
 851 288 851 288 835 293.5 c 128,-1,18
 819 299 819 299 813 311 c 128,-1,19
 807 323 807 323 805.5 331.5 c 128,-1,20
 804 340 804 340 804 358 c 2,21,-1
 804 709 l 2,22,23
 804 725 804 725 804.5 733.5 c 128,-1,24
 805 742 805 742 808.5 753.5 c 128,-1,25
 812 765 812 765 820.5 770.5 c 128,-1,26
 829 776 829 776 843 776 c 0,27,28
 855 776 855 776 863 770.5 c 128,-1,29
 871 765 871 765 873.5 752.5 c 128,-1,30
 876 740 876 740 876.5 732.5 c 128,-1,31
 877 725 877 725 877 709 c 2,32,-1
 877 358 l 1,33,-1
 1249 358 l 1,34,-1
 1249 706 l 2,35,36
 1249 726 1249 726 1249.5 733 c 128,-1,37
 1250 740 1250 740 1253 753 c 128,-1,38
 1256 766 1256 766 1264 771 c 128,-1,39
 1272 776 1272 776 1286 776 c 0,40,41
 1302 776 1302 776 1310.5 764.5 c 128,-1,42
 1319 753 1319 753 1320 741 c 128,-1,43
 1321 729 1321 729 1321 706 c 2,44,-1
 1321 358 l 1,45,-1
 1490 358 l 2,46,47
 1508 358 1508 358 1515 358 c 128,-1,48
 1522 358 1522 358 1534 356 c 128,-1,49
 1546 354 1546 354 1550 350.5 c 128,-1,50
 1554 347 1554 347 1558 339.5 c 128,-1,51
 1562 332 1562 332 1562 321 c 0,0,1
331 1039 m 2,52,-1
 331 403 l 2,53,54
 331 354 331 354 322 343 c 0,55,56
 315 333 315 333 298 333 c 0,57,58
 284 333 284 333 275.5 338.5 c 128,-1,59
 267 344 267 344 263.5 356 c 128,-1,60
 260 368 260 368 259.5 377 c 128,-1,61
 259 386 259 386 259 403 c 2,62,-1
 259 1039 l 1,63,-1
 105 1039 l 2,64,65
 103 1039 103 1039 99 1039 c 0,66,67
 81 1039 81 1039 71.5 1040 c 128,-1,68
 62 1041 62 1041 52 1047.5 c 128,-1,69
 42 1054 42 1054 42 1068 c 0,70,71
 42 1109 42 1109 103 1109 c 2,72,-1
 296 1109 l 2,73,74
 302 1109 302 1109 307.5 1108 c 128,-1,75
 313 1107 313 1107 316.5 1104 c 128,-1,76
 320 1101 320 1101 322.5 1098.5 c 128,-1,77
 325 1096 325 1096 326.5 1090 c 128,-1,78
 328 1084 328 1084 329 1081.5 c 128,-1,79
 330 1079 330 1079 330.5 1071.5 c 128,-1,80
 331 1064 331 1064 331 1061 c 128,-1,81
 331 1058 331 1058 331 1049.5 c 128,-1,82
 331 1041 331 1041 331 1039 c 2,52,-1
826 1098 m 2,83,-1
 414 4 l 2,84,85
 411 -2 411 -2 406 -13.5 c 128,-1,86
 401 -25 401 -25 398.5 -30 c 128,-1,87
 396 -35 396 -35 391.5 -41.5 c 128,-1,88
 387 -48 387 -48 381.5 -50.5 c 128,-1,89
 376 -53 376 -53 369 -53 c 0,90,91
 332 -53 332 -53 332 -17 c 1,92,93
 331 -9 331 -9 344 25 c 2,94,-1
 754 1118 l 1,95,96
 762 1147 762 1147 772 1161.5 c 128,-1,97
 782 1176 782 1176 803 1176 c 0,98,99
 836 1176 836 1176 836 1141 c 0,100,101
 836 1126 836 1126 826 1098 c 2,83,-1
EndSplineSet
EndChar

StartChar: onehalf
Encoding: 189 189 126
Width: 1570
GlyphClass: 2
Flags: W
LayerCount: 2
Fore
SplineSet
931 666 m 0,0,1
 922 663 922 663 914 663 c 0,2,3
 897 663 897 663 887 673 c 128,-1,4
 877 683 877 683 877 696 c 0,5,6
 877 720 877 720 908 730 c 0,7,8
 1082 786 1082 786 1208 786 c 0,9,10
 1267 786 1267 786 1316.5 774.5 c 128,-1,11
 1366 763 1366 763 1408 737 c 128,-1,12
 1450 711 1450 711 1473.5 664 c 128,-1,13
 1497 617 1497 617 1497 551 c 0,14,15
 1497 490 1497 490 1465.5 439 c 128,-1,16
 1434 388 1434 388 1384 352.5 c 128,-1,17
 1334 317 1334 317 1273 287 c 128,-1,18
 1212 257 1212 257 1151 232.5 c 128,-1,19
 1090 208 1090 208 1040 184.5 c 128,-1,20
 990 161 990 161 958.5 132 c 128,-1,21
 927 103 927 103 927 71 c 1,22,-1
 1433 71 l 2,23,24
 1455 71 1455 71 1466.5 60.5 c 128,-1,25
 1478 50 1478 50 1478 35 c 128,-1,26
 1478 20 1478 20 1466.5 9.5 c 128,-1,27
 1455 -1 1455 -1 1433 -1 c 2,28,-1
 882 -1 l 2,29,30
 864 -1 864 -1 855 21.5 c 128,-1,31
 846 44 846 44 846 72 c 0,32,33
 846 116 846 116 877.5 153.5 c 128,-1,34
 909 191 909 191 960 218.5 c 128,-1,35
 1011 246 1011 246 1072.5 272 c 128,-1,36
 1134 298 1134 298 1195 326 c 128,-1,37
 1256 354 1256 354 1307 384.5 c 128,-1,38
 1358 415 1358 415 1389.5 459.5 c 128,-1,39
 1421 504 1421 504 1421 556 c 1,40,41
 1415 723 1415 723 1210 723 c 0,42,43
 1108 723 1108 723 931 666 c 0,0,1
331 1039 m 2,44,-1
 331 403 l 2,45,46
 331 354 331 354 322 343 c 0,47,48
 315 333 315 333 298 333 c 0,49,50
 284 333 284 333 275.5 338.5 c 128,-1,51
 267 344 267 344 263.5 356 c 128,-1,52
 260 368 260 368 259.5 377 c 128,-1,53
 259 386 259 386 259 403 c 2,54,-1
 259 1039 l 1,55,-1
 105 1039 l 2,56,57
 103 1039 103 1039 99 1039 c 0,58,59
 81 1039 81 1039 71.5 1040 c 128,-1,60
 62 1041 62 1041 52 1047.5 c 128,-1,61
 42 1054 42 1054 42 1068 c 0,62,63
 42 1109 42 1109 103 1109 c 2,64,-1
 296 1109 l 2,65,66
 302 1109 302 1109 307.5 1108 c 128,-1,67
 313 1107 313 1107 316.5 1104 c 128,-1,68
 320 1101 320 1101 322.5 1098.5 c 128,-1,69
 325 1096 325 1096 326.5 1090 c 128,-1,70
 328 1084 328 1084 329 1081.5 c 128,-1,71
 330 1079 330 1079 330.5 1071.5 c 128,-1,72
 331 1064 331 1064 331 1061 c 128,-1,73
 331 1058 331 1058 331 1049.5 c 128,-1,74
 331 1041 331 1041 331 1039 c 2,44,-1
859 1098 m 2,75,-1
 447 4 l 2,76,77
 444 -2 444 -2 439 -13.5 c 128,-1,78
 434 -25 434 -25 431.5 -30 c 128,-1,79
 429 -35 429 -35 424.5 -41.5 c 128,-1,80
 420 -48 420 -48 414.5 -50.5 c 128,-1,81
 409 -53 409 -53 402 -53 c 0,82,83
 365 -53 365 -53 365 -17 c 1,84,85
 364 -9 364 -9 377 25 c 2,86,-1
 787 1118 l 1,87,88
 795 1147 795 1147 805 1161.5 c 128,-1,89
 815 1176 815 1176 836 1176 c 0,90,91
 869 1176 869 1176 869 1141 c 0,92,93
 869 1126 869 1126 859 1098 c 2,75,-1
EndSplineSet
EndChar

StartChar: threequarters
Encoding: 190 190 127
Width: 2087
GlyphClass: 2
Flags: W
LayerCount: 2
Fore
SplineSet
1245 1098 m 2,0,-1
 833 4 l 2,1,2
 830 -2 830 -2 825 -13.5 c 128,-1,3
 820 -25 820 -25 817.5 -30 c 128,-1,4
 815 -35 815 -35 810.5 -41.5 c 128,-1,5
 806 -48 806 -48 800.5 -50.5 c 128,-1,6
 795 -53 795 -53 788 -53 c 0,7,8
 751 -53 751 -53 751 -17 c 1,9,10
 750 -9 750 -9 763 25 c 2,11,-1
 1173 1118 l 1,12,13
 1181 1147 1181 1147 1191 1161.5 c 128,-1,14
 1201 1176 1201 1176 1222 1176 c 0,15,16
 1255 1176 1255 1176 1255 1141 c 0,17,18
 1255 1126 1255 1126 1245 1098 c 2,0,-1
2032 264 m 0,19,20
 2032 230 2032 230 1950 230 c 0,21,22
 1940 230 1940 230 1918.5 230.5 c 128,-1,23
 1897 231 1897 231 1886 231 c 2,24,-1
 1741 231 l 1,25,-1
 1741 70 l 2,26,27
 1741 47 1741 47 1740 35 c 128,-1,28
 1739 23 1739 23 1730.5 11.5 c 128,-1,29
 1722 0 1722 0 1706 0 c 0,30,31
 1692 0 1692 0 1684 5 c 128,-1,32
 1676 10 1676 10 1673 23 c 128,-1,33
 1670 36 1670 36 1669.5 43 c 128,-1,34
 1669 50 1669 50 1669 70 c 2,35,-1
 1669 231 l 1,36,-1
 1325 231 l 2,37,38
 1299 231 1299 231 1283 236.5 c 128,-1,39
 1267 242 1267 242 1261 254 c 128,-1,40
 1255 266 1255 266 1253.5 275 c 128,-1,41
 1252 284 1252 284 1252 301 c 2,42,-1
 1252 708 l 2,43,44
 1252 724 1252 724 1252.5 732.5 c 128,-1,45
 1253 741 1253 741 1256.5 752.5 c 128,-1,46
 1260 764 1260 764 1268.5 769.5 c 128,-1,47
 1277 775 1277 775 1291 775 c 0,48,49
 1303 775 1303 775 1311 769.5 c 128,-1,50
 1319 764 1319 764 1321.5 751.5 c 128,-1,51
 1324 739 1324 739 1324.5 731.5 c 128,-1,52
 1325 724 1325 724 1325 708 c 2,53,-1
 1325 301 l 1,54,-1
 1669 301 l 1,55,-1
 1669 705 l 2,56,57
 1669 725 1669 725 1669.5 732 c 128,-1,58
 1670 739 1670 739 1673 752 c 128,-1,59
 1676 765 1676 765 1684 770 c 128,-1,60
 1692 775 1692 775 1706 775 c 0,61,62
 1722 775 1722 775 1730.5 763.5 c 128,-1,63
 1739 752 1739 752 1740 740 c 128,-1,64
 1741 728 1741 728 1741 705 c 2,65,-1
 1741 301 l 1,66,-1
 1960 301 l 2,67,68
 1962 301 1962 301 1966 301 c 0,69,70
 1985 301 1985 301 1994 300.5 c 128,-1,71
 2003 300 2003 300 2013.5 296.5 c 128,-1,72
 2024 293 2024 293 2028 285.5 c 128,-1,73
 2032 278 2032 278 2032 264 c 0,19,20
154 1003 m 1,74,75
 144 1000 144 1000 135 1000 c 0,76,77
 120 1000 120 1000 111 1007.5 c 128,-1,78
 102 1015 102 1015 102 1027 c 0,79,80
 102 1044 102 1044 135.5 1064.5 c 128,-1,81
 169 1085 169 1085 234.5 1100.5 c 128,-1,82
 300 1116 300 1116 375 1116 c 0,83,84
 526 1116 526 1116 597.5 1059.5 c 128,-1,85
 669 1003 669 1003 669 919 c 0,86,87
 669 765 669 765 484 715 c 1,88,89
 694 658 694 658 694 488 c 0,90,91
 694 395 694 395 615.5 332.5 c 128,-1,92
 537 270 537 270 375 270 c 0,93,94
 316 270 316 270 266 278 c 128,-1,95
 216 286 216 286 185 298 c 128,-1,96
 154 310 154 310 132 324.5 c 128,-1,97
 110 339 110 339 100.5 350 c 128,-1,98
 91 361 91 361 91 368 c 0,99,100
 91 394 91 394 127 394 c 0,101,102
 142 394 142 394 171.5 380.5 c 128,-1,103
 201 367 201 367 210 364 c 0,104,105
 281 339 281 339 375 339 c 0,106,107
 510 339 510 339 568.5 385 c 128,-1,108
 627 431 627 431 627 502 c 0,109,110
 627 577 627 577 559.5 629 c 128,-1,111
 492 681 492 681 350 681 c 2,112,-1
 289 681 l 2,113,114
 272 681 272 681 263 690.5 c 128,-1,115
 254 700 254 700 254 713 c 128,-1,116
 254 726 254 726 263 735.5 c 128,-1,117
 272 745 272 745 289 745 c 2,118,-1
 350 745 l 2,119,120
 483 745 483 745 544.5 793.5 c 128,-1,121
 606 842 606 842 606 912 c 0,122,123
 606 1057 606 1057 385 1057 c 0,124,125
 319 1057 319 1057 261.5 1043.5 c 128,-1,126
 204 1030 204 1030 179 1018 c 128,-1,127
 154 1006 154 1006 154 1003 c 1,74,75
EndSplineSet
EndChar

StartChar: questiondown
Encoding: 191 191 128
Width: 888
GlyphClass: 2
Flags: W
LayerCount: 2
Fore
SplineSet
684 1079 m 0,0,1
 684 1053 684 1053 668 1036.5 c 128,-1,2
 652 1020 652 1020 626 1020 c 0,3,4
 601 1020 601 1020 583.5 1036.5 c 128,-1,5
 566 1053 566 1053 566 1079 c 0,6,7
 566 1103 566 1103 583.5 1119 c 128,-1,8
 601 1135 601 1135 626 1135 c 0,9,10
 652 1135 652 1135 668 1119.5 c 128,-1,11
 684 1104 684 1104 684 1079 c 0,0,1
592 645 m 1,12,-1
 592 861 l 2,13,14
 592 886 592 886 593 897.5 c 128,-1,15
 594 909 594 909 601.5 920 c 128,-1,16
 609 931 609 931 625 931 c 0,17,18
 639 931 639 931 647.5 926 c 128,-1,19
 656 921 656 921 659.5 909.5 c 128,-1,20
 663 898 663 898 663.5 889.5 c 128,-1,21
 664 881 664 881 664 863 c 2,22,-1
 664 613 l 2,23,24
 664 600 664 600 655 590.5 c 128,-1,25
 646 581 646 581 629 581 c 0,26,27
 503 581 503 581 410.5 566.5 c 128,-1,28
 318 552 318 552 264 529 c 128,-1,29
 210 506 210 506 178 471 c 128,-1,30
 146 436 146 436 135.5 402 c 128,-1,31
 125 368 125 368 125 324 c 0,32,33
 125 262 125 262 141 216 c 128,-1,34
 157 170 157 170 195 133.5 c 128,-1,35
 233 97 233 97 302.5 78 c 128,-1,36
 372 59 372 59 473 59 c 0,37,38
 602 59 602 59 765 109 c 0,39,40
 780 114 780 114 791 114 c 0,41,42
 827 114 827 114 827 88 c 0,43,44
 827 51 827 51 709 20.5 c 128,-1,45
 591 -10 591 -10 473 -10 c 0,46,47
 59 -10 59 -10 59 318 c 0,48,49
 59 355 59 355 62.5 384 c 128,-1,50
 66 413 66 413 79.5 448 c 128,-1,51
 93 483 93 483 115 509 c 128,-1,52
 137 535 137 535 177.5 561 c 128,-1,53
 218 587 218 587 273 604 c 128,-1,54
 328 621 328 621 409 632 c 128,-1,55
 490 643 490 643 592 645 c 1,12,-1
EndSplineSet
EndChar

StartChar: AE
Encoding: 198 198 135
Width: 1446
GlyphClass: 2
Flags: W
LayerCount: 2
Fore
SplineSet
290 397 m 1,0,-1
 627 397 l 1,1,-1
 627 1014 l 1,2,-1
 290 397 l 1,0,-1
1352 35 m 0,3,4
 1352 29 1352 29 1351 24.5 c 128,-1,5
 1350 20 1350 20 1348.5 16.5 c 128,-1,6
 1347 13 1347 13 1343.5 10.5 c 128,-1,7
 1340 8 1340 8 1337.5 6 c 128,-1,8
 1335 4 1335 4 1329.5 3 c 128,-1,9
 1324 2 1324 2 1321 1 c 128,-1,10
 1318 0 1318 0 1311 0 c 128,-1,11
 1304 0 1304 0 1301 0 c 128,-1,12
 1298 0 1298 0 1289.5 0 c 128,-1,13
 1281 0 1281 0 1278 0 c 2,14,-1
 666 0 l 2,15,16
 637 0 637 0 632 4.5 c 128,-1,17
 627 9 627 9 627 35 c 2,18,-1
 627 348 l 1,19,-1
 269 348 l 1,20,21
 262 334 262 334 239.5 290 c 128,-1,22
 217 246 217 246 204 220.5 c 128,-1,23
 191 195 191 195 169 153.5 c 128,-1,24
 147 112 147 112 131.5 86.5 c 128,-1,25
 116 61 116 61 98.5 34 c 128,-1,26
 81 7 81 7 68 -5.5 c 128,-1,27
 55 -18 55 -18 46 -18 c 0,28,29
 29 -18 29 -18 19 -8 c 128,-1,30
 9 2 9 2 9 12 c 0,31,32
 9 27 9 27 30 63 c 1,33,-1
 578 1065 l 2,34,35
 580 1068 580 1068 584 1075 c 128,-1,36
 588 1082 588 1082 590 1085 c 128,-1,37
 592 1088 592 1088 595.5 1093.5 c 128,-1,38
 599 1099 599 1099 601 1101.5 c 128,-1,39
 603 1104 603 1104 606.5 1107 c 128,-1,40
 610 1110 610 1110 613 1111.5 c 128,-1,41
 616 1113 616 1113 619 1114 c 1,42,-1
 1276 1114 l 2,43,44
 1279 1114 1279 1114 1287.5 1114 c 128,-1,45
 1296 1114 1296 1114 1299 1114 c 128,-1,46
 1302 1114 1302 1114 1309 1114 c 128,-1,47
 1316 1114 1316 1114 1319 1113 c 128,-1,48
 1322 1112 1322 1112 1327.5 1111 c 128,-1,49
 1333 1110 1333 1110 1335.5 1108 c 128,-1,50
 1338 1106 1338 1106 1341.5 1103.5 c 128,-1,51
 1345 1101 1345 1101 1346.5 1097.5 c 128,-1,52
 1348 1094 1348 1094 1349 1089.5 c 128,-1,53
 1350 1085 1350 1085 1350 1079 c 0,54,55
 1350 1064 1350 1064 1339.5 1057 c 128,-1,56
 1329 1050 1329 1050 1317.5 1049 c 128,-1,57
 1306 1048 1306 1048 1282 1048 c 0,58,59
 1278 1048 1278 1048 1276 1048 c 2,60,-1
 712 1048 l 1,61,-1
 712 601 l 1,62,-1
 1249 601 l 2,63,64
 1252 601 1252 601 1258 601 c 0,65,66
 1275 601 1275 601 1283.5 600.5 c 128,-1,67
 1292 600 1292 600 1303 597.5 c 128,-1,68
 1314 595 1314 595 1318.5 589 c 128,-1,69
 1323 583 1323 583 1323 572 c 0,70,71
 1323 552 1323 552 1312 545.5 c 128,-1,72
 1301 539 1301 539 1278 539 c 0,73,74
 1274 539 1274 539 1264 539.5 c 128,-1,75
 1254 540 1254 540 1249 540 c 2,76,-1
 712 540 l 1,77,-1
 712 66 l 1,78,-1
 1278 66 l 2,79,80
 1280 66 1280 66 1284 66 c 0,81,82
 1308 66 1308 66 1319.5 65 c 128,-1,83
 1331 64 1331 64 1341.5 57 c 128,-1,84
 1352 50 1352 50 1352 35 c 0,3,4
EndSplineSet
EndChar

StartChar: Eth
Encoding: 208 208 145
Width: 1650
GlyphClass: 2
Flags: W
LayerCount: 2
Fore
SplineSet
1442 559 m 0,0,1
 1442 736 1442 736 1388.5 840.5 c 128,-1,2
 1335 945 1335 945 1209.5 996.5 c 128,-1,3
 1084 1048 1084 1048 867 1048 c 2,4,-1
 225 1048 l 1,5,-1
 225 614 l 1,6,-1
 409 614 l 2,7,8
 422 614 422 614 429 602.5 c 128,-1,9
 436 591 436 591 436 576 c 0,10,11
 436 562 436 562 429 551 c 128,-1,12
 422 540 422 540 409 540 c 2,13,-1
 225 540 l 1,14,-1
 225 66 l 1,15,-1
 867 66 l 2,16,17
 1084 66 1084 66 1209.5 117.5 c 128,-1,18
 1335 169 1335 169 1388.5 274.5 c 128,-1,19
 1442 380 1442 380 1442 559 c 0,0,1
1527 559 m 0,20,21
 1527 401 1527 401 1486 292.5 c 128,-1,22
 1445 184 1445 184 1359 119.5 c 128,-1,23
 1273 55 1273 55 1154.5 27.5 c 128,-1,24
 1036 0 1036 0 867 0 c 2,25,-1
 179 0 l 2,26,27
 150 0 150 0 145 4.5 c 128,-1,28
 140 9 140 9 140 35 c 2,29,-1
 140 540 l 1,30,-1
 50 540 l 2,31,32
 37 540 37 540 30 551 c 128,-1,33
 23 562 23 562 23 576 c 0,34,35
 23 591 23 591 30 602.5 c 128,-1,36
 37 614 37 614 50 614 c 2,37,-1
 140 614 l 1,38,-1
 140 1077 l 2,39,40
 140 1106 140 1106 145 1110 c 128,-1,41
 150 1114 150 1114 181 1114 c 2,42,-1
 867 1114 l 2,43,44
 1035 1114 1035 1114 1154.5 1085.5 c 128,-1,45
 1274 1057 1274 1057 1359.5 992.5 c 128,-1,46
 1445 928 1445 928 1486 821 c 128,-1,47
 1527 714 1527 714 1527 559 c 0,20,21
EndSplineSet
EndChar

StartChar: multiply
Encoding: 215 215 152
Width: 665
GlyphClass: 2
Flags: W
LayerCount: 2
Fore
SplineSet
486 287 m 1,0,-1
 332 434 l 1,1,-1
 209 315 l 2,2,3
 206 312 206 312 191 296.5 c 128,-1,4
 176 281 176 281 168 274 c 128,-1,5
 160 267 160 267 147 259.5 c 128,-1,6
 134 252 134 252 125 252 c 0,7,8
 113 252 113 252 103 262.5 c 128,-1,9
 93 273 93 273 93 283 c 0,10,11
 93 306 93 306 132 338 c 1,12,-1
 283 483 l 1,13,-1
 127 631 l 1,14,15
 91 661 91 661 91 682 c 0,16,17
 91 694 91 694 102.5 704.5 c 128,-1,18
 114 715 114 715 125 715 c 0,19,20
 137 715 137 715 150.5 705.5 c 128,-1,21
 164 696 164 696 183.5 675.5 c 128,-1,22
 203 655 203 655 207 651 c 2,23,-1
 332 532 l 1,24,-1
 457 651 l 2,25,26
 461 655 461 655 476 670 c 128,-1,27
 491 685 491 685 499 692.5 c 128,-1,28
 507 700 507 700 519 707.5 c 128,-1,29
 531 715 531 715 539 715 c 0,30,31
 551 715 551 715 562.5 704.5 c 128,-1,32
 574 694 574 694 574 682 c 0,33,34
 574 664 574 664 539 631 c 2,35,-1
 385 483 l 1,36,-1
 537 338 l 1,37,38
 572 303 572 303 572 285 c 0,39,40
 572 273 572 273 562.5 261.5 c 128,-1,41
 553 250 553 250 541 250 c 0,42,43
 523 250 523 250 486 287 c 1,0,-1
EndSplineSet
EndChar

StartChar: Oslash
Encoding: 216 216 153
Width: 1715
GlyphClass: 2
Flags: W
LayerCount: 2
Fore
SplineSet
1592 557 m 0,0,1
 1592 263 1592 263 1413.5 121 c 128,-1,2
 1235 -21 1235 -21 857 -21 c 0,3,4
 756 -21 756 -21 684 -13 c 1,5,-1
 650 -102 l 2,6,7
 642 -123 642 -123 638 -132 c 128,-1,8
 634 -141 634 -141 625 -150 c 128,-1,9
 616 -159 616 -159 605 -159 c 0,10,11
 568 -159 568 -159 568 -120 c 0,12,13
 568 -111 568 -111 580 -81 c 2,14,-1
 610 -2 l 1,15,16
 361 40 361 40 242 178 c 128,-1,17
 123 316 123 316 123 557 c 0,18,19
 123 851 123 851 301 993 c 128,-1,20
 479 1135 479 1135 857 1135 c 0,21,22
 952 1135 952 1135 1034 1126 c 1,23,-1
 1070 1222 l 2,24,25
 1071 1224 1071 1224 1073.5 1231.5 c 128,-1,26
 1076 1239 1076 1239 1077 1241.5 c 128,-1,27
 1078 1244 1078 1244 1080.5 1250 c 128,-1,28
 1083 1256 1083 1256 1084.5 1258.5 c 128,-1,29
 1086 1261 1086 1261 1089 1265.5 c 128,-1,30
 1092 1270 1092 1270 1095 1272 c 128,-1,31
 1098 1274 1098 1274 1101.5 1276 c 128,-1,32
 1105 1278 1105 1278 1109.5 1279 c 128,-1,33
 1114 1280 1114 1280 1119 1280 c 0,34,35
 1152 1280 1152 1280 1152 1245 c 0,36,37
 1152 1230 1152 1230 1142 1202 c 2,38,-1
 1109 1116 l 1,39,40
 1356 1074 1356 1074 1474 935 c 128,-1,41
 1592 796 1592 796 1592 557 c 0,0,1
633 61 m 1,42,-1
 1010 1062 l 1,43,44
 943 1069 943 1069 857 1069 c 0,45,46
 522 1069 522 1069 365 950 c 128,-1,47
 208 831 208 831 208 557 c 0,48,49
 208 333 208 333 312 214.5 c 128,-1,50
 416 96 416 96 633 61 c 1,42,-1
708 51 m 1,51,52
 777 45 777 45 857 45 c 0,53,54
 1192 45 1192 45 1349.5 164 c 128,-1,55
 1507 283 1507 283 1507 557 c 0,56,57
 1507 780 1507 780 1404 899 c 128,-1,58
 1301 1018 1301 1018 1086 1053 c 1,59,-1
 708 51 l 1,51,52
EndSplineSet
EndChar

StartChar: Thorn
Encoding: 222 222 159
Width: 1030
GlyphClass: 2
Flags: W
LayerCount: 2
Fore
SplineSet
245 828 m 1,0,-1
 245 330 l 1,1,-1
 493 330 l 2,2,3
 597 330 597 330 674 344 c 128,-1,4
 751 358 751 358 795.5 380.5 c 128,-1,5
 840 403 840 403 866 436.5 c 128,-1,6
 892 470 892 470 900.5 502.5 c 128,-1,7
 909 535 909 535 909 576 c 0,8,9
 909 618 909 618 900 651 c 128,-1,10
 891 684 891 684 864.5 718.5 c 128,-1,11
 838 753 838 753 793.5 776 c 128,-1,12
 749 799 749 799 672.5 813.5 c 128,-1,13
 596 828 596 828 493 828 c 2,14,-1
 245 828 l 1,0,-1
493 264 m 2,15,-1
 245 264 l 1,16,-1
 245 76 l 2,17,18
 245 0 245 0 206 0 c 0,19,20
 160 0 160 0 160 76 c 2,21,-1
 160 1034 l 2,22,23
 160 1110 160 1110 206 1110 c 0,24,25
 245 1110 245 1110 245 1034 c 2,26,-1
 245 894 l 1,27,-1
 493 894 l 2,28,29
 989 894 989 894 989 575 c 0,30,31
 989 524 989 524 977.5 482 c 128,-1,32
 966 440 966 440 933 398.5 c 128,-1,33
 900 357 900 357 846.5 328.5 c 128,-1,34
 793 300 793 300 703 282 c 128,-1,35
 613 264 613 264 493 264 c 2,15,-1
EndSplineSet
EndChar

StartChar: germandbls
Encoding: 223 223 160
Width: 1209
GlyphClass: 2
Flags: W
LayerCount: 2
Fore
SplineSet
1170 288 m 0,0,1
 1170 224 1170 224 1157.5 181.5 c 128,-1,2
 1145 139 1145 139 1109.5 102 c 128,-1,3
 1074 65 1074 65 1009 44 c 128,-1,4
 944 23 944 23 840 11.5 c 128,-1,5
 736 0 736 0 585 0 c 0,6,7
 521 0 521 0 521 32 c 0,8,9
 521 54 521 54 537.5 60 c 128,-1,10
 554 66 554 66 589 66 c 0,11,12
 713 66 713 66 794.5 71.5 c 128,-1,13
 876 77 876 77 938 90.5 c 128,-1,14
 1000 104 1000 104 1033.5 129 c 128,-1,15
 1067 154 1067 154 1082.5 190 c 128,-1,16
 1098 226 1098 226 1098 280 c 0,17,18
 1098 327 1098 327 1083 364 c 128,-1,19
 1068 401 1068 401 1044.5 425.5 c 128,-1,20
 1021 450 1021 450 983.5 468 c 128,-1,21
 946 486 946 486 910.5 495.5 c 128,-1,22
 875 505 875 505 826.5 510 c 128,-1,23
 778 515 778 515 742 516.5 c 128,-1,24
 706 518 706 518 658 518 c 2,25,-1
 591 518 l 2,26,27
 518 518 518 518 491 531 c 128,-1,28
 464 544 464 544 464 589 c 0,29,30
 464 616 464 616 483.5 631 c 128,-1,31
 503 646 503 646 546 655 c 0,32,33
 738 695 738 695 820 733 c 0,34,35
 950 794 950 794 951 885 c 1,36,37
 951 984 951 984 871 1023.5 c 128,-1,38
 791 1063 791 1063 625 1063 c 0,39,40
 521 1063 521 1063 451 1049.5 c 128,-1,41
 381 1036 381 1036 329 1001.5 c 128,-1,42
 277 967 277 967 253.5 906 c 128,-1,43
 230 845 230 845 230 752 c 2,44,-1
 230 -4 l 2,45,46
 230 -29 230 -29 229 -40.5 c 128,-1,47
 228 -52 228 -52 220.5 -62.5 c 128,-1,48
 213 -73 213 -73 198 -73 c 0,49,50
 184 -73 184 -73 175.5 -68.5 c 128,-1,51
 167 -64 167 -64 163.5 -52.5 c 128,-1,52
 160 -41 160 -41 159.5 -32 c 128,-1,53
 159 -23 159 -23 159 -4 c 2,54,-1
 159 752 l 2,55,56
 159 958 159 958 268.5 1046.5 c 128,-1,57
 378 1135 378 1135 624 1135 c 0,58,59
 828 1135 828 1135 926.5 1078.5 c 128,-1,60
 1025 1022 1025 1022 1025 878 c 0,61,62
 1025 819 1025 819 989 771.5 c 128,-1,63
 953 724 953 724 899.5 696.5 c 128,-1,64
 846 669 846 669 783.5 648.5 c 128,-1,65
 721 628 721 628 667.5 618 c 128,-1,66
 614 608 614 608 578 600 c 128,-1,67
 542 592 542 592 542 586 c 128,-1,68
 542 580 542 580 638 580 c 0,69,70
 684 580 684 580 716 579.5 c 128,-1,71
 748 579 748 579 795 576 c 128,-1,72
 842 573 842 573 876 567.5 c 128,-1,73
 910 562 910 562 951.5 551 c 128,-1,74
 993 540 993 540 1022.5 525.5 c 128,-1,75
 1052 511 1052 511 1081.5 489 c 128,-1,76
 1111 467 1111 467 1129 439 c 128,-1,77
 1147 411 1147 411 1158.5 372.5 c 128,-1,78
 1170 334 1170 334 1170 288 c 0,0,1
EndSplineSet
EndChar

StartChar: ae
Encoding: 230 230 167
Width: 1774
GlyphClass: 2
Flags: W
LayerCount: 2
Fore
SplineSet
951 431 m 1,0,-1
 1650 431 l 1,1,-1
 1653 452 l 1,2,3
 1657 467 1657 467 1657 485 c 0,4,5
 1657 594 1657 594 1572 660.5 c 128,-1,6
 1487 727 1487 727 1301 727 c 0,7,8
 1082 727 1082 727 951 648 c 1,9,-1
 951 431 l 1,0,-1
921 681 m 1,10,11
 1036 786 1036 786 1301 786 c 0,12,13
 1507 786 1507 786 1611.5 707 c 128,-1,14
 1716 628 1716 628 1716 479 c 0,15,16
 1716 450 1716 450 1701 414.5 c 128,-1,17
 1686 379 1686 379 1672 379 c 2,18,-1
 951 379 l 1,19,-1
 951 137 l 1,20,21
 1002 103 1002 103 1094 76 c 128,-1,22
 1186 49 1186 49 1303 49 c 0,23,24
 1391 49 1391 49 1488.5 72 c 128,-1,25
 1586 95 1586 95 1640 122 c 0,26,27
 1652 127 1652 127 1661 127 c 0,28,29
 1674 127 1674 127 1681.5 119.5 c 128,-1,30
 1689 112 1689 112 1689 101 c 0,31,32
 1689 81 1689 81 1668 70 c 0,33,34
 1513 -10 1513 -10 1304 -10 c 0,35,36
 1041 -10 1041 -10 920 100 c 1,37,38
 863 47 863 47 741 18.5 c 128,-1,39
 619 -10 619 -10 471 -10 c 0,40,41
 348 -10 348 -10 257 11.5 c 128,-1,42
 166 33 166 33 108 85.5 c 128,-1,43
 50 138 50 138 50 219 c 0,44,45
 50 290 50 290 82 341.5 c 128,-1,46
 114 393 114 393 172 421.5 c 128,-1,47
 230 450 230 450 301 463.5 c 128,-1,48
 372 477 372 477 460 477 c 0,49,50
 583 477 583 477 702.5 451 c 128,-1,51
 822 425 822 425 890 389 c 1,52,-1
 889 647 l 1,53,54
 846 678 846 678 735.5 702.5 c 128,-1,55
 625 727 625 727 470 727 c 0,56,57
 362 727 362 727 276 701.5 c 128,-1,58
 190 676 190 676 157 621 c 0,59,60
 142 596 142 596 122 596 c 0,61,62
 112 596 112 596 105 603.5 c 128,-1,63
 98 611 98 611 98 623 c 0,64,65
 98 627 98 627 106 649 c 1,66,67
 140 716 140 716 245.5 751 c 128,-1,68
 351 786 351 786 483 786 c 0,69,70
 816 786 816 786 921 681 c 1,10,11
130 219 m 0,71,72
 130 49 130 49 463 49 c 0,73,74
 740 49 740 49 890 137 c 1,75,-1
 890 338 l 1,76,77
 832 368 832 368 709.5 393 c 128,-1,78
 587 418 587 418 468 418 c 0,79,80
 303 418 303 418 216.5 372.5 c 128,-1,81
 130 327 130 327 130 219 c 0,71,72
EndSplineSet
EndChar

StartChar: eth
Encoding: 240 240 177
Width: 1064
GlyphClass: 2
Flags: W
LayerCount: 2
Fore
SplineSet
790 974 m 1,0,1
 879 902 879 902 929 778 c 128,-1,2
 979 654 979 654 979 509 c 0,3,4
 979 235 979 235 875.5 107.5 c 128,-1,5
 772 -20 772 -20 545 -20 c 0,6,7
 478 -20 478 -20 420.5 -10 c 128,-1,8
 363 0 363 0 320.5 18.5 c 128,-1,9
 278 37 278 37 244 63.5 c 128,-1,10
 210 90 210 90 187.5 120.5 c 128,-1,11
 165 151 165 151 150 188 c 128,-1,12
 135 225 135 225 128.5 263 c 128,-1,13
 122 301 122 301 122 343 c 0,14,15
 122 405 122 405 140.5 458 c 128,-1,16
 159 511 159 511 192.5 550 c 128,-1,17
 226 589 226 589 272.5 616.5 c 128,-1,18
 319 644 319 644 375.5 658 c 128,-1,19
 432 672 432 672 496 672 c 0,20,21
 698 672 698 672 901 553 c 1,22,23
 901 673 901 673 853 774.5 c 128,-1,24
 805 876 805 876 733 933 c 1,25,26
 662 879 662 879 591 827 c 0,27,28
 589 825 589 825 587 824 c 128,-1,29
 585 823 585 823 583.5 822 c 128,-1,30
 582 821 582 821 580 820.5 c 128,-1,31
 578 820 578 820 576.5 819.5 c 128,-1,32
 575 819 575 819 573 819 c 0,33,34
 568 819 568 819 564 821 c 128,-1,35
 560 823 560 823 557.5 826 c 128,-1,36
 555 829 555 829 553 833 c 128,-1,37
 551 837 551 837 551 842 c 256,38,39
 551 847 551 847 554 852.5 c 128,-1,40
 557 858 557 858 563 862 c 0,41,42
 597 887 597 887 631 911.5 c 128,-1,43
 665 936 665 936 699 962 c 1,44,45
 573 1061 573 1061 264 1061 c 0,46,47
 252 1061 252 1061 245.5 1070 c 128,-1,48
 239 1079 239 1079 239 1091 c 0,49,50
 239 1102 239 1102 245 1110 c 128,-1,51
 251 1118 251 1118 262 1118 c 0,52,53
 323 1118 323 1118 359.5 1117 c 128,-1,54
 396 1116 396 1116 454.5 1110 c 128,-1,55
 513 1104 513 1104 557 1092.5 c 128,-1,56
 601 1081 601 1081 654.5 1058.5 c 128,-1,57
 708 1036 708 1036 756 1004 c 1,58,59
 832 1060 832 1060 911 1119 c 1,60,61
 918 1126 918 1126 927 1126 c 0,62,63
 932 1126 932 1126 937.5 1123 c 128,-1,64
 943 1120 943 1120 946 1114.5 c 128,-1,65
 949 1109 949 1109 949 1103 c 0,66,67
 949 1100 949 1100 948.5 1097.5 c 128,-1,68
 948 1095 948 1095 946.5 1092.5 c 128,-1,69
 945 1090 945 1090 943 1088 c 128,-1,70
 941 1086 941 1086 938 1083 c 0,71,72
 864 1029 864 1029 790 974 c 1,0,1
901 489 m 1,73,74
 878 502 878 502 853.5 513.5 c 128,-1,75
 829 525 829 525 804 535.5 c 128,-1,76
 779 546 779 546 753 555 c 128,-1,77
 727 564 727 564 700.5 571.5 c 128,-1,78
 674 579 674 579 648 584.5 c 128,-1,79
 622 590 622 590 596 594 c 128,-1,80
 570 598 570 598 544 600.5 c 128,-1,81
 518 603 518 603 494 603 c 0,82,83
 430 603 430 603 378 587.5 c 128,-1,84
 326 572 326 572 285 540.5 c 128,-1,85
 244 509 244 509 221.5 454.5 c 128,-1,86
 199 400 199 400 199 328 c 0,87,88
 199 284 199 284 208.5 246 c 128,-1,89
 218 208 218 208 242 171 c 128,-1,90
 266 134 266 134 303.5 107.5 c 128,-1,91
 341 81 341 81 401.5 64.5 c 128,-1,92
 462 48 462 48 539 48 c 0,93,94
 735 48 735 48 818 155 c 128,-1,95
 901 262 901 262 901 489 c 1,73,74
EndSplineSet
EndChar

StartChar: divide
Encoding: 247 247 184
Width: 681
GlyphClass: 2
Flags: W
LayerCount: 2
Fore
SplineSet
277 665 m 0,0,1
 277 694 277 694 294.5 712 c 128,-1,2
 312 730 312 730 341 730 c 0,3,4
 368 730 368 730 387.5 711.5 c 128,-1,5
 407 693 407 693 407 665 c 0,6,7
 407 638 407 638 388 620.5 c 128,-1,8
 369 603 369 603 341 603 c 0,9,10
 312 603 312 603 294.5 620 c 128,-1,11
 277 637 277 637 277 665 c 0,0,1
277 303 m 0,12,13
 277 332 277 332 294.5 350 c 128,-1,14
 312 368 312 368 341 368 c 0,15,16
 368 368 368 368 387.5 349.5 c 128,-1,17
 407 331 407 331 407 303 c 0,18,19
 407 276 407 276 388 258.5 c 128,-1,20
 369 241 369 241 341 241 c 0,21,22
 312 241 312 241 294.5 258 c 128,-1,23
 277 275 277 275 277 303 c 0,12,13
124 518 m 2,24,-1
 533 518 l 2,25,26
 546 518 546 518 553 506.5 c 128,-1,27
 560 495 560 495 560 480 c 0,28,29
 560 466 560 466 553 455 c 128,-1,30
 546 444 546 444 533 444 c 2,31,-1
 124 444 l 2,32,33
 111 444 111 444 104 455 c 128,-1,34
 97 466 97 466 97 480 c 0,35,36
 97 495 97 495 104 506.5 c 128,-1,37
 111 518 111 518 124 518 c 2,24,-1
EndSplineSet
EndChar

StartChar: oslash
Encoding: 248 248 185
Width: 1240
GlyphClass: 2
Flags: W
LayerCount: 2
Fore
SplineSet
620 49 m 0,0,1
 725 49 725 49 802.5 69 c 128,-1,2
 880 89 880 89 924 120 c 128,-1,3
 968 151 968 151 994.5 197 c 128,-1,4
 1021 243 1021 243 1029 286.5 c 128,-1,5
 1037 330 1037 330 1037 385 c 0,6,7
 1037 530 1037 530 978 608.5 c 128,-1,8
 919 687 919 687 790 713 c 1,9,-1
 541 52 l 1,10,11
 578 49 578 49 620 49 c 0,0,1
466 62 m 1,12,-1
 714 723 l 1,13,14
 675 727 675 727 620 727 c 0,15,16
 399 727 399 727 301 648 c 128,-1,17
 203 569 203 569 203 385 c 0,18,19
 203 340 203 340 208.5 302.5 c 128,-1,20
 214 265 214 265 231 224.5 c 128,-1,21
 248 184 248 184 276 154 c 128,-1,22
 304 124 304 124 352.5 99 c 128,-1,23
 401 74 401 74 466 62 c 1,12,-1
811 770 m 1,24,25
 968 739 968 739 1042.5 645.5 c 128,-1,26
 1117 552 1117 552 1117 385 c 0,27,28
 1117 192 1117 192 1001 91 c 128,-1,29
 885 -10 885 -10 620 -10 c 0,30,31
 560 -10 560 -10 519 -6 c 1,32,-1
 455 -176 l 2,33,34
 452 -182 452 -182 447 -193.5 c 128,-1,35
 442 -205 442 -205 439.5 -210 c 128,-1,36
 437 -215 437 -215 432.5 -221.5 c 128,-1,37
 428 -228 428 -228 422.5 -230.5 c 128,-1,38
 417 -233 417 -233 410 -233 c 0,39,40
 373 -233 373 -233 373 -197 c 1,41,42
 372 -189 372 -189 385 -155 c 2,43,-1
 445 4 l 1,44,45
 275 35 275 35 199 131.5 c 128,-1,46
 123 228 123 228 123 385 c 0,47,48
 123 595 123 595 243 690.5 c 128,-1,49
 363 786 363 786 620 786 c 0,50,51
 691 786 691 786 736 781 c 1,52,-1
 795 938 l 1,53,54
 803 967 803 967 813 981.5 c 128,-1,55
 823 996 823 996 844 996 c 0,56,57
 877 996 877 996 877 961 c 0,58,59
 877 946 877 946 867 918 c 2,60,-1
 811 770 l 1,24,25
EndSplineSet
EndChar

StartChar: thorn
Encoding: 254 254 191
Width: 1196
GlyphClass: 2
Flags: W
LayerCount: 2
Fore
SplineSet
630 727 m 1,0,1
 560 726 560 726 497 717 c 128,-1,2
 434 708 434 708 365 687.5 c 128,-1,3
 296 667 296 667 246.5 625 c 128,-1,4
 197 583 197 583 180 524 c 1,5,-1
 180 140 l 1,6,7
 421 49 421 49 630 49 c 0,8,9
 822 49 822 49 907.5 131 c 128,-1,10
 993 213 993 213 993 396 c 0,11,12
 993 727 993 727 630 727 c 1,0,1
630 786 m 0,13,14
 724 786 724 786 801 765.5 c 128,-1,15
 878 745 878 745 940.5 701 c 128,-1,16
 1003 657 1003 657 1038 579.5 c 128,-1,17
 1073 502 1073 502 1073 396 c 0,18,19
 1073 182 1073 182 961.5 86 c 128,-1,20
 850 -10 850 -10 630 -10 c 0,21,22
 402 -10 402 -10 180 78 c 1,23,-1
 178 -267 l 2,24,25
 178 -284 178 -284 177.5 -293 c 128,-1,26
 177 -302 177 -302 173.5 -314 c 128,-1,27
 170 -326 170 -326 161.5 -331.5 c 128,-1,28
 153 -337 153 -337 139 -337 c 128,-1,29
 125 -337 125 -337 116.5 -331.5 c 128,-1,30
 108 -326 108 -326 104.5 -313 c 128,-1,31
 101 -300 101 -300 100.5 -290 c 128,-1,32
 100 -280 100 -280 100 -261 c 2,33,-1
 100 1061 l 2,34,35
 100 1090 100 1090 110 1100 c 128,-1,36
 120 1110 120 1110 137 1110 c 0,37,38
 157 1110 157 1110 166 1100.5 c 128,-1,39
 175 1091 175 1091 175 1061 c 2,40,-1
 175 594 l 1,41,42
 188 643 188 643 227 679.5 c 128,-1,43
 266 716 266 716 314 735.5 c 128,-1,44
 362 755 362 755 424 767 c 128,-1,45
 486 779 486 779 533.5 782.5 c 128,-1,46
 581 786 581 786 630 786 c 0,13,14
EndSplineSet
EndChar

StartChar: dcroat
Encoding: 273 273 210
Width: 1255
GlyphClass: 2
Flags: W
LayerCount: 2
Fore
SplineSet
566 -10 m 0,0,1
 491 -10 491 -10 427.5 1.5 c 128,-1,2
 364 13 364 13 306.5 41 c 128,-1,3
 249 69 249 69 209.5 112.5 c 128,-1,4
 170 156 170 156 146.5 224 c 128,-1,5
 123 292 123 292 123 380 c 0,6,7
 123 597 123 597 234 691.5 c 128,-1,8
 345 786 345 786 566 786 c 0,9,10
 889 786 889 786 1016 659 c 1,11,-1
 1016 889 l 1,12,-1
 607 889 l 2,13,14
 594 889 594 889 587 897.5 c 128,-1,15
 580 906 580 906 580 917 c 128,-1,16
 580 928 580 928 587 937 c 128,-1,17
 594 946 594 946 607 946 c 2,18,-1
 1016 946 l 1,19,-1
 1016 1043 l 2,20,21
 1016 1061 1016 1061 1016.5 1070 c 128,-1,22
 1017 1079 1017 1079 1020.5 1091 c 128,-1,23
 1024 1103 1024 1103 1032.5 1108.5 c 128,-1,24
 1041 1114 1041 1114 1055 1114 c 0,25,26
 1073 1114 1073 1114 1082.5 1104 c 128,-1,27
 1092 1094 1092 1094 1094 1081.5 c 128,-1,28
 1096 1069 1096 1069 1096 1045 c 2,29,-1
 1096 946 l 1,30,-1
 1228 946 l 2,31,32
 1241 946 1241 946 1248 937 c 128,-1,33
 1255 928 1255 928 1255 917 c 128,-1,34
 1255 906 1255 906 1248 897.5 c 128,-1,35
 1241 889 1241 889 1228 889 c 2,36,-1
 1096 889 l 1,37,-1
 1096 54 l 2,38,39
 1096 0 1096 0 1057 0 c 0,40,41
 1016 0 1016 0 1016 52 c 2,42,-1
 1016 191 l 1,43,44
 1003 142 1003 142 964.5 104.5 c 128,-1,45
 926 67 926 67 878.5 46 c 128,-1,46
 831 25 831 25 770.5 11.5 c 128,-1,47
 710 -2 710 -2 661.5 -6 c 128,-1,48
 613 -10 613 -10 566 -10 c 0,0,1
566 49 m 1,49,50
 636 50 636 50 699 59 c 128,-1,51
 762 68 762 68 831 88.5 c 128,-1,52
 900 109 900 109 949.5 151 c 128,-1,53
 999 193 999 193 1016 252 c 1,54,-1
 1016 612 l 1,55,56
 875 727 875 727 566 727 c 0,57,58
 374 727 374 727 288.5 645 c 128,-1,59
 203 563 203 563 203 380 c 0,60,61
 203 49 203 49 566 49 c 1,49,50
EndSplineSet
EndChar

StartChar: gcommaaccent
Encoding: 291 291 224
Width: 1123
GlyphClass: 2
Flags: W
LayerCount: 2
Fore
SplineSet
632 1138 m 1,0,-1
 632 1102 l 1,1,2
 569 1102 569 1102 569 1035 c 1,3,4
 618 1019 618 1019 618 968 c 0,5,6
 618 940 618 940 598 924.5 c 128,-1,7
 578 909 578 909 548 909 c 0,8,9
 522 909 522 909 501 928.5 c 128,-1,10
 480 948 480 948 480 983 c 0,11,12
 480 1041 480 1041 520.5 1089.5 c 128,-1,13
 561 1138 561 1138 632 1138 c 1,0,-1
544 -270 m 0,14,15
 717 -270 717 -270 820 -208.5 c 128,-1,16
 923 -147 923 -147 923 -23 c 2,17,-1
 923 96 l 1,18,19
 771 -10 771 -10 525 -10 c 0,20,21
 405 -10 405 -10 321 8 c 128,-1,22
 237 26 237 26 172 69 c 128,-1,23
 107 112 107 112 75.5 190 c 128,-1,24
 44 268 44 268 44 383 c 0,25,26
 44 497 44 497 80 577 c 128,-1,27
 116 657 116 657 187 702 c 128,-1,28
 258 747 258 747 348.5 766.5 c 128,-1,29
 439 786 439 786 562 786 c 0,30,31
 875 786 875 786 923 594 c 1,32,33
 923 605 923 605 921.5 635.5 c 128,-1,34
 920 666 920 666 920 682 c 0,35,36
 920 766 920 766 955 766 c 0,37,38
 1003 766 1003 766 1003 696 c 2,39,-1
 1003 -23 l 2,40,41
 1003 -180 1003 -180 884.5 -260 c 128,-1,42
 766 -340 766 -340 544 -340 c 0,43,44
 323 -340 323 -340 177 -258 c 1,45,46
 164 -254 164 -254 150 -241 c 128,-1,47
 136 -228 136 -228 136 -213 c 0,48,49
 136 -197 136 -197 148 -187.5 c 128,-1,50
 160 -178 160 -178 169 -178 c 0,51,52
 180 -178 180 -178 221 -201 c 128,-1,53
 262 -224 262 -224 294 -233 c 1,54,55
 403 -270 403 -270 544 -270 c 0,14,15
570 717 m 0,56,57
 330 717 330 717 227 641.5 c 128,-1,58
 124 566 124 566 124 383 c 0,59,60
 124 198 124 198 214 123.5 c 128,-1,61
 304 49 304 49 529 49 c 0,62,63
 770 49 770 49 923 150 c 1,64,-1
 923 524 l 1,65,66
 916 550 916 550 904.5 573 c 128,-1,67
 893 596 893 596 867 623.5 c 128,-1,68
 841 651 841 651 804 671 c 128,-1,69
 767 691 767 691 706.5 704 c 128,-1,70
 646 717 646 717 570 717 c 0,56,57
EndSplineSet
EndChar

StartChar: Hbar
Encoding: 294 294 229
Width: 1373
GlyphClass: 2
Flags: W
LayerCount: 2
Fore
SplineSet
244 889 m 1,0,-1
 244 606 l 1,1,-1
 1129 606 l 1,2,-1
 1129 889 l 1,3,-1
 244 889 l 1,0,-1
159 889 m 1,4,-1
 92 889 l 2,5,6
 79 889 79 889 71.5 897.5 c 128,-1,7
 64 906 64 906 64 917 c 128,-1,8
 64 928 64 928 71.5 937 c 128,-1,9
 79 946 79 946 92 946 c 2,10,-1
 159 946 l 1,11,-1
 159 1044 l 2,12,13
 159 1114 159 1114 207 1114 c 0,14,15
 244 1114 244 1114 244 1044 c 2,16,-1
 244 946 l 1,17,-1
 1129 946 l 1,18,-1
 1129 1044 l 2,19,20
 1129 1066 1129 1066 1131 1079 c 128,-1,21
 1133 1092 1133 1092 1143 1103 c 128,-1,22
 1153 1114 1153 1114 1171 1114 c 0,23,24
 1198 1114 1198 1114 1206 1095.5 c 128,-1,25
 1214 1077 1214 1077 1214 1044 c 2,26,-1
 1214 946 l 1,27,-1
 1285 946 l 2,28,29
 1298 946 1298 946 1305 937 c 128,-1,30
 1312 928 1312 928 1312 917 c 128,-1,31
 1312 906 1312 906 1305 897.5 c 128,-1,32
 1298 889 1298 889 1285 889 c 2,33,-1
 1214 889 l 1,34,-1
 1214 70 l 2,35,36
 1214 48 1214 48 1212 35 c 128,-1,37
 1210 22 1210 22 1200 11 c 128,-1,38
 1190 0 1190 0 1172 0 c 0,39,40
 1145 0 1145 0 1137 18.5 c 128,-1,41
 1129 37 1129 37 1129 70 c 2,42,-1
 1129 544 l 1,43,-1
 244 544 l 1,44,-1
 244 70 l 2,45,46
 244 41 244 41 234.5 20.5 c 128,-1,47
 225 0 225 0 205 0 c 0,48,49
 177 0 177 0 168 19 c 128,-1,50
 159 38 159 38 159 70 c 2,51,-1
 159 889 l 1,4,-1
EndSplineSet
EndChar

StartChar: hbar
Encoding: 295 295 230
Width: 1085
GlyphClass: 2
Flags: W
LayerCount: 2
Fore
SplineSet
993 418 m 2,0,-1
 993 72 l 2,1,2
 993 0 993 0 955 0 c 0,3,4
 929 0 929 0 921 19 c 128,-1,5
 913 38 913 38 913 72 c 2,6,-1
 913 418 l 2,7,8
 913 501 913 501 901 555 c 128,-1,9
 889 609 889 609 856 650 c 128,-1,10
 823 691 823 691 762 709 c 128,-1,11
 701 727 701 727 606 727 c 0,12,13
 543 727 543 727 480 717 c 128,-1,14
 417 707 417 707 354.5 685 c 128,-1,15
 292 663 292 663 245 621.5 c 128,-1,16
 198 580 198 580 181 524 c 1,17,-1
 181 72 l 2,18,19
 181 0 181 0 143 0 c 0,20,21
 101 0 101 0 101 72 c 2,22,-1
 101 912 l 1,23,-1
 28 912 l 2,24,25
 16 912 16 912 8 921 c 128,-1,26
 0 930 0 930 0 942 c 128,-1,27
 0 954 0 954 8 963 c 128,-1,28
 16 972 16 972 28 972 c 2,29,-1
 101 972 l 1,30,-1
 101 1044 l 2,31,32
 101 1114 101 1114 143 1114 c 0,33,34
 181 1114 181 1114 181 1044 c 2,35,-1
 181 972 l 1,36,-1
 435 972 l 2,37,38
 447 972 447 972 455 963 c 128,-1,39
 463 954 463 954 463 942 c 128,-1,40
 463 930 463 930 455 921 c 128,-1,41
 447 912 447 912 435 912 c 2,42,-1
 181 912 l 1,43,-1
 181 594 l 1,44,45
 197 651 197 651 245.5 691.5 c 128,-1,46
 294 732 294 732 360.5 751 c 128,-1,47
 427 770 427 770 486.5 778 c 128,-1,48
 546 786 546 786 606 786 c 0,49,50
 823 786 823 786 908 705.5 c 128,-1,51
 993 625 993 625 993 418 c 2,0,-1
EndSplineSet
EndChar

StartChar: dotlessi
Encoding: 305 305 240
Width: 312
GlyphClass: 2
Flags: W
LayerCount: 2
Fore
SplineSet
196 707 m 2,0,-1
 196 63 l 2,1,2
 196 41 196 41 194.5 30 c 128,-1,3
 193 19 193 19 183.5 9.5 c 128,-1,4
 174 0 174 0 156 0 c 0,5,6
 130 0 130 0 123 14.5 c 128,-1,7
 116 29 116 29 116 63 c 2,8,-1
 116 705 l 2,9,10
 116 728 116 728 118 741 c 128,-1,11
 120 754 120 754 129 764.5 c 128,-1,12
 138 775 138 775 156 775 c 0,13,14
 196 775 196 775 196 707 c 2,0,-1
EndSplineSet
EndChar

StartChar: IJ
Encoding: 306 306 241
Width: 2088
GlyphClass: 2
Flags: W
LayerCount: 2
Fore
SplineSet
1929 1044 m 2,0,-1
 1929 594 l 2,1,2
 1929 432 1929 432 1908.5 321.5 c 128,-1,3
 1888 211 1888 211 1838.5 132 c 128,-1,4
 1789 53 1789 53 1705.5 16.5 c 128,-1,5
 1622 -20 1622 -20 1498 -20 c 0,6,7
 1407 -20 1407 -20 1336.5 -9.5 c 128,-1,8
 1266 1 1266 1 1203 26 c 128,-1,9
 1140 51 1140 51 1098.5 98 c 128,-1,10
 1057 145 1057 145 1038 214 c 0,11,12
 1034 225 1034 225 1034 238 c 0,13,14
 1034 277 1034 277 1068 277 c 0,15,16
 1081 277 1081 277 1093.5 267 c 128,-1,17
 1106 257 1106 257 1111 240 c 1,18,19
 1121 196 1121 196 1142.5 162.5 c 128,-1,20
 1164 129 1164 129 1196 109 c 128,-1,21
 1228 89 1228 89 1260 76 c 128,-1,22
 1292 63 1292 63 1338 57.5 c 128,-1,23
 1384 52 1384 52 1417 50.5 c 128,-1,24
 1450 49 1450 49 1498 49 c 0,25,26
 1582 49 1582 49 1642.5 72.5 c 128,-1,27
 1703 96 1703 96 1742 138.5 c 128,-1,28
 1781 181 1781 181 1803.5 250 c 128,-1,29
 1826 319 1826 319 1835 400.5 c 128,-1,30
 1844 482 1844 482 1844 594 c 2,31,-1
 1844 1044 l 2,32,33
 1844 1078 1844 1078 1853 1096 c 128,-1,34
 1862 1114 1862 1114 1889 1114 c 0,35,36
 1929 1114 1929 1114 1929 1044 c 2,0,-1
473 66 m 1,37,-1
 473 1048 l 1,38,-1
 116 1048 l 2,39,40
 62 1048 62 1048 51 1059 c 0,41,42
 43 1067 43 1067 43 1079 c 0,43,44
 43 1085 43 1085 44 1090.5 c 128,-1,45
 45 1096 45 1096 48.5 1099.5 c 128,-1,46
 52 1103 52 1103 54.5 1105.5 c 128,-1,47
 57 1108 57 1108 63 1109.5 c 128,-1,48
 69 1111 69 1111 72 1112 c 128,-1,49
 75 1113 75 1113 83 1113.5 c 128,-1,50
 91 1114 91 1114 93.5 1114 c 128,-1,51
 96 1114 96 1114 105 1114 c 128,-1,52
 114 1114 114 1114 116 1114 c 2,53,-1
 915 1114 l 2,54,55
 918 1114 918 1114 923 1114 c 0,56,57
 946 1114 946 1114 956.5 1113 c 128,-1,58
 967 1112 967 1112 977 1104.5 c 128,-1,59
 987 1097 987 1097 987 1081 c 128,-1,60
 987 1065 987 1065 977 1057.5 c 128,-1,61
 967 1050 967 1050 956.5 1049 c 128,-1,62
 946 1048 946 1048 923 1048 c 0,63,64
 918 1048 918 1048 915 1048 c 2,65,-1
 558 1048 l 1,66,-1
 558 66 l 1,67,-1
 915 66 l 2,68,69
 918 66 918 66 923 66 c 0,70,71
 946 66 946 66 956.5 65 c 128,-1,72
 967 64 967 64 977 56.5 c 128,-1,73
 987 49 987 49 987 33 c 128,-1,74
 987 17 987 17 977 9.5 c 128,-1,75
 967 2 967 2 956.5 1 c 128,-1,76
 946 0 946 0 923 0 c 0,77,78
 918 0 918 0 915 0 c 2,79,-1
 116 0 l 2,80,81
 114 0 114 0 105 0 c 128,-1,82
 96 0 96 0 93.5 0 c 128,-1,83
 91 0 91 0 83 0.5 c 128,-1,84
 75 1 75 1 72 2 c 128,-1,85
 69 3 69 3 63 4.5 c 128,-1,86
 57 6 57 6 54.5 8.5 c 128,-1,87
 52 11 52 11 48.5 14.5 c 128,-1,88
 45 18 45 18 44 23.5 c 128,-1,89
 43 29 43 29 43 35 c 0,90,91
 43 50 43 50 54.5 57 c 128,-1,92
 66 64 66 64 77 65 c 128,-1,93
 88 66 88 66 110 66 c 0,94,95
 114 66 114 66 116 66 c 2,96,-1
 473 66 l 1,37,-1
EndSplineSet
EndChar

StartChar: ij
Encoding: 307 307 242
Width: 909
GlyphClass: 2
Flags: W
LayerCount: 2
Fore
SplineSet
691 992 m 128,-1,1
 691 1015 691 1015 706 1030.5 c 128,-1,2
 721 1046 721 1046 744 1046 c 128,-1,3
 767 1046 767 1046 783 1030.5 c 128,-1,4
 799 1015 799 1015 799 992 c 128,-1,5
 799 969 799 969 783.5 955 c 128,-1,6
 768 941 768 941 744 941 c 0,7,8
 721 941 721 941 706 955 c 128,-1,0
 691 969 691 969 691 992 c 128,-1,1
785 714 m 2,9,-1
 785 94 l 2,10,11
 785 54 785 54 784 29.5 c 128,-1,12
 783 5 783 5 777.5 -37 c 128,-1,13
 772 -79 772 -79 761 -106.5 c 128,-1,14
 750 -134 750 -134 728.5 -167 c 128,-1,15
 707 -200 707 -200 676.5 -219.5 c 128,-1,16
 646 -239 646 -239 599 -252.5 c 128,-1,17
 552 -266 552 -266 492 -266 c 0,18,19
 469 -266 469 -266 458 -265 c 128,-1,20
 447 -264 447 -264 436.5 -255.5 c 128,-1,21
 426 -247 426 -247 426 -231 c 0,22,23
 426 -218 426 -218 430.5 -211 c 128,-1,24
 435 -204 435 -204 446.5 -201 c 128,-1,25
 458 -198 458 -198 466 -197.5 c 128,-1,26
 474 -197 474 -197 492 -197 c 0,27,28
 537 -197 537 -197 571 -188 c 128,-1,29
 605 -179 605 -179 627.5 -166.5 c 128,-1,30
 650 -154 650 -154 665.5 -129.5 c 128,-1,31
 681 -105 681 -105 688.5 -86.5 c 128,-1,32
 696 -68 696 -68 700 -33 c 128,-1,33
 704 2 704 2 704.5 21.5 c 128,-1,34
 705 41 705 41 705 80 c 0,35,36
 705 89 705 89 705 94 c 2,37,-1
 705 714 l 2,38,39
 705 739 705 739 713.5 752.5 c 128,-1,40
 722 766 722 766 746 766 c 0,41,42
 760 766 760 766 768.5 762.5 c 128,-1,43
 777 759 777 759 780.5 750.5 c 128,-1,44
 784 742 784 742 784.5 735 c 128,-1,45
 785 728 785 728 785 714 c 2,9,-1
159 992 m 128,-1,47
 159 1015 159 1015 174 1030.5 c 128,-1,48
 189 1046 189 1046 212 1046 c 128,-1,49
 235 1046 235 1046 251 1030.5 c 128,-1,50
 267 1015 267 1015 267 992 c 128,-1,51
 267 969 267 969 251.5 955 c 128,-1,52
 236 941 236 941 212 941 c 0,53,54
 189 941 189 941 174 955 c 128,-1,46
 159 969 159 969 159 992 c 128,-1,47
252 707 m 2,55,-1
 252 63 l 2,56,57
 252 41 252 41 250.5 30 c 128,-1,58
 249 19 249 19 239.5 9.5 c 128,-1,59
 230 0 230 0 212 0 c 0,60,61
 186 0 186 0 179 14.5 c 128,-1,62
 172 29 172 29 172 63 c 2,63,-1
 172 705 l 2,64,65
 172 734 172 734 180.5 750 c 128,-1,66
 189 766 189 766 214 766 c 0,67,68
 252 766 252 766 252 707 c 2,55,-1
EndSplineSet
EndChar

StartChar: kgreenlandic
Encoding: 312 312 247
Width: 921
GlyphClass: 2
Flags: W
LayerCount: 2
Fore
SplineSet
464 473 m 1,0,-1
 872 61 l 2,1,2
 885 48 885 48 885 32 c 0,3,4
 885 19 885 19 876 10.5 c 128,-1,5
 867 2 867 2 853 2 c 0,6,7
 834 2 834 2 819 18 c 2,8,-1
 403 444 l 1,9,-1
 180 318 l 1,10,-1
 180 44 l 2,11,12
 180 22 180 22 168 11 c 128,-1,13
 156 0 156 0 140 0 c 0,14,15
 125 0 125 0 112.5 11.5 c 128,-1,16
 100 23 100 23 100 44 c 2,17,-1
 100 737 l 2,18,19
 100 756 100 756 113.5 766.5 c 128,-1,20
 127 777 127 777 142 777 c 0,21,22
 158 777 158 777 169 766.5 c 128,-1,23
 180 756 180 756 180 737 c 2,24,-1
 180 385 l 1,25,-1
 846 772 l 2,26,27
 852 775 852 775 859 775 c 0,28,29
 871 775 871 775 879.5 765 c 128,-1,30
 888 755 888 755 888 743 c 0,31,32
 888 727 888 727 872 720 c 1,33,-1
 464 473 l 1,0,-1
EndSplineSet
EndChar

StartChar: Lslash
Encoding: 321 321 256
Width: 1109
GlyphClass: 2
Flags: W
LayerCount: 2
Fore
SplineSet
-6 500 m 1,0,-1
 -27 563 l 1,1,-1
 207 657 l 1,2,-1
 207 1044 l 2,3,4
 207 1064 207 1064 207.5 1073 c 128,-1,5
 208 1082 208 1082 211.5 1093.5 c 128,-1,6
 215 1105 215 1105 223.5 1109.5 c 128,-1,7
 232 1114 232 1114 246 1114 c 0,8,9
 261 1114 261 1114 268.5 1103 c 128,-1,10
 276 1092 276 1092 277 1080.5 c 128,-1,11
 278 1069 278 1069 278 1044 c 2,12,-1
 278 688 l 1,13,-1
 641 836 l 1,14,-1
 661 772 l 1,15,-1
 278 612 l 1,16,-1
 278 70 l 1,17,-1
 1006 70 l 2,18,19
 1031 70 1031 70 1043 69 c 128,-1,20
 1055 68 1055 68 1066 59.5 c 128,-1,21
 1077 51 1077 51 1077 35 c 0,22,23
 1077 11 1077 11 1060 5.5 c 128,-1,24
 1043 0 1043 0 1006 0 c 2,25,-1
 246 0 l 2,26,27
 216 0 216 0 211.5 8 c 128,-1,28
 207 16 207 16 207 70 c 2,29,-1
 207 584 l 1,30,-1
 -6 500 l 1,0,-1
EndSplineSet
EndChar

StartChar: lslash
Encoding: 322 322 257
Width: 519
GlyphClass: 2
Flags: W
LayerCount: 2
Fore
SplineSet
360 639 m 1,0,1
 337 628 337 628 296 612 c 1,2,-1
 296 72 l 2,3,4
 296 57 296 57 295.5 49.5 c 128,-1,5
 295 42 295 42 293.5 31 c 128,-1,6
 292 20 292 20 288.5 15 c 128,-1,7
 285 10 285 10 278 6 c 128,-1,8
 271 2 271 2 261 2 c 0,9,10
 239 2 239 2 231 17.5 c 128,-1,11
 223 33 223 33 223 64 c 0,12,13
 223 73 223 73 224 95 c 128,-1,14
 225 117 225 117 225 129 c 2,15,-1
 225 584 l 1,16,-1
 10 489 l 1,17,-1
 -9 553 l 1,18,-1
 225 657 l 1,19,-1
 225 1044 l 2,20,21
 225 1065 225 1065 225.5 1073 c 128,-1,22
 226 1081 226 1081 229 1093 c 128,-1,23
 232 1105 232 1105 240 1109.5 c 128,-1,24
 248 1114 248 1114 261 1114 c 0,25,26
 285 1114 285 1114 290.5 1097.5 c 128,-1,27
 296 1081 296 1081 296 1044 c 2,28,-1
 296 688 l 1,29,30
 329 702 329 702 406.5 735 c 128,-1,31
 484 768 484 768 528 786 c 1,32,-1
 548 723 l 1,33,34
 473 687 473 687 360 639 c 1,0,1
EndSplineSet
EndChar

StartChar: OE
Encoding: 338 338 270
Width: 2379
GlyphClass: 2
Flags: W
LayerCount: 2
Fore
SplineSet
1250 1008 m 1,0,1
 1107 1069 1107 1069 857 1069 c 0,2,3
 522 1069 522 1069 365 950 c 128,-1,4
 208 831 208 831 208 557 c 128,-1,5
 208 283 208 283 365 164 c 128,-1,6
 522 45 522 45 857 45 c 0,7,8
 1104 45 1104 45 1250 107 c 1,9,-1
 1250 1008 l 1,0,1
2276 35 m 0,10,11
 2276 4 2276 4 2240 1 c 0,12,13
 2232 0 2232 0 2221 0 c 0,14,15
 2218 0 2218 0 2211.5 0 c 128,-1,16
 2205 0 2205 0 2202 0 c 2,17,-1
 1289 0 l 2,18,19
 1260 0 1260 0 1255 4 c 128,-1,20
 1250 8 1250 8 1250 34 c 1,21,22
 1093 -21 1093 -21 857 -21 c 0,23,24
 479 -21 479 -21 301 121 c 128,-1,25
 123 263 123 263 123 557 c 128,-1,26
 123 851 123 851 301 993 c 128,-1,27
 479 1135 479 1135 857 1135 c 0,28,29
 1101 1135 1101 1135 1250 1081 c 1,30,31
 1250 1087 1250 1087 1250.5 1091 c 128,-1,32
 1251 1095 1251 1095 1251 1098.5 c 128,-1,33
 1251 1102 1251 1102 1252 1104 c 128,-1,34
 1253 1106 1253 1106 1253.5 1108 c 128,-1,35
 1254 1110 1254 1110 1256.5 1111 c 128,-1,36
 1259 1112 1259 1112 1259.5 1113 c 128,-1,37
 1260 1114 1260 1114 1264.5 1114 c 128,-1,38
 1269 1114 1269 1114 1270.5 1114 c 128,-1,39
 1272 1114 1272 1114 1278 1114 c 128,-1,40
 1284 1114 1284 1114 1287 1114 c 2,41,-1
 2200 1114 l 2,42,43
 2203 1114 2203 1114 2209.5 1114 c 128,-1,44
 2216 1114 2216 1114 2219 1114 c 0,45,46
 2247 1114 2247 1114 2260.5 1107.5 c 128,-1,47
 2274 1101 2274 1101 2274 1079 c 0,48,49
 2274 1068 2274 1068 2269.5 1061.5 c 128,-1,50
 2265 1055 2265 1055 2255.5 1052.5 c 128,-1,51
 2246 1050 2246 1050 2237 1049 c 128,-1,52
 2228 1048 2228 1048 2212 1048 c 0,53,54
 2210 1048 2210 1048 2206 1048 c 128,-1,55
 2202 1048 2202 1048 2200 1048 c 2,56,-1
 1335 1048 l 1,57,-1
 1335 601 l 1,58,-1
 2173 601 l 2,59,60
 2176 601 2176 601 2182 601 c 128,-1,61
 2188 601 2188 601 2191 601 c 0,62,63
 2209 601 2209 601 2219.5 599.5 c 128,-1,64
 2230 598 2230 598 2238.5 591.5 c 128,-1,65
 2247 585 2247 585 2247 572 c 0,66,67
 2247 552 2247 552 2236 545.5 c 128,-1,68
 2225 539 2225 539 2202 539 c 0,69,70
 2198 539 2198 539 2188 539.5 c 128,-1,71
 2178 540 2178 540 2173 540 c 2,72,-1
 1335 540 l 1,73,-1
 1335 66 l 1,74,-1
 2202 66 l 2,75,76
 2203 66 2203 66 2205 66 c 128,-1,77
 2207 66 2207 66 2208.5 66 c 128,-1,78
 2210 66 2210 66 2211.5 66 c 128,-1,79
 2213 66 2213 66 2214 66 c 0,80,81
 2235 66 2235 66 2246 64.5 c 128,-1,82
 2257 63 2257 63 2266.5 56 c 128,-1,83
 2276 49 2276 49 2276 35 c 0,10,11
EndSplineSet
EndChar

StartChar: oe
Encoding: 339 339 271
Width: 1819
GlyphClass: 2
Flags: W
LayerCount: 2
Fore
SplineSet
614 -10 m 0,0,1
 479 -10 479 -10 382.5 17 c 128,-1,2
 286 44 286 44 230 96.5 c 128,-1,3
 174 149 174 149 148.5 219.5 c 128,-1,4
 123 290 123 290 123 385 c 0,5,6
 123 596 123 596 240.5 691 c 128,-1,7
 358 786 358 786 614 786 c 0,8,9
 868 786 868 786 966 681 c 1,10,11
 1081 786 1081 786 1346 786 c 0,12,13
 1552 786 1552 786 1656.5 707 c 128,-1,14
 1761 628 1761 628 1761 479 c 0,15,16
 1761 450 1761 450 1746 414.5 c 128,-1,17
 1731 379 1731 379 1717 379 c 2,18,-1
 996 379 l 1,19,-1
 996 137 l 1,20,21
 1047 103 1047 103 1139 76 c 128,-1,22
 1231 49 1231 49 1348 49 c 0,23,24
 1436 49 1436 49 1533.5 72 c 128,-1,25
 1631 95 1631 95 1685 122 c 0,26,27
 1697 127 1697 127 1706 127 c 0,28,29
 1719 127 1719 127 1726.5 119.5 c 128,-1,30
 1734 112 1734 112 1734 101 c 0,31,32
 1734 81 1734 81 1713 70 c 0,33,34
 1558 -10 1558 -10 1349 -10 c 0,35,36
 1083 -10 1083 -10 966 96 c 1,37,38
 869 -10 869 -10 614 -10 c 0,0,1
614 49 m 0,39,40
 868 49 868 49 935 137 c 1,41,-1
 935 649 l 1,42,43
 847 727 847 727 614 727 c 0,44,45
 394 727 394 727 298.5 648.5 c 128,-1,46
 203 570 203 570 203 385 c 0,47,48
 203 330 203 330 210.5 287 c 128,-1,49
 218 244 218 244 243.5 197 c 128,-1,50
 269 150 269 150 312 119.5 c 128,-1,51
 355 89 355 89 432 69 c 128,-1,52
 509 49 509 49 614 49 c 0,39,40
996 431 m 1,53,-1
 1695 431 l 1,54,-1
 1698 452 l 1,55,56
 1702 467 1702 467 1702 485 c 0,57,58
 1702 594 1702 594 1617 660.5 c 128,-1,59
 1532 727 1532 727 1346 727 c 0,60,61
 1127 727 1127 727 996 648 c 1,62,-1
 996 431 l 1,53,-1
EndSplineSet
EndChar

StartChar: uni0237
Encoding: 567 567 346
Width: 483
GlyphClass: 2
Flags: W
LayerCount: 2
Fore
SplineSet
359 714 m 2,0,-1
 359 94 l 2,1,2
 359 54 359 54 358 29.5 c 128,-1,3
 357 5 357 5 351.5 -37 c 128,-1,4
 346 -79 346 -79 335 -106.5 c 128,-1,5
 324 -134 324 -134 302.5 -167 c 128,-1,6
 281 -200 281 -200 250.5 -219.5 c 128,-1,7
 220 -239 220 -239 173 -252.5 c 128,-1,8
 126 -266 126 -266 66 -266 c 0,9,10
 43 -266 43 -266 32 -265 c 128,-1,11
 21 -264 21 -264 10.5 -255.5 c 128,-1,12
 0 -247 0 -247 0 -231 c 0,13,14
 0 -218 0 -218 4.5 -211 c 128,-1,15
 9 -204 9 -204 20.5 -201 c 128,-1,16
 32 -198 32 -198 40 -197.5 c 128,-1,17
 48 -197 48 -197 66 -197 c 0,18,19
 111 -197 111 -197 145 -188 c 128,-1,20
 179 -179 179 -179 201.5 -166.5 c 128,-1,21
 224 -154 224 -154 239.5 -129.5 c 128,-1,22
 255 -105 255 -105 262.5 -86.5 c 128,-1,23
 270 -68 270 -68 274 -33 c 128,-1,24
 278 2 278 2 278.5 21.5 c 128,-1,25
 279 41 279 41 279 80 c 0,26,27
 279 89 279 89 279 94 c 2,28,-1
 279 714 l 2,29,30
 279 744 279 744 287.5 759.5 c 128,-1,31
 296 775 296 775 320 775 c 0,32,33
 338 775 338 775 347 766 c 128,-1,34
 356 757 356 757 357.5 746.5 c 128,-1,35
 359 736 359 736 359 714 c 2,0,-1
EndSplineSet
EndChar

StartChar: circumflex
Encoding: 710 710 347
Width: 482
GlyphClass: 2
Flags: W
LayerCount: 2
Fore
SplineSet
241 1110 m 1,0,-1
 111 892 l 1,1,-1
 35 892 l 1,2,-1
 188 1127 l 2,3,4
 212 1165 212 1165 241 1165 c 0,5,6
 268 1165 268 1165 294 1127 c 1,7,-1
 447 892 l 1,8,-1
 371 892 l 1,9,-1
 241 1110 l 1,0,-1
EndSplineSet
EndChar

StartChar: caron
Encoding: 711 711 348
Width: 478
GlyphClass: 2
Flags: W
LayerCount: 2
Fore
SplineSet
149 1248 m 1,0,-1
 279 1030 l 1,1,-1
 409 1248 l 1,2,-1
 485 1248 l 1,3,-1
 332 1013 l 1,4,5
 306 975 306 975 279 975 c 0,6,7
 250 975 250 975 226 1013 c 2,8,-1
 73 1248 l 1,9,-1
 149 1248 l 1,0,-1
EndSplineSet
EndChar

StartChar: breve
Encoding: 728 728 349
Width: 654
GlyphClass: 2
Flags: W
LayerCount: 2
Fore
SplineSet
507 1175 m 1,0,-1
 544 1175 l 1,1,2
 544 989 544 989 359 989 c 128,-1,3
 174 989 174 989 174 1175 c 1,4,-1
 211 1175 l 1,5,6
 213 1121 213 1121 247 1081 c 128,-1,7
 281 1041 281 1041 359 1041 c 0,8,9
 435 1041 435 1041 468.5 1080.5 c 128,-1,10
 502 1120 502 1120 507 1175 c 1,0,-1
EndSplineSet
EndChar

StartChar: dotaccent
Encoding: 729 729 350
Width: 245
GlyphClass: 2
Flags: W
LayerCount: 2
Fore
SplineSet
104 1055 m 0,0,1
 104 1081 104 1081 120 1097.5 c 128,-1,2
 136 1114 136 1114 162 1114 c 0,3,4
 187 1114 187 1114 204.5 1097.5 c 128,-1,5
 222 1081 222 1081 222 1055 c 0,6,7
 222 1031 222 1031 204.5 1015 c 128,-1,8
 187 999 187 999 162 999 c 0,9,10
 136 999 136 999 120 1014.5 c 128,-1,11
 104 1030 104 1030 104 1055 c 0,0,1
EndSplineSet
EndChar

StartChar: ring
Encoding: 730 730 351
Width: 367
GlyphClass: 2
Flags: W
LayerCount: 2
Fore
SplineSet
117 997 m 0,0,1
 117 971 117 971 136.5 951.5 c 128,-1,2
 156 932 156 932 184 932 c 128,-1,3
 212 932 212 932 232 951.5 c 128,-1,4
 252 971 252 971 252 997 c 0,5,6
 252 1024 252 1024 232 1042.5 c 128,-1,7
 212 1061 212 1061 184 1061 c 128,-1,8
 156 1061 156 1061 136.5 1042.5 c 128,-1,9
 117 1024 117 1024 117 997 c 0,0,1
301 997 m 128,-1,11
 301 949 301 949 266.5 917 c 128,-1,12
 232 885 232 885 184 885 c 128,-1,13
 136 885 136 885 101 917.5 c 128,-1,14
 66 950 66 950 66 997 c 0,15,16
 66 1045 66 1045 100 1077.5 c 128,-1,17
 134 1110 134 1110 184 1110 c 0,18,19
 232 1110 232 1110 266.5 1077.5 c 128,-1,10
 301 1045 301 1045 301 997 c 128,-1,11
EndSplineSet
EndChar

StartChar: ogonek
Encoding: 731 731 352
Width: 293
GlyphClass: 2
Flags: W
LayerCount: 2
Fore
SplineSet
175 6 m 1,0,-1
 205 6 l 1,1,2
 135 -76 135 -76 135 -151 c 0,3,4
 135 -188 135 -188 151 -205.5 c 128,-1,5
 167 -223 167 -223 186 -223 c 0,6,7
 211 -223 211 -223 257 -193 c 1,8,-1
 267 -202 l 1,9,10
 250 -237 250 -237 215 -258 c 128,-1,11
 180 -279 180 -279 141 -279 c 0,12,13
 103 -279 103 -279 74.5 -254.5 c 128,-1,14
 46 -230 46 -230 46 -182 c 0,15,16
 46 -99 46 -99 175 6 c 1,0,-1
EndSplineSet
EndChar

StartChar: tilde
Encoding: 732 732 353
Width: 796
GlyphClass: 2
Flags: W
LayerCount: 2
Fore
SplineSet
604 984 m 0,0,1
 625 984 625 984 632 1000 c 128,-1,2
 639 1016 639 1016 639 1052 c 1,3,-1
 702 1052 l 1,4,5
 707 1022 707 1022 707 997 c 0,6,7
 707 960 707 960 680.5 938 c 128,-1,8
 654 916 654 916 608 916 c 0,9,10
 550 916 550 916 458.5 951 c 128,-1,11
 367 986 367 986 326 986 c 0,12,13
 294 986 294 986 294 948 c 0,14,15
 294 943 294 943 294.5 934 c 128,-1,16
 295 925 295 925 295 921 c 1,17,-1
 232 921 l 1,18,19
 226 946 226 946 226 976 c 0,20,21
 226 1012 226 1012 253 1034.5 c 128,-1,22
 280 1057 280 1057 326 1057 c 0,23,24
 383 1057 383 1057 475 1020.5 c 128,-1,25
 567 984 567 984 604 984 c 0,0,1
EndSplineSet
EndChar

StartChar: hungarumlaut
Encoding: 733 733 354
Width: 358
GlyphClass: 2
Flags: W
LayerCount: 2
Fore
SplineSet
499 1005 m 2,0,-1
 763 1271 l 2,1,2
 774 1282 774 1282 788 1282 c 0,3,4
 806 1282 806 1282 823 1265.5 c 128,-1,5
 840 1249 840 1249 840 1231 c 0,6,7
 840 1215 840 1215 825 1203 c 2,8,-1
 533 966 l 2,9,10
 526 961 526 961 518 961 c 0,11,12
 507 961 507 961 499 968.5 c 128,-1,13
 491 976 491 976 491 987 c 0,14,15
 491 997 491 997 499 1005 c 2,0,-1
271 1005 m 2,16,-1
 535 1271 l 2,17,18
 546 1282 546 1282 560 1282 c 0,19,20
 578 1282 578 1282 595 1265.5 c 128,-1,21
 612 1249 612 1249 612 1231 c 0,22,23
 612 1215 612 1215 597 1203 c 2,24,-1
 305 966 l 2,25,26
 298 961 298 961 290 961 c 0,27,28
 279 961 279 961 271 968.5 c 128,-1,29
 263 976 263 976 263 987 c 0,30,31
 263 997 263 997 271 1005 c 2,16,-1
EndSplineSet
EndChar

StartChar: uni0307
Encoding: 775 775 355
Width: 245
GlyphClass: 2
Flags: W
LayerCount: 2
Fore
SplineSet
104 1055 m 0,0,1
 104 1081 104 1081 120 1097.5 c 128,-1,2
 136 1114 136 1114 162 1114 c 0,3,4
 187 1114 187 1114 204.5 1097.5 c 128,-1,5
 222 1081 222 1081 222 1055 c 0,6,7
 222 1031 222 1031 204.5 1015 c 128,-1,8
 187 999 187 999 162 999 c 0,9,10
 136 999 136 999 120 1014.5 c 128,-1,11
 104 1030 104 1030 104 1055 c 0,0,1
EndSplineSet
EndChar

